<mxfile host="app.diagrams.net" agent="Mozilla/5.0 (X11; Linux x86_64) AppleWebKit/537.36 (KHTML, like Gecko) Chrome/125.0.0.0 Safari/537.36" version="26.0.4">
  <diagram name="第 1 页" id="ireWdEBkMu9e87yKrKui">
    <mxGraphModel dx="1196" dy="599" grid="1" gridSize="10" guides="1" tooltips="1" connect="1" arrows="1" fold="1" page="1" pageScale="1" pageWidth="827" pageHeight="1169" math="0" shadow="0">
      <root>
        <mxCell id="0" />
        <mxCell id="1" parent="0" />
        <mxCell id="cn1FPqtZHzVA6MvDkewv-1" value="&lt;span style=&quot;&quot;&gt;A cock, or rooster, typically has vibrant feathers, a prominent comb on its head, and a long, curved tail, often showcasing hues of red, gold, and green.&lt;/span&gt;" style="rounded=0;whiteSpace=wrap;html=1;align=left;fillColor=#d5e8d4;strokeColor=#82b366;" vertex="1" parent="1">
          <mxGeometry x="200.84" y="820" width="370" height="60" as="geometry" />
        </mxCell>
        <mxCell id="cn1FPqtZHzVA6MvDkewv-2" value="How cock looks like?" style="rounded=0;whiteSpace=wrap;html=1;align=right;fillColor=#dae8fc;strokeColor=#6c8ebf;" vertex="1" parent="1">
          <mxGeometry x="442.5" y="760" width="130" height="40" as="geometry" />
        </mxCell>
        <mxCell id="cn1FPqtZHzVA6MvDkewv-3" value="" style="sketch=0;pointerEvents=1;shadow=0;dashed=0;html=1;strokeColor=none;labelPosition=center;verticalLabelPosition=bottom;verticalAlign=top;outlineConnect=0;align=center;shape=mxgraph.office.users.user;fillColor=#2072B8;" vertex="1" parent="1">
          <mxGeometry x="592.5" y="760" width="40" height="40" as="geometry" />
        </mxCell>
        <mxCell id="cn1FPqtZHzVA6MvDkewv-4" value="" style="sketch=0;pointerEvents=1;shadow=0;dashed=0;html=1;strokeColor=none;fillColor=#505050;labelPosition=center;verticalLabelPosition=bottom;verticalAlign=top;outlineConnect=0;align=center;shape=mxgraph.office.services.web_services;" vertex="1" parent="1">
          <mxGeometry x="150" y="830" width="40" height="40" as="geometry" />
        </mxCell>
        <mxCell id="cn1FPqtZHzVA6MvDkewv-5" value="" style="rounded=0;whiteSpace=wrap;html=1;align=right;fillColor=#dae8fc;strokeColor=#6c8ebf;" vertex="1" parent="1">
          <mxGeometry x="450" y="930" width="140" height="130" as="geometry" />
        </mxCell>
        <mxCell id="cn1FPqtZHzVA6MvDkewv-6" value="" style="sketch=0;pointerEvents=1;shadow=0;dashed=0;html=1;strokeColor=none;labelPosition=center;verticalLabelPosition=bottom;verticalAlign=top;outlineConnect=0;align=center;shape=mxgraph.office.users.user;fillColor=#2072B8;" vertex="1" parent="1">
          <mxGeometry x="600" y="930" width="40" height="40" as="geometry" />
        </mxCell>
        <mxCell id="cn1FPqtZHzVA6MvDkewv-7" value="" style="shape=image;verticalLabelPosition=bottom;labelBackgroundColor=default;verticalAlign=top;aspect=fixed;imageAspect=0;image=data:image/png,iVBORw0KGgoAAAANSUhEUgAAANQAAACUCAYAAADrhgd0AAAACXBIWXMAABJ0AAASdAHeZh94AAAgAElEQVR4AQBXgah+AWeXTf///gEAAQEAAAIAAgD/AP8AAQECAAAB/gD/AAAAAAD+AAH/AAAAAAIA/wD+AAH/AAD+/vsAAAD9AAEAAQD//v0A///+AP8AAgD+AAAAAAEBAAMABAD8//8AAv8AAAIDBAD/AP8AAf8AAAABAAD/AAEAAQEDAAD//gABAwAA////AAQDBAD///8AAQECAP//AAD+//wAAwEBAP0A/gABAP4AAgIBAP8AAAD+//0ABAABAAH//gAAAQQAAQH/AP///gD9AP0A/AD+AAQBBQADAQEA/wACAAP/AQACAgAAAAIBAP8A/wACAAIA//8AAAACBAAC/v0A/wAAAAABAQAA//8AAgEFAP7/AQABAf4AAwABAAIBBAD+/voA/QIAAAD//gD+AP4A/wD8AAEAAgD///wAAQEBAP/+/AACAQMA/wECAP7+AQAAAf0AAf8CAP8A/AD//wAA////AP3+/gAA//4AAgEBAPwBAAAB/f0AAQABAAEBBAD9/gAAAwMCAP79AAAB//8AAAAAAAMBAgABAP8A/gD/AAEBAwAAAAEAAgECAP7/AAACAwIA/wD+AP8A/wADAAEAAQIDAP//AgD/APwAAAD+AAIAAQD9AAEAAgD+AP8AAAABAgEAAQACAAMBAAADAQQA/gECAP8A/wAAAP4AAP/+AAMBAQACAAQA/gABAAEA/gAAAgIAAf8BAP3+AQD///0AAAABAP8AAAD+/v0AAQADAP7//QAAAP8A/f8AAAEA+wD+//0AAgH+AAAAAwAEAAQAAQH9AP4AAQD/AAIAAQD/AAMBAgD9/f8A/wECAAEB/wAAAQEA/P76AAL/AQD//v8A/QD+AAQBAgAAAQAA/gABAAAA/gABAAEA/v/9AAEDAQD9/v0AAQMAAAAA/AABAf4AAAEFAAAAAgABA/4AAQAAAAD/AwADAAQAAQECAAAA/AABAQAAAf8CAAD/AQAAAAEA/gL/AP/+/QAA/wAA/f7/AP/+AQAA//4A//39AP8B/wD///8AAAECAP/+AAAAAP8AAQAAAAH/AgACAAAAAAIEAAECAgAAAAIAAQICAP8A/QACAAIAAwEEAP4A/gAAAAQA////AAECAQD+/v0A/v4AAP8A/ACUabUBBPz//gADAQEAAP8AAP4B/gABAQEA/f7+AAADAQAD//8AAf/+APz/AAAEAgIA/v76AP8BAAD/AQEA//7/AAL//gD+/v4AAAL/AP3+/QAAAgMAAv/9AP7//QAEAgUAAQADAP3//gD/AP8AAgEAAAD+/wAAAQMA///8AAEA/wD+/P8AAwICAP/8/QD/AQAA/gH+AP8B/wD+AP8AAAIAAP3+/gAEAAIA/v3+AAAA/wABAgAA/v/+AAH/AAD+Af4AAv//AAL/AAABAQIABQICAAD+AAD+AP8AA/8AAP8BAAD/AAAAAf//AP///gAAAgIAAQEAAAEA/wAAAv8AAQADAP8AAQAAAAAA/gECAP7//gAEAQIA/f78AP4AAAAAAQIAAP8BAAD/AQAB//8AAQIFAAAA/wAAAQIA/f7/AAECBAD//wMAAP7+AAAB/wD+Af8AAf/+APz/+wACAQIA/gACAAAC/QAA/QAAAAAAAAD/AwABAgQAAP4AAAD/AAADAv8A///+AAIAAgAA/wAAAgEBAAAB/wAAAAEAAP8BAAACAQAA/v8A////AAMCBAAAAAMA///7AAQBBAD/AgEAAQEAAAD//QAA//4AAgICAP7//wADAAAAAAH/AAH/AAAAAAQAAQAAAAEBAgD+AP4AAP//AAMBAwAAAQQA/wD9AP7+AgABAwEA////AAABAQD7/f0ABQEDAAL//wD/AQQA/v/+AAEA/AABAf4A/v7/AP4A/QABAP8AAgEBAP8A/wABAAAAAAACAAEAAAD/AgEA//8BAAIBAQD9/v8A/wEAAP3//wACAgEA+v/9AAD+AQADAQAAAf8CAAEB/wD/AAAAAQACAP8AAAAFAQIA/P7/APz//gAAAQEAAQL/APz+/QACAv0A//8BAAECBAAAAf0AAgAAAAACAQAB/gEAAQIAAAEBAgABAQEA/v/9AAECAgAB/wEA/f7/AAMCAQD/AP8AAv//AP8AAgD+//8AAgECAAECAQD9/gAA/gEAAAIAAAD9//8ABAD/AP8A/AD9AAEAAQECAP3++wAAAgcAAv/9AAD//wACAgMA/v//AAABAAD/AAEA/AD8AAIBAQAA//8AAgIBAP/+/gABAP4AAgICAAD/BQAAAAAABP8AAAAAAAAA/gD+AAIAAgAA/f4AAQECAP7+/QD9Av8A//7+AAICBQD8/v0AAQACAP7+/QAAAf8A/gABAP3+AAACAQIAAv//AAMBAAD//wAA/wAAAP8BAgAB/v4A/gH+AP//AwD/AQAA/f79AAUBBQD+/v8AAAL/AP///wAAAQIA/f8AAAIA/wAAAQEA/wD/AAH//gAE/wEAAf4BAP7//wD///0AAQD/AAAA/wD+/QAAAwECAP4A/wD/AP0AAQECAP/+/wAA/wAA//8AAAMCAgD+//0A/gD+AAIAAgD//wEA/wD/AAEBAwD8/v8ABAMAAP8A/wAA/wQAAQAEAP4A/gABAAEA/v7+AAIA/wD///0A/gD+AAEBAgD///4AAP79AAIBAgAAAQEA/v79AAIC/wAA//8AAgIEAP8A/QD+Af4AAQAAAAIBAAAA/gUAAQD+AAMAAgD//wMAAP7/AAMBBAD/AgAAAP/9AAQBAAD//wEA/wH/AP3//QAA/f8AAQECAP//AAABAAAA/wL/AP//AgAD/wAAAgIBAP79AQACAgEAAAAAAP7//gAAAQEAAQEDAP7//wAAAAIA/v7+AAEAAAABAQIA//8BAAMBAAD+/wAAAAECAP///gADAAAAAAH9AP//AAD/AP8AAwEDAP8A/AD/AAEAAAECAAAEAAD9//0AAAEBAP/+AQACAgMA/gD+AAACAQD+/vwAAAD/AP8A/wABAQAAAgL/AAP/AQAA//8A+v/9AP8A/wADAQUA/v//AP8A/wACAQAAAP4BAAAAAAABAP8A//8AAAAA/wABAP8AAgD+AAABBgABAAAAAwD+AP7+/wD+/wAAAwADAAL+/QAA//0AAQH9AAEA/gAAAAQAAP/9AAH/AQAA/gEAAwEBAAH+AAD/AQEAAgICAAAA/wAAAgIAAgEBAAD/AgADAQIAAv8DAAD9AQAAAgIAAAL8AP0A/wAGAAEA/AAAAP4AAQD/AQAAAP//AP7//wAAAAAAAgEDAAL+/AADAgQA/v0AAP4AAgD/AfwA/v79AAMAAwAC/wAAAQL/AAEA/gAA//4AAAABAAEBAAACAAAA/wD/AP7/AgAA//4AAgECAAAAAQACAP8A/v/9AP//AwAAAAAABP7+/gD9AQIA/v//AAD//gAC/wEAAQD+AAAB/gD/+/0AAwIBAP79+wD9AQIAAv/+AAL//wD//v4AAQABAP8CAAD+AP8A/wD/AP/9/wACAQEA/wH/AP4BAQACAAYA/v/6AAAA/QAAAAEA/gD/APn++wACAQYA/v39AAMCAAAA//0A/wAAAPsAAQAFAAQA/v39AAIBAQACAPwA/v3/AP8B/wD+AAAAAf/9AAABAQABAgMAAP7+AP4AAAACAAIA/P8AAP8CAAABAAAAAP//AAD9/QABAgEA/wH+AAD/AgD+AP8AAAD/AAIA/wAAAAAA/P4BAAQABAD/AQAAAAD+AP4A+wABAAUA/v79AAIBAAD/AP8AAAD/AP7+/QABAQAA/gL+AP3+/AACAgIAAAEAAAAA/wD//wEAAAAAAAIBAgD+APwAAAEDAPv//gACAf0AAP/+AAEABAAAAP8AAQAAAP39AAACAgMAAAD8AP8A/wAA/wIA/wD+AP8BAQABAgAAAf8CAAECAgD+/vwA/wABAAEAAwD/AP4AAf//AAICAAAA/wEAAQH/AAADAAD/AP0AAP8CAAMCAAD+//wAAwIDAAD/BAD+//4AAgIAAAH//wABAP4AAP8BAAMCBAD+AP8AAQACAAAAAQABAQEA/QD+AAIA/wD/AAUAAf/+AAIBAgD///8AAAEEAAD//wAA/v8AAAEAAP8AAQAAAgEA//7/AAAA/wAA//4A/wD/AAAAAQABAAMAAwEBAAEA/wD9AP0AAQEDAAAA/gD9/v4AAQIAAAAAAQABAAAAAQD/AP///wD/AAAAAP8AAAEB/AD+/QAAAf//AAABAAACAP8AAAH8AP//AAD//gEAAgABAAMCAwD+/f8AAQIDAAAAAQACAAQAAAH/AAECAQABAAMAAgIGAAEA/wD///8AAgEBAAACAgD+AAAAAgIBAAH/AQD/Af8AAwADAAH+/wD9AP8AAv8AAAABAAD///8A////AAD//gABAAEA+//+AP8A/wAC//wA/gECAP0A/wAAAP4AAgABAAIC/wACAP0A+/79AAQEBwD+//0AAwIHAAD/+gD/AQIA//8CAAEBAAD/AAAAAP/9AAECBAD+/gMA/wL/AAEBAwAAAAAABAD//QD9//4A/wABAAEBAAD8//4AAwEBAAH+/AD//wAAAP0AAAECAAD///wA/wABAAAAAgD///4A/AH8AAAAAAAEAQAA/v4BAAIDBAD//fwAAAAAAAEB/wD+Af4AAQADAP7//gD/AP8A/f8BAAABAQAA/vwAAAD/APz/AQD/AP8ABAAAAAP/AAD+APsA/QEAAP4B/gACAAAA////AAH/AQD9//0AAgAAAP8BAQAA/v4AAvz/AAMEAQD+/f0AAAEDAAACAQAB/wEA//8AAP4AAQAC/wAAAAACAP0A/QAAAQIA////AAEB/wD//gAAAAQEAP3+/wADAAAAAAD9AAEAAgAA//8AAQEAAAAAAAD+/wIAAAAAAP///gABAgIA/v8BAAEBAgD+/wAAAwECAP7+/QABAgMA/f7/AAMBAgD+/gAAAQL/AAABAAD///8AAP//AAAA/wAA/wAAAP8BAAICAwAAAP8AAgIHAP/+AAD+AP8AAgAAAAD//gABAP4AAP8BAP8AAAABAgIAAAAAAP//+wABAgMAAAIBAAAA/wAAAAIAAAECAP/+/gD//wAAAgECAP8B/gAAAAAA/v7+AAAAAwACAQUAAP/8AP4B/wD/AQIAAv//AP8AAQD/APwAAQADAP3//gADAAMAAgEBAAP//QAAAAEA/gEAAP///gD/AAAAAQD+AP8BAAABAP8AAQH/AP//AAD/AP8A/wD+AP4BAAD/AAIAAv/9AP7/AAABAAAAAAD/AAAA/wACAAQAAAD/AAAAAgAAAAEA//7+AP4A/wAB/wAAAQEAAP4ABAD9/vwAAwICAP/+/wABAAAAAAAAAP/9/QAAAAMAAAL/AP4AAQD/AgQAAQD/AAAA/QABBAIAAAD/AAD+/QAA/wAAAQACAAD+AAADBAIAAf8BAAIBAgAAAgIAAQEBAP//AAAD/wUAAQL+AP8BAAAA/voABAEDAPwAAAAB//0AAgABAP8A/gACAP8A/QD/AAEBBAD+/v8AAgICAAH/AAACAQIAAv4AAAD/AAD+/wIA/wACAPz//gABAQEAAQADAP8AAQABAP4A/f/2AAABBAABAP4AAQABAP///gAEAggA/f8BAP4AAAAAAgMA/f/9AAH+/QAAAAAABP/+/QD/AQEAAAADAAEAAAACAgEA/wD+AAD+/gABAAIAAAAAAP7+/gADAwAA/fz+AP8AAgADAQMAA/4BAAAE/wD//f0AAv8AAP3+/wAAAAIABAEDAP3+/wD/APsA/wADAP8B/wD+Af4A/f8BAAD8/wADAAEAAAH/AP//AgABAv8A/P8AAAEAAAACAAMAAf/+AAP+/wD9AQAA/v8BAAAA/gAC/wAAAAADAP/+/gABAAAA/gEDAP/9/gADBAEAAAH+AP//AgD+/wAAAAAAAP7//QAAAAEAAQECAAEA/wAC/f8AAAEBAP7//gABAQIA/vz+AAQEAgD+/v0AAwEBAAMAAgD+Af8A/wABAP/+/wD/AP8AAQEAAAAA/wD//wAAAwD/AP//AAD///8AAAL8AAABAwD//wMAAgD/AAD+/QABAQEAAQABAAEA/wD///8AAQECAAH/AAD/AP4AAgIAAAEB/QAA/wQA////AAD//wABAQEA//7+AAIBAgAAAAIA/wEDAP///gABAQMA///+AAICAAAAAgEA/wABAAIC/wD//gAA/wEBAAEAAQABAAEAAAABAP7+AwD/AP8AAgABAAACAQD+AP8AAAAAAP8AAAD/AP4AAgIAAP8A/wABAQAA//8BAAACAQAAAP8AAAEAAP7//QADA/8AAPwBAP4AAAACAgIAAP/9AAEBAQAAAP8A//7/AAEBAQD///4AAQEAAAH/AQD/AAEA/wD/AAICBAD//f0AAAEAAP8AAQAAAf4A///8AAICBQAA/wIAAAABAAAA/wACAf4AAf8AAP///QABAgAA//8AAP7+/wABAf8AAAACAP8AAQD///4AAgD+AAABAgD+/vsAAgEBAAAA/wD9/fwAAQEAAAD+/wAEBQUA/gH/AAICAgAD/gIAAAECAAEBBAAAAP4A/v/+AAICAwAB//0AAP8EAP8A+QAAAQMA/P7/AP4BAwAAAf4A/f7/AP//AAAB/wEA/f8AAAD//gD///8AAQEAAP4BAgD8/v4ABAABAAEA/wADAgUA/f/+AP39AAABAAAABAIEAP/+/wACAgAAAAH+AP8AAAABAQAAAP//AAABAAD+/wAABAABAP4A/AABAAAAAgEBAP7//QAAAAAABAEBAgD+//4AAAH8AP//AgADAAIA/v7+AAADAwD//wIA/v/8AAEBBAD//QAAAAL9AP///AD+AAEA/wEAAP/9/gADAAEAAAAAAAIDAwAB/gEA//4BAAIBAAD9//sAAgABAP/+AQD/AAIAAQD/AP4A/gD8AQIA///+AAACAAAC/v8AAQEBAAADAgD9//wAAAH+AP7//wADAAQA/v/+AAEB/wAAAQIA/v4BAPwA/wABAPwAAgD/AP8CAQAB//8AAv8BAAEAAQAAAAMAAAEAAAIBAgAAAP4A/v4AAAICAgAAAf8A/wACAP8BAgAA//8ABAMBAAD9/gD/AQEA/f8CAAAA/QD9Af8A/P8BAAT/AQADAgEAAP/8AAEBAAABAAEA/wAEAAD+AgAEAgIA//75AP8BAAD/Af4AAQD9AP7//QD/AQAA//7/AAEA/gABAQQA//7+AP3+/AAAAf8AAQABAP/9AQAAA/sA/gIBAAEBAwAB/wAAAQEBAP//AgD/AQAAAAEBAP4B/gD///4ABAEFAP///wAA/wAAAgEBAP7+/AD//wEAAP//AAICAAABAAMAAAD+AAAB/AACAQMAAP8CAAICBAAB//wAAAD/AP8AAwAAAAEA/wD/AAH/AAD/AAAAAAABAAD+AAACAf8AAAEBAAICBAD+/v4AAgMBAP//AAD///0AAgAAAP8B/gD+AAAAAAABAAEBAAD///8AAQEBAAIAAgAA//4A/gEBAP3//QACAv4AAQEAAP7//wD/AAAAAgEEAP3+/gACAAEAAQABAAAAAgD+AP8A/wD+AAAAAAAA/v0A/f8AAAEC/wAB/wEA/f/8AP8A/gADAgQAAAACAAAAAQACAAEAAAD/AAAAAAAGAQMA/gD/AAIEAQABAAAAAgABAAQBAwABAQEAAQIBAPz//wAFAAEAAQADAP8AAAABAgMA//7/AAEABAD//wAAAgIBAAD+/QD+AP8AAgIBAP///wABAAEA/wEDAP8B/wAAAP8AAv//AP///QAA//8A///+AAICAgD9/gAAAQH+AAMB/wD/AQAA/P79AAQBAgD/AAMAA/8FAP0BAAD+AP4AAwEDAAAAAQAAAf0A////AAEAAAAC/wEAAQEDAAIDAQAAAAAABPz9/wABAf8AAP//AP8AAAD7AP8AAwIEAP79+wABAAAAAP8BAP4CAAAAAf8AAf8BAAIAAAABAP0AAgEEAP4BAwD//v4AAAECAP7//gADAQIAAQEAAPz+/gD+/wAA/QH+AP8A/QD/AAAA//8AAAAA/QD8//4AAv8EAAH9/gD/Av8A/wADAAL++wD+/wMAAgIDAAH//gD7APsAAAEAAP//AQD+Af4A//37AP8C/wABAQEA/QD9AAH+AwD9AP8AAAAAAAMDAAAAAAAA/gEDAAD/AAAAAPsAAgADAP3+/QD+AP8AAAL/AAP+AAD/AQEA/v38AP8AAwAAAQIA/v/+AAICAgD8/vwAAP8BAAD//QD+/wAAAAD/AAEAAgD+//8AAQEBAP4B/QAA//0AAgECAAAA/QABAAAAAgIEAP3+AQAA//8AAf//AAAAAgAA/gAAAAIBAAACAQD9/wIABAADAAACAQAAAP8A/v77AAP/AQABAAIA/gD/AP8B/gAAAP8A/wACAAEABQAB//0AAAD9AP4BAAADAAAA/gD/AAABAgABAP8AAQAAAAIAAQD9APwAAQACAAEBAAD+/v4AAgIEAP/+/QD/AQAA/wH+AAQB/wD//wAA/wEAAP7/AAAA/wEA///9AAMCAgD+AAAA//4AAAADAwD//v4AAwMAAAAA/gD9AP8A/gACAAL/AgD+Af8AAf8BAAQBAwD9AP0A/P/+AAL//gAA/wIAAAABAAEA/QD+Af8AAP4AAAAAAQABAQAA/v/+AAICBQD//v0AAwEBAP4A/gACAAAA/f8AAAEA/gADAgMAAf4AAP8A/gAAAAAAAQAAAAAAAgAB/v8A/wIAAAICAQAB/wAA/wAAAAL/AQD/AQAAAwIDAAEBAAD/AAEAAgEEAP//AgABAf8AAP8CAAQDBgD+//0AAAEBAAIA/wABAQMA/wH9AAEAAwD///wA/v//AAAA/wACAgMA//7/AAIAAQD///8AAwEBAP3+/gD+AAAA/f//AP7/AAAB/wAA/wEDAPz+/QABAAAAAP79AAMBBAD9AQIAAAD9AP8C/wD//v8A/QL7AP//BAACAAEAAQAAAAABAAABAP8AAQH/AAABBAD+Af8AAP8AAP///wAAAAAABAEB/wABAQIA/v7+AAACAwABAf8A/f/8AAAB/gABAAEAAwEEAP///wD+AP0ABQEBAAP+AQABAQIA/wH/AAD/AQD//wUA/wD+AAAB/gD9AP0AAf3/AP7//QD+AgEA/f8CAP///wABAP8AAQECAAD+/wABAgMAAP8AAP8B/gD//wAAAgD/AAAAAwABAf8A/wABAP8BAwAAAP4AAQEAAP79AAD9Av0AAgIAAAH9/wAAAwEAAAECAPz9/QD/AwIAAAEDAP7//QAEAgAA/v/9AAP/BAACAAMAAgH/APoBAAACAQUAAQD7AP0AAwAAAAEAAQAAAAABAAAAAAAA//8AAP7+/gAD/wEA///+AAEA/QD+/wAAAgEBAP/9/gD/AgEA/wAAAAAA/wAAAQMA/wAAAAEAAAAA//8A/v7/AP4AAgAAAwEA/v76AAQAAAD+AAAA/v8AAAD/AQADAAEAAf8AAP8AAQABAAIABv/9AP///wD+//4AAwIEAP7+AAD/Af0AAQEAAP79/gACAQAAAQAAAP8AAQD+//8AAQADAAEAAQD+/v4AAwEAAP8A/wACAQMA//8AAP79AAACAgIA///+AAAB/wAA//0AAQEBAAD/AQD//wEA///+AAAB/wD//wAAAAEBAP4B/wABAAAAAQAAAP7//wD/Af8A/f//AAIBAQABAAIAAAD+AP8AAAAA/gAAAQH+APz9+wAAAf8AAf8AAP8BAAABAP4AAQD/AP/+AAD/AQEAAAAAAAEBAQAAAP8AAAEAAAD//gAAAgEA+wD/AAIAAAD//wAAAwEBAAICBAD9/v4AAAH+AAP/AgD9//4AAgIDAP79/gABAQEAAAEAAP/+/wABAAEAAQACAAIDAgD+AAAAAAACAAAAAgACAgMAAQECAAEBAgABAAEAAQEDAP79/gABAwMA/gD/AAEAAwAA/gEAAQACAAAAAQACAQAAAAECAP/+AgD///0AAwABAP7//wD/AQIA/QD8AAABAAAAAQAA/v8AAAMBAwD+//4A/wD+AP8A/wABAQIAAwECAP3+/gAAAAIAAgMFAAEA+wD/AQEAAAECAAIC/QAB/wcA/wH/AAEBAQAAAAAA/QD+AAIB/QAA//4AAAACAAH+/wAAAAAABAD/AAAA/wIAAQEAAAIA/wAA/v0AAgQEAP7+/wABAAEAAQD/AAQBAgD+//0AAgEAAAABAgD9//8AAwABAAEBAAD/AgEAA/7/AP3//gD9AAIAAwACAP0A/wD9/v0A/wD8AAEAAAABAP4A//8BAP8AAgAB/gAAAgH/AP4AAAAAAQIA/wAAAP7/AAAB//4AAQEAAP8BAwD/AAAAAP8BAP//AAD//gAA/gEBAAIAAAAB/v8A/QEAAAEBAQD//wEA/P/8AAQDAwD+/f0AAAMCAP8AAAAAAQAA/f4AAAACAgD+AfwAAwACAP7/AAAB/wEAAAACAP4AAgD9//8ABAECAP///QACAQMA/f/9AAABAgACAAMAAP//AAIDAQD+/QEAAAL/AAABAgAA/wEA/gAAAAIBAgD///4A/wAAAAEA/gD//v4AAf8CAP0A/wD+AAAA/wAAAAL/AQABAgEA//7+AAEB/wAAAAAA/wEDAP8BAAAC/wAA/v/8AP8A/wD+AAAAAgD/AAEAAAD/AP8A/v/+AAD/AQAAAQAAAP8BAAABAQAAAQIA/f8BAAEA/wAB/v8AAQEBAAAB/gD+/gEAAQEBAAEA/gABAgMAAP8BAP8BAAD/AP4AAf7+AP8AAAABAQAAAAD/AP7+/wABAgQAAgD/AAD//gAAAQIA////AP//AAD/AAAA/wABAAL//gAAAAAA/wAAAAEB/wD/AAAAAgABAP3/AD2yU2AAACAASURBVAAB//8A/v//AAABAQD+//4AAgEAAAEA/gD9/wIAAQECAP7//AAC/wIAAgEBAAMBAgD7//0AAAECAP//AQD+AAEAAQABAP4B/wACAgIAAf7+AAECAQACAAEA/QD/AAMBAQAAAQIA/gADAP4CAAAD/wIA/wIAAP4BAgADAgMAAAAAAAIBAQAAAAEAAQH/AAQBAwD9AP8ABAAAAAH/AgD/Af4AAQADAP//AgAAAAAA/gD9AP8BAgABAP8A/v//AAEBBAABAgIAAP7+AAEA/QAC/wEAAAADAP7//wAAAQEAAf//AAABAQACAAAA/wACAP8CAgABAQIAAP78AAABAgACAgMA//8AAAIBAgAA//0AAAECAP/+AQACA/4AAv8BAAAA/gACAQAA/P8AAAACAgAAAAAAAgEAAgAA//wA/wD9AP8B/QADAgEAAP8AAAL/AQACAAIA///8AP4A/QADAgUAAQECAP4AAQAAAAMA/wABAAIAAgAD/gAAAAECAAABAgD9//8A+wAAAP4AAQAAAAEAAf/+AAUA/wAAAAEAAQD/AAICBAADAQMAAf4AAAH/AwD//wAA/wH/AP8B/wAAAAMAAwACAAD9/AD/AP0A/v/9AAEB/wAA/v8A///9AP4BAgD9AP8A/v7+AP7+/QAA//8AAv4DAAL9AAACAAEA//8BAP4A/wD8//0A/gIBAAIAAwAB/gEA///+AP/9/wAAAAAA/QAAAP//AAAD/gAA////AAEBAQD//vwAAAAAAP8AAgAA/wAAAQABAP3/AQADAgMAAgEBAAIA/wAAAP4AAQABAPz+/wD+AAQAAAABAAH/AQAB/gIAAf8FAAH/AQAEAAMAA/4BAAIAAgD+/v8A/gH/APsA/gD8AP4A/gEAAAAAAwAAAAMAAAAAAAEBAQAC/wIAAP7/AAH/AAAA/gEA/wAAAAEBAgAAAAEAAP/9AP8B/gAB//4AAAD/AAEAAQD/AP4A/v/9AP/+AAD//wIAAQH/AP7//gD//v8A//7/AP3//gABAAIAAgECAP7+/QD8/vwAAP//AAH+/wABAP8A//4AAP///QD+/vsAAf4AAAEAAwAAAP4AAP8BAAEBAgAAAP8AAP8BAP8A/wAA/wEA/v8AAAD//wD/AP0A/wD+AP8A/gAB//wA/wD6AP3//wAAAf8AAP//AAMAAAABAgAAAv/9AP/++wACAAEAAAD+AP8A/QAFAQIA/gH/AAAA/gAAAAAAAQAAAAL/AQAA/wAAAgECAP4AAQAAAgEAAAEBAAIBBQAAAQIAAwEEAAQABAAA/wEAAgEEAP8AAQACAgIAAf4AAAH//gACAAEAAQEDAAEAAwACAAIAAv8AAAIAAAABAQIAAv8CAAIAAQAC/wAAAAL/AP4AAwACAQEAAQACAAECAwAAAQEAAQEDAAMCAgAAAAAAAAABAAIAAgD/AQEA/QABAAIBAAABAAAAAQAEAAIBAgD///wAAgECAAL/AwADAgEAAQACAAMCAwADAAIABAIDAAQAAQD/AAMAAQABAAD/AQAAAAAABP7+/AABAQAAAQECAAL+AAAAAAEA/wH/AAIBAgD/AAEA/gECAAP//wAAAAEA//7/AAMDAwD9AP4A/v8CAAD+AQABAgAA//8AAP7+AAAGAQQA/v7+AAH/AAD8//8AAAACAP7/AQD/Af0A/wADAAD//AABAAMAAgACAAIBAAAAAP4AAP3+AAIA/gD+AQAA/AADAAACAgACAgIAAf0AAP/+AAABAgMAAAD9AP//AAAAAAAAAgECAAEAAwAA/gAA/wIBAPwA/wAAAAAAAf8BAAQCAwAB/gAA/f//AP3//QADAgIA/wAAAP//AQD///wAAAECAP7//wAEAAAA/f8AAAD+AQACAAEAAQACAP8BAQAAAQEAAgEBAAEBAAD//wAAAQADAP8AAgAAAAAA//7/AAICAQD+//8A/wAAAAH+AgAAAP8AAAMBAAH/AgD+/v4AAAEDAP7/AAD/AP4AAP/9AAEBAQAA//8A//7+AAAAAAABAQEA/gAAAP///wAAAQEAAf8AAAICAAD+/v8AAQACAAAAAQD+/v0AAwIDAP//AAD//wAAAAD/AAABAgAAAAEA/wH9AAEAAQAAAAAA/f7+AAIBAQD//wEAAAIAAP7+/QAAAv4A/P79AAEBAQAC/wEA+/78AAICAwAC/f4AAgEEAP///wABAgAAAP/8AP3+/gABAAAAAQH+AP//AAD//vwA/QEDAAMBAwAAAP4A/wD/AP4AAgACAAIA/gD+AP8A/QAAAP4AAv8EAAAAAgD/AAEAAAABAAD/AAD///8A/gEBAP//AAACAQEAAAAAAP7//wD/AP4ABAAAAAICAAD+/QAA/gMAAP//AQAEAQMA/v8BAAEC/wAAAAAAAwIBAAIAAQAAAgEAAQEAAAIBAQAAAQIAAAEDAAEA/wABAP8AAgABAAAAAQAAAAAAAP/9AP///wD+Af8AAgQCAP/+/AAB/wIAAAECAAEA/QABAAEA/v8AAAAAAAD//vwAAgIEAP7+AAAB//4AAAD9AP///wACAQAAAQECAP7+/gD+AAIAAAACAAEAAgABAgIAAwD+AP4AAAADAgQAAAABAP8A/wAAAAIAAAEBAAABAAD/AQQA/v79AAEBAAD9AP0AAgEBAAD/AQAAAAAABAABAAABAQEA/vz+AAECBAD9Av8AAv//AAEBAQD8//wABAEEAAEBAAD/AAAAAQACAP7+/gABAQAAAv8CAP4CAAD+AQAAAPz/AAIBAgD7/v0AAwEBAP//AAD+/wAAAgEBAP4AAAACAQQA/v4BAAEAAAACAgIAAAIAAP/+/gABAAAAAQABAP8AAAABAAEAAgIAAP7+AAAA/AMAAP/+AP8A/QD//wEA/v//AAIAAgAB/wMA/wD/AP8DAgAA/P8AAQIBAP8BAgD7AAAAAgABAP7+/AADAAAA/wABAAECAwAC//8A/v8BAP8CAgAAAP8AAQABAAAAAgD+AP8AAgEBAP7//wAA/wAAAQD/AP/+/wAAAgIA/v8BAP8AAQD/AAEAAP8BAAAA/wD+AP4AAgICAP7+/AACAgIA/v//AAABAAABAQAA/QD7AAD/AQD+AQAAAgD/AP7+AAD/AgEAAgADAP3+/gACAQAAAwACAP7+AAD+AP8AAgICAP7//gD+//4AAAEAAP7+/wAAAQAA/v7/AAIA/gABAAEA/v4BAAIBAwD+AgEAAgD/AP3/+gABAAMA//7/AAABAgD+//sAAgECAP8A/wD/Af4A//7/AAEBAgD9/v8AAAL/AP/+AAABAP8AAAH/AP///gAAAQMA/v/9AAAA/wD//gEAAAEAAAAA/wAA/wIAAAD/AP///wD+AP8AAQABAP7+/QABAP8A/v//AAEBAAD+//4AAgECAP///wAAAQMAAP4CAAEB/AD/AAMAAgICAP/+/gAAAAIA/wABAAIDAwD+/gEAAAAAAAEBAQACAP4AAP8BAPz+AAABAgAA/gAAAAEBAgABAAIAAgL/AAAA/wD//wAAAgL+AAIA/QABAAMAAQICAP//AgACAgEAAAEBAP7//wD/AQIA/gD/AAABAQABAAIAAgABAAABAgAAAP8A//7/AAAAAQABAQIAAQD/AAD//gD+AAEAAQEBAP///QABAf4A//8AAAEBAAD///4AAgH/AAEA/wD9AAIA/v/+AP8BAAAAAP0AAwECAAABAAAAAQEA/wAEAAEB/wD+AAIA/wAAAAIB/QAAAPwAAgEDAAAA/wAA/wEA/gIDAAIBAQAC/vwAAAEDAAECAQAAAAAABAEAAQD//wAAAwICAP8A/gAAAgAAAv4CAAD+/gACAP8AAf//AP8B/wABAQEA/gAAAAH/AQACAAEAAAD/AAIAAQD+/QAA/wABAAP/AAD+AAIA/vz8AAEAAQAGAgUA/f7+AAABAQAA/gAAAwECAAMAAAAAAQEA/AD+AAD/AAABAgEAAQABAAEBAAD8//8AAv3+AAQBAgD9//0AAAEAAAAAAgAA//8AAgICAAH/AQABAAMAAQAAAP3+/gABAQIAAP8AAP/+/gAEAwUAAv8AAP8BAAD9AP8AAwABAAH/AAD+//8A/gD/AP//AAD9/gAAAAECAAEB/wD+AAEAAv3/AP8B/wD9AP8ABQMEAAEAAgD+/wAA/gD+AP8ABAD//wAAAwP/AP/+/wABAgAA/v//AAIBAgD+/v0AAQIBAP//AQAA/wAA///+AP8AAQD//wIAAAD+AP8A+wD+/wEA//8AAAEB/wAC/wEA/v//AAAAAwABAQEAAAD/AAAC/QAA//4AAf8CAAEBAQAAAP8AAQEBAP8A/wABAgIA/v7/AAEB/gD8AP0AAAEDAAD+AQABAAEAAP4CAPwA+wACAgAA/v7+AAAAAAACAwEA/wAAAP/+/gAEAwQA/v79AP8A/QAAAAMAAf8DAAEBAQD+/v4AAAH/AAEB/wAA/wMAAgECAP4B/gAAAP8AAP//AAEA/wACAAIA/v3/AAECAQD+/v8AAAEBAAMBAAD+AP8AAgAAAP8AAAD+/v8AAgICAP3//wACAf4A/v8AAAAB/wADAAAA/f8AAP7+/gACAAEAAAAAAP4BAQD/AAIAAAEAAAH/AAAAAf8AAf8CAAMAAgAB/wEAAQD/AAABAwABAAAAAQEDAAEAAQD/AAAAAgEAAP8BAAAAAgEAAQD/AAQAAQAA/wEA/gAAAAAAAAAA//8A/gH/AAEB/wACAQEA////AP8BAQAA//8AAf8BAP7+AgAAAf8AAgABAP8A/wAAAQAAAgAAAPz+AQAAAQIA//4AAAEB/wAA/v0AAAAEAAEBAAABAP8AAQECAAIBAQD+AP4A/wEHAAAA/QAAAf4AAQAAAAIBAgABAP4AAQEBAAEABAAC//8A/gABAP7//QD/Af8AAf/+AAEAAwAAAAAABP/9/QD/AgAAAQEBAAAAAQAC+/4A/wEFAP8AAQABAAIA/wEAAAIAAAD///sAAgECAP8BAAD+/gEAAgIDAP3+/gD/AAEAAAEAAP7//gD///8A/wIAAAAA/wAA/wAAAgICAP8AAAAAAP8AAAH/AP0AAgD+//4A/gD/AAMDAgD9/v4AAQAAAAD+AAD/Af8A/gAAAAD//AACAgAA/v8AAAMCBAACAQEAAAD+AP0A/QAAAQAAAAD/AAD//wAEAwIAAP8BAAEAAQD//v0AAAEAAAMBBAD9AAAA/gAAAAAA/AD/AP8AAAACAAQBAQABAQAA//7/AAAC/wD+/wAAAQECAP//AAAEAQIA/v8AAAAAAQACAAIAAQD8AP7//wACAQIAAv8AAP8AAAD+/P0AAAIBAP//AAACAgIA/P79AAEAAgD///4AAgACAAAA/gD8//wA/wEDAAD/AgAC//0AAgACAP//AAD8/v0AAwIBAAMCAwD+Af8AAP78AP///gABAf8AAAAAAP///wD/APwAAgECAP8AAwABAAEAAQD9AP7//wACAAMA//3+AAEDAgD9/fsAAQECAAL/AgAA/v4AAQAEAAAB/wD9/fsAAQICAP8B/wD7/fkAAAH+AAAB/wAA//4AAgECAP///wACAQMAAAABAP8AAgAA//4A////AAD/AAD+/v4AAQIBAAAA/wD/AAAAAQEAAAD//gAAAv8AAgACAP79/gAEAgMA/P/+AP7/AAABAQQA/f7+AAABAQD/AAAAAQABAP4AAAD+AP4AAQAEAAIBAQAC/wAA/wEAAAAA/wAA//8AAQABAAEAAgD+//8AAgECAAD//QD/AwAAAgACAAEAAQABAAEAAf8AAAAB/wABAgMA//8DAAICAgAA/wEAAAAAAAH/AQAAAQEAAgACAP8BAAD+AAAAAAEAAP/+/wACAgAAAQEBAP7//wACAQAAAAD9AAECAAD7/gAAAP8AAAAB/gD+/wAA///+AAEA/wAAAP8A/gH/APz+AQABAQMAAP7+AAIBAQD/AQEAAAEBAP4AAQACAQQAAAD6AAABAgD/AAEAAQH/AAAAAQACAgYAAf8BAP0A/QABAQEAAwD/AAAAAQD9AAAA/wEAAAAAAQAAAAAABAABAwD/AAAA/wACAAH//QABAAIA/wD+AP0BAQAEAAEAAQAAAAD/AQD/AAIA/wIDAAD//gABAgAA/f/8AAECAwAA/v8AAQECAP8A/wABAAEA/gD+AAAA/gAA/wAAAP8CAP8CAQAB/wAAAwEAAAD//wABAAAABQEDAAD8/wD/AQAAAQECAAMB/wD+Af8AAAACAAEAAQD9/v8AAQICAAACAgAA/v4AAwADAAAAAAD+AAAA/QD+AAACAgD8/v8AAQD/AAEA/wAA/wQA/wEAAPz//QACAQIA/wH/AAD/AAACAQQAAAD+AP7++wACAAUA/wD/AP/+/wABAQEAAv//AAH/AAAA/wEAAwMCAP8B/wABAQAAAP4BAAEBAAAA/wEAAAECAAAA/wABAv8AAQD/AP8A/wD+/wAAAQEDAP7+/wAAAP8A//7/AAL/AAABAgEA/v78AAD/AgACAgYA+/z7AAEBAgABAQAA/v78AP///wD/AgEAAf8BAAD/AgACAgIA/v4AAAEB/wAAAAIA/wD+AP7+AAABAAIA/wEBAAH/AwACAQMAAAH+AP39/AACAQAAAAABAP3+/QABAgIAAAD+AAEA/gD+/gAAAgD+AAAAAgABAgEA//4CAAAC/wACAAIA//8AAAIBAgD9/v8AAgH+AAEBBQAAAQEAAP//AAEBAQD9AP4AAwACAAD//wACAQIAAQEAAP7+/gD/AQEA//7/AAIBAQD8/v4AAAAAAAAA/wD//wAAAQABAP7/AgAB//8A///+AAAAAgD+/wAAAgEAAAH//gD9//8AAQICAAD/AAAA/wEAAAD/AAAAAQACAQMA/wH/AAICAgD+AP4A/wAAAP//AgACAgEABP//AAMBAgD//wIAAQECAAABAAABAQIA//4BAP8BAAD/Av8AAP7/AAEBAQAA/gAA/wD/AAIBAAAB//4A/wAAAAH+AAD/AQAAA/8AAPz+/AACAgMA///+AAD9AAABAP8A+wD+AP8B/wAD/wAABAAAAPsB/QD+/wIAAgMDAP/+/QABAQAAAQICAP79/gABAv4AAwAFAP0A/wAAAAEAAf/9AAACAQD9/gAAAwH/AAAA/wABAAIA/v/7AAABAwD/AQQA///9AP8A+wAAAAAABP8AAAAAAAAAAf//AP7+/wD/AgIA/wD+AAH+BAAAAgEAAP/+AP4B/wD+/wUAAP4AAAIBAQABAP4AAf8AAP//AAADAAEA/v39AP7/+wAAAQMAAwACAP7+/gAAAQIAAQACAAEAAAABAgIAAP7+AAICAQD9AP8A/v7+AAMBAAABAQAAAQIAAAH9AAD//gEAAgMBAAAA/wD/AP0AAgECAAD//wACAgIA//3/AAP/AQADAgIA/v3/AP8BAAABAP8AAP8BAAECAgAAAQAA//7+AAEDAQAAAP4AAP4BAAACAgD+//4AAgECAAICAgD+/gEAAf//AAQCAwAAAAAAAP//AP8B/wACAAEAAQECAAEAAQAAAAAAAgEEAAAB/wAAAAEA//4AAAACAgABAAEAAAABAAD/AQD+AAAA/wD9AAIB/wD//gAA/QMBAP79/gAA/gMAAwACAP7/+wD8/f4AAQECAAIA/wD//gEAAgEDAP//AAAA/wQAAgICAAD//QD///0AAgIBAP7+AAAAAAMA//8AAAIBAwD//wAAAAABAP8BAAD8/fsAAgAAAP8B/wAAAAAA//79AAIBAQD+/v8AAAD8AP8B/AD//wIAAP8BAP/+/wABAAAA+wD+AAX+AgD+//0AAQADAP4C/QAAAv8AAAADAAL//gABAP8A/v4CAAACAAAC/wAA//38AAADAwD//wAAAP7+AAEBAQAA/f4A/gECAP///wAAAf4AAf8CAAEAAgACAgEA/f76AAABAgD//gIAAgEAAP8AAQACAgAAAP8AAP7/AgD//wIAAv8AAAH/+wAEAwEA/f4CAAEA/gAA/wEA/wAAAAAAAgAAAv8AAQD/AP4AAAD/AAEAAAABAP4BAwAAAAAAAAIBAP8AAAADAAEAAAEAAAAC/wAC/gEAAf8AAP7/AQACAAAA//8BAAEB/wD//wAAAQIDAAAA/wD/AQAAAP7+AP4CAAD///kAAgECAP8AAQD+//8AAwEBAPz//gAAAAEA/wEAAAEBAwAA/P4A/wD7AP8CAgABAAAAAQABAAQDBQACAf8A/f4BAAABAAAA/wAAAwIGAP/+/QAAAgAA/wABAAABAQD/AP0A/wIAAP//AQD//gMAAQECAP8A/QAAAAAAAgUBAgAEAQEA////AAACAwD9AP8AAgADAAUCAQD//gAAAP8AAAL/AgABAv8AAP/+AAP/AQAB/gMAAgEBAAL//wD+//0AAQL/AAEAAgADAAEAAAAAAAIDBQACAwEAAgIAAP8AAAAA/gAAAAAAAPz+/AAA//wAAAH9AAICAAACAQAAAf//AAECAAACBAEA/f/+AAACAAAEAQIAAv7/AAD//wAB/wAAAgD/AAABAgD+/f0ABQECAAL//wD+//4AAQD+AP3++wD/Af4A/f//AP7/AQD//gEA/f8AAP4A/wAAAv8AAf//AAH9/wD/AfwA/wMBAP7++gAA/v8A/QD9AAABAAACAgIA///+AAAAAQAA/wAA//8BAAEAAgABAQIAAQICAAH//gACAAAAAAABAAECAQADAAIABAAEAAH/AAAA/wAAA/7/AAH//wACAP0A/v77AAAC/wAA//wAAf79AP79/QAA//4AAAAAAAEBAgAB//0A///5AAAA/gAAAAAA/v/9AAEBAAD///8AAAEBAP7+/gD+//8AAAAAAP8A/gABAf8AAQAAAAIAAAD+AP4A/P79AP//AAAAAPwA///9AP7+/wD+/v4A/P3+AP8B/wD+/v4AAf79AAD/AAAAAAEAAQL/AAIAAgAC/QQAAP7/AP7+/AD+/wEA/gH/APz+/QD+AP4AAAIBAP/+/QAB/wEA/wD/AAEAAQACAAIABAD/AAEAAwD//wEA/f8AAP///AD+/fsAAAECAAEBAAAAAQEA/wEAAAIAAgAA/gAAAQD+AAD//wACAgMA/v//AAAAAgD+/wQA/wABAP4BAAACAwEAAgIFAP8BAAD/AAEA/v8GAAIBAQABAP8A/wD/AP//AAD/Av8A/gD+AAEAAgD/AP8AAAH+AAAAAQD/AP4A/gECAP//AAD/AP8AAAD/AP7//gD/AQAA//79AP4A/gD+//4A/QIBAAD/AAD/AAIA/v/9AP7//QD+AgEA/wD+AAIAAQACAf0AAAAAAAD//wAAA/4A/wEBAAAB/wAAAf8AAQAAAAAAAQD+AAEA/wD/AAABAgAEAQAAAAH9AAMCAQABAQIA/wH+AAD/AQD+/wEAAP8BAP7/AQACAf4AAQD9AP7//gAAAAAABP7//gD+AP8A/wEAAAIAAAAFAAEAAf4AAAECAQAAAP8AAAACAP4AAAAA/v0AAgEDAP8AAQD/AP8AAQD+AAAAAgABAAIA/f/+AP4AAwAAAAEAAAH9AAD/AAACAAAA//4AAAAA/wD+AP4A/v7+AAEB/gACAgEAAgEBAP//AAAFAQQA//7+AAEBAAAAAAEAAAEAAAH/AAAAAP4AAwIDAAMCAQD//v8A/gABAP3/AAD/AgMA//78AAEBAgD+//oA/gECAAEAAgD8/fsAAgIDAP0A/QAA/wIAAgIDAAD/AQACAQAAAQEAAP8BAAABAAIA//79AAABAQD//v8AAgMAAAICBAD/AAEAAwAGAAAAAAABAf8A/wECAP8CAQAD/wIA////AP8CAQAAAAIAAgACAP79/wABAQAA/v/+AAACAwAA/v8AAP7+AAH/AAD///4AAAACAPz8/AABAgAAAQAAAAAAAQAAAQAA/v4BAAMD/gD/Af0AAQAEAAAAAgABAAAA///+AP8B/wABAQMAAAD9AAACAAD+/v4A//7/AAAA/gACAAIAAQADAP39AAAAAgMAAAD8AP7/AAD+/v8AAQEAAAAAAQABAgAA//7+AAAABAD//wEABAECAAAAAQD//wAA/v3/AAAA/QAAAAAAAQEBAAAAAAAA/vsAAgMFAAAA/gAAAAIA+/wAAAMCAwD/AP4AAP8AAP3+/QABAwMA/f4AAP8C/wD+/gEAAgEAAP7//wABAAIAAv8DAAH/AAD+Af8A//8AAP8A/gADAAMAAP/+AAABAQAAAf8AAQD+AP//AQAAAQIAAQADAAAA/QABAAAAAv//AP0BAQAAAAEAAgAAAAEAAwD9Af4AAQEBAAYB/wD+//8AAAEAAAD/AQD/AAEAAQICAP3/AgACAQEAAQAAAP///gD/Af4AAQABAAIAAgAB/wAA/wEBAAEAAAD9//kAAQABAAAA/QAA//4AAQABAAAC/wD+//sAAf8AAAAAAwD/AAMA/f//AAIBAwD9/v0AAQABAAIBBAAAAf0AAQEAAAD/AwD///8AAQL8AAEA/gD+AgAAAgAAAAD/AgD/AQEAAQADAAEBAQD///4A/Pz/AAEDAAD9/v4AAAAAAAAAAgAAAAAABPwB/wABAgAAAP8AAAIAAgABAAAAAQH/AP3//wABAQEAAgAAAAABAAAAAAIAAAABAAAAAAABAAAA//8BAAEAAgD///8A////AAL+AAD+Af8AAf8AAAMAAgD///8A/wABAP7//QACAQEAAQAAAAIBBAABAAEAAv//AAEBAQD///8AAQICAAD/AAD/AAAAAAEBAAABAAABAQEA/v//AAD/AQADAgMA/v37AAEBAwD+//wAAQAAAP/9/AABAf8A/AD9AAMC/gADAAMAAQH/AAECAQABAAEAAAD/AAEB/wD9//4A/wACAAD+/gABAQQAAf8AAP8BBAADsxwB3QAAIABJREFUAQEAAf8CAAEAAgABAAEAAQEBAAAAAAAAAAIAAwIDAAIBAQD+//4AAQEBAAEBAQD/AAMA/v8BAAED/wD8/fsAAgEAAAD//gD/Af8AAgECAPz7/gD//wEA/P//AAECAAACAAAAAAAAAAAA/gAAAAEAAAIBAP7/AQACAQYA/v78AAAA/wABAAAAAQACAP/+/wACAAAA/gACAAD/AgAC//wAAAABAAAABAABAAAA///+AAEAAQD9/v0AAQAAAAD9+wAE/wEAAAIBAP3/AAD//v4AAQIDAP78+wABAgIA/gAEAAH+/wD+//4AAgEDAAAA/wD///0AAQIBAAEAAAABAQMA/v38AAEBAgD+//8AAQIEAAD+AgD/APsA/wABAAIB/wD+/fwAAQEBAAD+AAAB//8A/v/+AAICBQAD/wAA/wAAAP7//QAB/wEA/wEAAAEBAQD+AQAAAQD/AAEBAQABAQEA/wACAAIBAgABAP8AAQD/AP8A/wD/AQAAAQH/AAL/AQD9/wAAAAH+AAH/AgAC//8AAwQDAP3+AQAAAAAA/wAAAAEB/wACAAEA//7+AP7/AQAAAf8AAgAAAAEBAQD+AP4A/wADAAIAAAD/AP4A/f7+AAEBAgABAAEA//8AAAEAAQAB/wEA/gEAAAAAAwD/AP4A/wD/AAEAAAD/AAEAAAD/AP8BAQABAQQAAQACAP7/+wABAf8A/gAAAAEA/AAAAv8AAAAEAP/+AAABAf4A/f8CAAABAgAAAP0AAAADAAAA/gD/AAAAAQP+AAD//wD+/wAAAAABAAAAAQAAAAAABAUBAQD+/v0AAgEBAAMAAAD/AAEAAAECAAEAAAAAAAAAAAABAAEAAAD9//8AAQEBAP8A/QAB/wAAAQAEAP7/AAD///0AAAAAAAECAAAC//4AAgICAP7//wD/AAAA/v/+AAEBAAAAAP8ABAMCAP3/+gABAAYAAAACAAAAAAACAQEAAgEDAAACAgAA//8AAgH/AAIBAQD8/v0AAAEBAAAAAQD7/v0A/wD/AP3//QD9//4AAv//AP8B/wABAAIABAAAAAAAAwAC/wMAAv8AAAH+AAD/AP8AAwIEAP4A/QABAAAAAP/9AAAAAgD//gEAAQH+AP8B+wD/AAIAAgAFAAMBBQABAQMAAAD+AAEAAgABAQIAAQAAAAH//wAEAQIA/f/+AAEBAgAB//8AAQEBAP/+AQAFAgYA/f/+AP8BAQABAAAA/f39AP8BAAD///4AAwIAAAAAAQAB/gEA/gABAAAAAgAAAP4AAgABAAEBAgD//gAAAQECAP4BAAD/AAAAAgACAP///gD9//4A//7+AP//AAABAgEAAv8BAP4B/wD+AAUAAv/7AP///gAC//4ABAIDAAf9/gAkAQcACvcPANIC6wD0BQEAAgACAAAA/wD+AAIA//7/AAAB/wAA//4AAAMCAP/+AAD///8AAQACAP4AAAACAf8A/wH/AAD+/wACAQMA//z9AAIEAAD+AP8AAAAAAP3+AQABAQEAAf/9AAH+AgAAAQIA/wH/AP/9/QAAAAEA/gIBAAMAAgD/AQAAAQAEAAD//wD/AQAAAwEDAAAA/gD///8A/wABAAIBAAABAQIAAAAAAAEBBAAAAP8A/wD8AP8AAAABAQMA/AD/AAIB/QACAAAA/P/+AAMBBQABAf0AAv8CAP4AAAD+/v4AAQIDAAH//AD/AQAA/gABAAAAAQD/AAEAAgEAAP/9/wABAQIAAQD9AAAA/gD//v8AAQL9AAD+AAD/AP0A//4CAP///AAAAQEAAQD+AAIBAAD//wAAAgL/AP8A+wABAgMA/v3+AP8BAQAC/wQAAQH/AAIBAAD/AAIAAP7/AAEBAgD//wIA/wD8AAABAgAB/gEAAgIAAP4AAAD+/v8AAQICAP7//AAAAP8A//8BAAEAAgAAAAAABP8AAgADAf4AAAEBAPz//AAEAgMAAv8CAP8AAQACAQAA////AAAAAQAAAQEA/wEAAP8BAQAE/wAAAwABAP3//gAAAgIAAQAAAP/9/gABAgIA//7/AAABAgD+/v8AAgABAAD+AgADAwIA/v/9AAQDBQAB/wAAAQIBAAIBAgADAAEA//8AAAEBAQADAQQA/wD8AAAA/gAEAgUA/v78AAIA/gD+//4A/gACAAIA/wAA/wEA/wD9AP4A/wAB/gEAAQIAAAD//QABAAMAAAACAP8A/wAAAgAA/v/8AP8AAQAAAAIABP8BAPz//gD/Af0AAP/9AAH+AwAAAwEAAgIBAAAA/QACAAQAAAEAAAEBAQABAQIAAgABAP8A/wAA/wEAAwECAP7//QACAQIA/P7+AAACAwD9/v0A/wEBAAD+AgAB/wIAAP//AP//AAAAAAAAAAAAAP//AQD+AP8A/gEAAAAAAQACAQMA/f/9AAH//gACAQEAAP8AAAD/AAAAAAMA/wH/AAH/AAABAAQA/gH8AP8AAAD//wEA/f8BAAIA/AAC/gIAAgIAAB78BAAZ/REA//78ADr+GgAX+gQACu/2AP4I+gDUDvUA/AX4APwCBAD+/PoAAQIFAAD//wD8AgMABAD/AAAA/wD/AAIA/f78AAAABAD+AP8AAAH+AAEAAQAAAQEAAgIDAP7+/QD//wAAAQAAAAEBAQAA//4A/v/+AAIBAQACAQIAAQACAAD+/wAAAwMAAAECAAD/AAAAAP4A/wD+AAIAAgACAQIA///7AAECBQABAAAAAwEFAAMA/wD+AP8A/QH+AAAAAAAA//4AAgABAAICAQD9//sAAwEDAP//AAD+AQEAAP8AAP8A+wACAAAAAgD/AP3+AAAEAwcA/wD+AAIDAAD7/v8AAgH/AAD+AwD/AP8A/QD7AAMAAgABAAIAAQABAP///wABAgIA/f7+AAEAAAD9AP8AAQABAP8A/wABAAIAAQEEAAAA/wAAAQEA/v//AAEB/wD+AP8AAQIAAAIABAACAQQA/f/9AAEBBQD+/v0AAQEAAP8AAAD/AAEAAQECAP3/AAABAf8AAf/+AP3//wD/AAAA/v79AP4BAAAC/v8AAP/+AP4B/gAAAAAABAH/AQACAgQA//8AAAABAAAA/wIAAwIDAP///wD/AP0AAQECAAAAAQAEAQAAAAACAP7//wD/AP8A/gD+AAMBAAAA/v8A/AD+AAACAAACAAAA/wEBAAABAQAAAv8AAgABAP8AAQD+AP8AAQIBAAQBBgAAAf8AAQEBAAECAwAA/wAAAgEAAAAB/wD+Af4A//8AAAEAAQAAAP0AAgEAAAH/AAACAQEA/v7+AAD//gABAAAA/wD/AP4A/wAFAwQAAAD9AAAC/wAA//0AAAD/AP//AgAC/wEAAv/+AP//AAD8Af4A/AIEAP7+AAACAf4AAgEAAAMAAwACAAcAAwIFAAICAwAB/wIAAQEBAAIBBAABAQIAAQH/APz+/wAAAgAAAf7/AAEAAAAAAAAAAQIEAP///wABAAAAAf//AP8B/QD/A/4A+vz7AAAA/wAAAP8AAQD/AAAAAQAEAQEA/gD+AAABAAD+//oAAP8EAAAABAD/AAAAAAABAAEAAAADAwIA/v/+AP//AAABAQEAAQABAAEAAAABAAAAAgD8AAT/AwAU/QUAJvYBADLvGAAXBxkACAH2APbz+AAB7egA/+7pAFESDwAq+wsAI/EBAMMF8ADU/wMA+g4FAOf1+QADFQ8AAQ75AAEABQD9APwA/QD8AAIB/gABAQIA/wACAAIBBAD+/v4A///+AAEBAAACAQAAAgH/AAD//wD+AP8AAAAAAAABAAD+//4AAQL9AAECAwD9AQAA//79AP8AAgAAAAAAAwMDAAH+AAD//f4AAgMBAAAAAgABAP0A/wD8AP4BBQD///8AAgD9AP8AAgD///4AAAMCAPz9/gACAgUAAP4DAP7//gABAf4AAAH/AP8A/wD/AAIA+wD9AAAA/wD//wIAAgADAP3+/gABAgEA/v79AAICAAAD/wIA/QEAAP7/AAAA/v8A/wEAAAAAAAAA/wAAAQEDAP7//QACAQIAAP//AP7/AAACAAMA/wEBAP8A+wAA//4AAgEBAP3//wD///8AAQD/AAECAwD+/v0A/gECAP7+/AADAgQA/f78AAAB/QD/AP8AAf/+AAEAAQAAAgIA/f/+AP///wD///8A/v/9AP8BAAD/AP4A/v/+AAAAAgAAAAAABAMDAgAB/v8ABAIDAAMA/wABAQAA////AAECAAAA/wAA////AAIAAQABAQIAAAABAAMAAQD/AP8AAQAAAAAAAAAAAAIAAwEBAP7/AAAAAP8AAAAAAAL//wACAgAAAP//AP4B/wAEAgQAAQABAAEBAwAAAP0AAQEBAAIBAgAA/wAAAQH/AAABAAAC/vwAAQIDAP//AAD+AAEA/wH+AP4A/wD//v4AAgH/AAEA/wD/AAAA/f8BAAABAQD/AP4AAQAAAP/+AgD9AAEAAgIAAP8AAQAA//8AAf8AAP8AAAACAQMAAf4AAAP/AQAAAQEA///9AAEBAAACAQEAAgECAAEAAQABAgIAAgEBAAIAAwACAAEA/v/9AAD+AAABAgAAAAD/AAEBAgD+//8AAP/+AAEBAQACAAEAAAEBAP3+AAD///4AAAD+AAABAgACAQMAAQD9AP8B/gD+/v0A/wEAAAD/AQABAAQAAgIGAP8A/wAA/wEAAAAAAAEBAAD+/vwAAAADAAECAwD/AP8A/wABAAH//gAC/wEABf4EADT4CQAs8xUAH/H7APD19QDyAd8ABe/qAAYNDQD/2NYAAwYCAAfu6gAb0PkACQwHAEH5+wA6DAcA7/76AOP//ADfAe4A2CYNAPMWDwAHEQQA+gMAAP0A+wABAP8AAQAEAP7//wACAgQAAAD/AAEAAAACAP8A//78AAMDBAD//f8AAAMBAP7+/QACAwUA/v0DAAQBBQAAAAAAAP//AAABAQACAAIAAP4DAAAB/QACAQMAAf8FAAAA/gAC/wMAAAQAAP///AAEAAAA/AACAP7/AgD/AAIAAP3+AAEAAwAA//8AAgD7AP0A/AD+/wEAAgACAAIBAAD//v4AAAAAAAQBAgD+/fwAAQIBAAD+AAD///8AAgEEAAD/AAD//vwA/wMBAP8AAAD///4AAgEAAAAA/wAA/wAAAQD8AAEA/gAB/gAA/wD/AAMDAQAA//8A/f//AAID/gD//f8AAP8BAAEAAAAAAQIAAQAAAP7+AgAAAf8A//8BAAL/AAD9/PsAAgMCAP4A/wD+//8AAv8CAAIBAgD//QIA///7AP8B/QD//wEAAAAAAAD9/QD9AP8A/gH8AP/+AgAAAAAABAEAAAACAQEAAAD/AAIB/wAAAAEAAQEBAAAA/wABAAEAAgECAAEAAgAAAAEAAAD+AAAAAQABAQAAAQAAAP8AAAD+AP8AAQAAAAMAAAABAgIAAP//AP///gD+/wIAAP8BAAMCAgABAAAAAgECAP8AAQAAAAEAAQABAAEA/QAAAwIA//0BAAEBAQADAwAAAP8AAP0AAQD//v4A/wD9AP8BAgABAAIA/AD+AP3//wAA//8A/wD/AAL/AgAB//8A/wP+AAL/AwACAgIA//4AAAEB/wADAQEA/wEBAP4AAAD/AQEA////AAIA/QAC/wIAAQQGAAEABAAAAgEAAQIAAAD/AAABAAAAAgICAP///wD9//8AAQAAAAMBAAAAAAAA/f8CAAEBAAABAAAAAQEBAP8A/wAAAP8A/gD/AP8A/wAAAAAAAf8AAAAA/wD///4AAAIAAP/+/wABAgUAAP7+AAEC/wD+AAIAAP/+AAEA/QABAQEAAAADAP//AgABAQMA//7/AAABAQAAAf4AAv8BAP8CAwAP+/4AQOYIACzzDwDr6OUA9g0IAAwFCAAM8OQA+97eAAgJCgDx7vIA/hgOAOzs8AAWBgsAAPD2AAULBQD58PEACAD/ADUF9wA39/oA69gAALHK7gDCDAAAGU0lAPsF+wADAgEAAgIAAP///QACAAAA/gIBAP8A/QD+/gcA/wD/AP/8/gACAwIA/f79AAQCAwAB//8AAgEDAP8A/wD+/gEAAgEBAAABAQACAQUA/gD9AP4B/wAA/v4AAwIBAAIC/gAA/wYA/gD/AAECAAD7/QEAAQEBAP8A/gAAAQAA/f7+AAEBAAAC/wAA/f78AAAAAQAAAgIA/v/9AP//AQAAAQUAAP8AAP3/AAD/AQEA+v77AAEA/wADAQUA/P/9AAEBAQACAQAA//8CAAH//wAAAAAAAP8BAAAB/wABAf4A/v4BAP8AAQAA//8AAAH+AP//AAD///0AAQADAP79AgAAAQEA/v79AAIDAAAB//4A//8BAP///AABAAIAAf/9AP3/AQADAQIA////AP7+/QABAgEA/gAAAAH+/QAAAQAA/v/+AAICBAD//vwA/v78AAEB/wD///8A//0AAAAB/wAAAAAABAMBAgABAAEA/wH/AP//AAAAAAAAAgIAAAAAAQABAQIAAQIBAP//AgAAAAAAAv8BAP8BAAAA/wEAAAD/AAEBAAACAAIAAgABAAEBAAD7/vsAAgECAP8CAwAB/gQAAgAAAPwA/wADAgEA//77AAUDBAAAAQQA/f7/AAEBAAD//wEAAwMDAP///gAA/wIAAAABAAEA/wADAv4A/QAAAAD+/wAAAQAA//4AAAEDBAD//P0AAQL9AAP/AAD/AP4A//8BAAIAAwAA/v4AAAL/AAEBAwD8//4AAAL+AAIAAwD//gAA/P/+AAQCAgACAgEAAAAAAAICAgAAAgEA/wEAAAMBBAAC/wAAAP//AAEAAQD/Af8A/v7/AAH/AAAAAQEABAMDAP///QAAAAEA/f7+AP3+/gAAAf8AAAD/AAEBAAAB/gEAAgICAAAAAAD+AP8AAQECAAAC/gD///4AAAIBAP//AAADAQEAAQABAP//AgABAgEA/f39AAACAAD//gAAAwIEAP///gABAAAAAgEDAAr8/AAhz/MAEtnoAOD8/wDm9vYAISYfAATgywAFBgoA+AIEAPn3+QABCwIAB/P1AA8PCgAHAgUAAvb6APMGBAD7+AAACgr5AAT9AgDs/P4AE/v6AFMB/QAv9PUAkcLoAClBNQAHCAQA9PnrAPoBAgAC//4A/v32AAMEBQD+//4AAAICAAAC/wD9//4AAgEDAP/+AgACAwMAAAACAAAA/wACAP8ABAADAP/9AAACAv8A/wABAP8CBAABAgIA/wAAAP3+AAADAQEAAP8CAP//AQD/Af4A/wAAAAEAAQD8//4AAgAAAP3++wD9Af8AAQEDAAH/AgD/AP8AAv8BAP8A/wD/APsAAAACAP//AAAA/gMAAgECAAIC/gD+//4A/QACAAP/AAAC/wEAAAH/AAAAAQABAgIAAAEBAP3+/wACAf4AAQACAP8A/wACAv8A/v8AAP4AAAABAQEAAQD+AP//AwAAAP4AAgMBAP39/gABAP8AAgEEAAAB/wD+/v4A/wABAAEA/wD+AAAAAP8AAAAAAAAC/gEA/wH+AP3/+wAB/wUAAAICAPz8/QD+/v0AAQD+AP39/gD/Af8AAgEDAP/+AAAAAAAABAQABQD/Af0A/gECAAEA/wD/Af4AAgH/AP///QADAgIA/v/+AAIBAwABAAEA/gAAAAD/AAABAAEAAAAAAAEBAAACAQIAAP4AAAEAAAD+AwYAAP8AAAL/AQD/Af4A///9AAQCAgAB/wEABQMIAAAA/gAAAAQA/wIEAP7//gACAQIAAQEBAP///gAAAAEA///+AAEA/wD/AP8AAAD/AAL/AgD7AP8AAgD/AAH+/wD8Af0AAf78AP8BAgD/Af4AAAACAPsA/AAEAgEAAgH/AP7//wAAAQQA/v7/AAAD/gD/AQIAA/0AAAMAAwABAAMAAwIDAAIBAQABAP8AAf8CAP8B/gD/AAIAAf8BAAEAAAABAAMA/QH+AP4C/wD//v4ABP8CAAH+AQD/Av8AAAH+AAIB/gD+AP8AAf8AAAD/AQD+AP8AAAAAAAAA/wADAgAAAgH/AP3//wAAAgAA//4AAAIBAwAA//sAAQMEAP/+BQD+/v0AAQICAAICAwAAAAQAAAD/AAMBAQACAAQADvwBADTfAQD0zuwA2fz6AOP18wBMIiMABQT+APb+BQAB+vwACAYEAAIFAwAFAAkA+Pv9AAn38gABCgMA+hAHANvy+gAvA/8A9vT1AP//BwAaEQsA/QkDAOT/BAAkAAEATuPvAKCnyABeam4AMD4vAAMHAgDk5dsA+fz1AOvw5gDa5NIA/QP3AAQC/wAAAPwAAgACAAEBAwD+/v8AAgIBAAIBAwD/AP4A//8AAAECAQAAAP8AAgECAP7//wD/AAAAAwIBAAD+AwAAAQAA////AAIBAQD8/wAABAECAP4B/gAC/wMAAAD9AAAAAQAAAAIA/wAAAAAB/gAA/v8A/QECAAD//wAA//8AAAD+AP8BAAD+//0AAQIFAP7//wD/AP8AAQD8AAAABAD8AAAA/v/+AAQAAgD/AAIA/v//AAAAAAACAAMA+wD+AAEBAwD///8A/wAEAAAA/wD9//4AAgD/AAAA+gAA/wEAAP4CAAH/BAAAAP4A//8CAP3/+wAAAAQAAP8BAP8A/QAA/wAAAQEBAAAAAAD9/v4AAP7+AP4BAQADAQEA/fv7AAEAAgABAQAA/v7/AP//AQAAAAEA+//+AAMCAgAAAAAAAzZKJ4AAAf8A////AP4A/wADAgAAAQL/AAEAAAABAQAAAgEBAAEBAAABAf8AAgAAAAIAAgD/AP8ABAICAAQBAgAAAQAAAAH+AAAAAgABAAAAAv8AAAMAAQADAAEAAQABAAMBAgAEAgIAAAECAAH/AQAAAQEAAgIAAAIAAAABAgAA///9AAEBAAAAAAAAAQEBAAAAAAD+//4A/wABAP8BAAABAAAAAP/9AAD//QABAAEAAP7+AAACAAD/AAAAAgACAAACAAABAP8AAQAAAP7//wD+/wAABQEDAAIAAAD/AP4ABwACAAAB/wAEAgQABQIEAAEBAQACAQEAAQIDAP//AQACAgEAAAAAAP8AAAAAAAIA///9AP7//gAB/wAAAgACAAACAgAB//4A/gD/AP4A/QD/AAAA/wABAP8A/AD//wAA/v/+AAADAAAA//8A/wH/AAAA/wABAAAAAQMFAAD//gACAgIAAQD/AAABAQD///8AAAACAAAAAQACAAMAAAD9AAMABAAV9v8ARM36AAfk9QDv/PwA1e/uABMPFQBICwEA+OvuAAb/AQD8+fgABQkHAAISDQD4AwIA//f6AO75+wDzAf4A7PsEAP3z9QAYEAsA3QgBAPsABgAK//wA9/X4ABsPCQC/5O8ATQoGAO7w7gCex8gA6u72ACssLwA3MDcAIBkhACMbJQArIDQACQoRAPTx9QD6+vcA/wL+AAIBAwABAQEAAwEDAP7//QD/AgIAAQIBAP8BAAAAAQEAAAH/AP8AAQABAQEAAf//AAAAAAD9/wAA/wICAP/+/gABAQEA//8BAP39/AAAAP4A/wD+AAAAAQAA/v4AAAD9AP3/+wD+AAAA/v8DAAEC/wD///wA//8BAP/+/AD+AgMAAgD+AAAA/QABAQQAAQEBAP3+/gD//wAAAAIAAAEAAgACAAEAAQH/AAD//gD/AAIA/wAAAP///wAAAAEA//8AAP8AAgAA/wAA/wEAAAD/AQD///0A/wEEAAAAAQD+/wIAAQABAAAAAAAA//8A/wD9AP7+AAAA/v0A//7/AP7+/gAAAf4A//8AAAEAAQD+//8AAAAAAAD+/gD+AP4A//8AAP///wD9//8AAQAAAAEAAADNt9+BAzVLKoABAQIAAwIDAAQBAgABAP4AAQL/AAMDBgACAgAAAAH+AAABAQD9/wAAAgEDAP///gADAwMA/wAAAAIAAQD/Af8AA/8DAAABAQAAAf8AAQEAAP8AAAACAQEABAECAAIAAAABAwEAAAL/AAIAAQD/Av8A/wEBAAEBAAABAAIAAQIEAP7//gAAAf4AAQL/AAAAAQADAgEAAQEAAP///gAB//4AAQEBAP0AAAD///sAAQABAAL/AAD//wAAAAH/AP8AAAADAQAAAP8BAAEBAwADAgMABP8AAAIAAwAAAQAAAAIBAAICBAAFBQQAAgICAAECAwABAQMAAQADAAEBAgADAQAAAQEBAAAB/wD/AQAAAAEBAAMAAgACAAMAAAMCAAAA/wD/AAAA/QD/AP7//QAAAP8AAAH/AAIA/wD+//4A/gD8AAH+AAABAQEAAQABAAEA/gACAQAA//4BAAMBAQAAAP8A/wABAAAA/gABAAAABAQDAAABAQD/AP4AAgADACIBCQAMtNsACuTvAOHl7ADD6+oAx/wBAFolHQAc8fAABwMFAAP7+wD7CAgAAAACAPzo6gABAgMA+BALANzu9AAWEg4ABfX6ABkKBAAD+voADfb7ABMFAQDP/v0AIxwSAAD19gArCggA9v3+ACsLBgAqBAIAnc3SAOz6AQC/yNIA9PT0ACMfJAAPDxEAJBgoACYgMAAIAwoA7OzsAP8BAAAA//8A/wD/AAMEAgD9AP8AAP//AAACAQD+AQAA/v7/AP//AAAA/wIAAAH/AAD/AQAAAAIA/wEBAAAAAAD/Af8A/v7/AAEB/wD///sAAQEDAP/+AQD9AQAA/QABAP/+AAD/AQEAAAD/AP78/gAAAQEA+//8AAECAgD///8AAwD/AAECAgAA/wEA/wABAAIBAgABAf8AAQEBAAH/AgD+/vwA///+AAIBBAABAAAA/wAAAAEB/wD/AP0AAgEDAP7//wD/AP8AAf/+AP///wAAAAIA/gD/AP7+/QAA/wAAAgEBAAAAAgD/AP4A///9AAD/AwAAAQAAAAD9AAD/AgDbJDsiAAAgAElEQVQA/wEA/wABAAAAAQD+//4AAP8AAP7//wD/AQEA/P//AP7//QABAP4AAgICAP/+/wDOuOCBAzZLJoACAQAAAAD/AP4A/gABAQEAAwEBAAEA/wABAgEAAQECAAEBAQADAAQAAAEBAAABAgACAAEAAAEBAAIBAAACAgEAAf8BAAAAAAABAQEAAQABAAIBAAABAQAAAAAAAAEBAQABAgIAAgEBAAIBBQD/AAIAAwIDAAD/AQD/AAMAAQABAAEB/AAAAQAAAQECAP8A/wACAAEA/wD+AAH//wAA//4A/f/9AP4A/gD///8AAQEAAP0A/wAAAAAAAAEAAAEAAAAAAP8AAQAAAAABAQABAgEAAwEAAAACAQABAQEABAEEAAIBAwACAQIAAgEDAAEAAgABAAIAAQACAAMCAQD/AAAAAP8AAAEA/gD//wAAAQIAAAAAAQD+/v8AAQEAAAIBAAD///4A/wD/AP///gAB//8AAAD/AP///gD+//8AAAAAAAEAAAACAwIAAAEBAAMAAQACAAAA/wACAAABAAD/AAMAAQEDAAEBAgAAAAIAAP8BAAD/AwAAAQIACvwAAD3nAQAF2/AA6fn4AMDt7gC49PsAVCYjAEAC+QAN9/0AAPv7AAAGBAD9AwEABv//APkTDAD4/wMAC/L3ABkD/gAI7fUADhsOAMnp9gAEAP8A/gEHAPwGAgAc/gEABff6APQBBAD59PcA9/39AA8FBwAd+vkA7fn5AMrp8AAHEBYA3NzjANXa3QDU2uAA9Pj2AOTr7gA9Mj4AEA4aAOXo5gD///kAAAH8AP8BAAABAwMAAgABAAAAAQAAAAAAAgEDAAEAAgABAQIAAAEAAP8B/wD/AP8AAwH/AP3+/gAAAgEA/gD+AAIAAQD+AP8A/gAAAP8A/QD///4A//8BAAD//QABAP4A/v//AP8B/wAAAAEAAQD+AP79/wACAgIAAAIDAAD/AAAAAP8A/v/8AAICAQABAAQAAf8AAAD/AAABAQAAAAEBAAAAAQAB/wEAAAIDAAAA/wAAAAAA//8BAP8A/wD9/vwAAAAAAAEAAwD//wAA///+AP//AQAB/wEA/v79AP/+/AAAAAIA/wD/AAAAAQD//wEAAAAAAAL/AQD/AAEA/P7/AAEBAQAA/v4AAP8BAP/+/QACAP8AAP/+AAIBAAAA//8AAQECAAEBAQDOt+CBAgP/AAADAAIAAQAAAAICAQADAwIAAAEDAAIDAgABAAIAAf8DAAH/AwAAAgAAAAABAAIAAQABAAEAAwEBAAECAgABAAEAAgMBAAQDAgADAQEAAgABAAH/AQABAgEAAAMBAAIEAwAAAQEAAQADAP8AAAADAAQAAwADAAIA/wACAfsA/wD8AAAAAQAEAAIAAv8BAAECAgAAAQAAAgEAAAAB/gD+AP4A/wD9AP///QACAQIA/gABAP4CAAD/AwEAAAAAAAEBAQABAAEAAv//AAT//wADAAAAAQAAAP///gACAAAAAQEAAAMDAgAEAwUAAAEDAAABAgAAAAAAAQIAAP///gD+/v8A//8AAP//AQAB//8A/v39AP3//QAAAQEAAQD/AAL/AQAA//8AAAD/AP///gD/AAAAAQH/AAAB/wD+AfsA/wD9AP8DAQD+AAEA//8AAAAAAwD//wQAAQICAAACAQD/Af8AAf//AAAAAQAAAQEAAAH/AAEB/QAE/wMADOXzAN/A2ADl7e4AlN/lALf3+QD8APwAAvv3ABEA/QD7Af0A+v37APn9/wD1+vwA/AkHAArx9QAPAfsABfr3AP8BAADyBwUA9/r6AC8WDAAOAwIADQkAAAkGBgAGJxwA+/0AAA35+wAEAAAAFgH/AAb+/QD6AwEAZw0GAHjz4QAC5NIA593VAPD5AADV3+wAr7rWAAYGDwC8ytAADQcbAFRIagAbEi0AAP0FAAIAAwAB/v8AAP8AAAAAAQAAAAMA/wECAP0A/wD+/v0A/v//AP3+/wD/AP8AAQECAAMCBQD+/AAAAP8DAP7+/wD//v0A//7/AP//AQD+//8A/f/+AP7/AAAA/gEA/P7+APz//QD7/v0A+/7+AP4BAAD7/vsA+//9APz//AD/AP4AAgIDAP3+AAD+/v0A//7/AAAAAQD9/gEA/v8AAP8BAAD8/wAA/P3+APv9/gD9/gEA/P3+AP7//gD//wEA/v4AAP7+/wD9/fwA//7+AP//AQD/AP8AAAL/AAACAgABAQIA//4CAP///wABAP4AAP8BAP8B/wD9/f0AAAAAAP79/QD//wEA/f/+AP0A/QD9/vsA///9AP7//QD+AP8A/v/+AAAAAAAAAAAAAzdLKIACAQEA////AAACAAAA//0AAQH+AP4A/wACAAIAAwEAAAECAAAAAQAAAAACAP//AQAEAwMAAQACAP4B/wABAAIAAv8AAAEAAwAAAQIA/wAAAAACAwAAAQIAAgADAAIAAAADAQEAAgEBAAIDAQABAgAA/wH/AAH/AgD//wAAAgIDAAEBAAABAf4AAQICAAAA/wAAAQEAAgEBAP/+/QABAgEA/v8AAAABBQACAf8AAQEBAAEBAAAA/wAAAwIEAAD//wACAgIAAQACAAMDAwACAAIAAgIDAAEDAgADAgQAAQEEAAMBBAABAQMAAAEBAAABAwAAAgEAAQAAAAIBAwD/AAEAAAH+AAD+/QACAQAAAQICAAH/AQABAAAAAAH+AP7+/gD9//4A/v//AP3++wD/AP4AAAD+AP/+/QAA//4AAgH/AAD/AAAAAAEAAAL+AP8A/wAAAQIA//8AAAD//wABAAEAAAAAAAAAAAD+AAAA//7+AAAAAQAG+wIABdDvAODa5gCq7u4A5f8AAP/+AQACAwEAPSYeACX+AAAP/fkAAQECAP8IBADH+fsAFv7+AA0eFQD9DAwA+wEBAOHw+QAGCP8AAPH6AAX8+wDk//sA/QcJAAn//AD65O8ABgH+AAIBAgAGAwUAAwYIAAQBAAAF9/sAAQD+AAkFBwAs7uwA3fb0AO0MEwADCwwA9Pn9AMbW3QD18/gApa3AAPn4AgASDBsAOS82AOjp4wD6APgA/wH+AAAAAQABAP8A//8BAAIBAgAAAP4A/wD/AAAAAgABAQEA/v79AP///gABAQEAAAD/AAIAAQD/AQEA/f7+AP7//gD8//wA/gH9AAABAQD+/v4A/wEAAAAAAAAA//8AAQABAP3+/wACAQIAAQICAP4AAAAAAP8AAgECAAEAAgAAAAIA////AP8A/gAAAf8A/f79AAEBAQD/AAAAAAEAAP//AgD/AAIA/v/8AP/+/gAA/wAA/wD/AP7/+wD///4AAP8BAAEBAwD///4A/v38AAEAAgD+/v8AAAAAAAEAAAD///8AAAACAAAA/wAAAQEA/v//AAD//QD///8A/v/9AAAA/QD+AP8AAAEAAAAAAAAAAAEAAgABAAD/AADOueCBAgH/AAD9/fwA//7/AAL+AQAC/wQAAv8FAAH/AgAAAQEA///+AP3+/QD//wAA////AAIDAgD/AP4AAAH9AAEB/gABAv8A/wIAAAADAQAAAQAAAgEAAAQAAAAE/wIAAgABAAEAAgD///8AAAAAAAABAQD+//4A/wD+AP0A/gAAAQAAAAAAAP4B/wAAAQMA/v//AAECAgABAgEAAAACAAIBBQAA/gAAAgECAAD/AAACAAAAAwEAAAUDAwAFAQIAAv//AAQCAQACAQIAAwMGAAIABQACAgUAAgEFAAUBBwACAQQAAgEAAAAB/wABAQEAAQD/AAIBAAABAAEA/wEAAP7//gACAQEA/v//AP4BAAD9/wAA/v4BAP//AQD///8A/v4AAP4A/wD+//4A/f38AP///QD+AP8A/P//APwA/AD/AAAA/gD+AP4BAAABAgAAAf/+AP///QAAAf8AAP/+AAIBAgABAQAAAQD/AAAB/AABAf8AAwIDAAH+AgAJ+gEA5srYALLz9ADuAwYA/f//AAICAwD/AgEAEfb7APr4+wAB+f8A9QMCAO79/QA7KCUABvf6AP7z7gD8CwYA3/H4ACEKBgAL/v4ABRgPAPgDBAAZAwcADvX4AAH5+wAMBwIAAgcDAAEFAgABEgoAAQT+AAID/gAHEAkACAQGAA///wAZBf8AVQsAAPvx5QARGhUA/wn9ABwkFwDa4+wA8vX4ALG3xwCgr8oAytb1ADwrTwAMABQAAAAFAAH//wAAAP8AAP8AAP/+AAD//wEA/v8AAAABAAD//wAA/gD/AP8A/gD///0A/v//APz+/wD8/f8A/gECAP4AAgD/AAIA/v7/AP///gD/AP8AAP8AAP7+/gAA/v8A/fz9AAT/AQAB/gAA//z+AAH/AQD/AAAA/v7+AP///wAA/v8A//7+AP7+/wD9/f0AAQEBAP/+/wD/AP4A///+AAAAAAAA//0AAQAAAAIAAwACAQIA/v8BAP8AAwAAAAIAAAIFAAAAAAAAAAAAAgEBAAD//wABAQEAAP//AP7+AAD//wIA/f7/APz/AAD+/v4AAP/+AP7+/AD///wA///7AP8A/wD/AAAA/v7/AP7+/wAA/wEA//4AAP///wAAAAAAAv39/QD///4AAAH9AP8B/AD7AfwA/AD+AAMAAQD+/v4A/QEBAAECBQAA/wMAAQICAAABAAD+Af8A/v//AAD/AQADAAQAAgEGAAH+AAAC/wAAAgIEAAIBBQAB/wEAAQEBAAICAwD+AQIA/AEBAPz/AgADAgUAAAABAAMDAwAAAgIA/wEAAAP/AAD/AAAAAQMBAAEB/wAEAQAAAP//AAECAwACAwQAAwABAAYCAAAAAAAAAQIBAAD//wAEAQIABAMDAAIBAwADAgMAAQAAAAUEAwABAQAAAQIBAAICAgADAgIAAgIDAAAAAgAAAQAAAQAAAAMAAQAEAQQAAQEBAAAAAAD9//kAAQD/AP//AAAAAv8A/gD7AP3/+QD9/vsA/wD/AP/++wD///sA/gH5AP8A/QD/AP4A///8AAD/AAAA//wAAQEBAAH//QAA//wA/wL+AAMDAAAA//wAAgL/AP8A/QAA/v8A/wAAAP///wACAP4A////AAMBAQD24uwA5Q0NAPoGCAD4//sAAwMCAAEFAQD+AAEAxvj6AAMAAQAACAIA+wADAA8DBAAM+vAABCwdAPoXGAD/2+UAFf38ANbz8QD/DAwAA/f3APf7/AD8/P8AAwP/AAgCBQAACAIA/woHAP8JAAD79/cA8AQCAPcF/wD1CAMA/QT/AAcJAAAMBQYALQcCABPe2AAFBfwAKTQtAAH+AwD7BAEARFZGADBGMwAIFQwArrzQAIycwgA+MFIABgARAP8BBgAAAQMAAAIAAP8C/AABAP8AAgECAP/+/wD+/f4AAAEDAP3/AAAAAAAAAP0AAPz//gD+AP8A//39AP39+QAB//4AAv8AAP79/gD9AAIA/f8DAP3//gD9//0AAAICAP3//QD8Af8A/QIAAAEAAQAC/wIAAP8AAP0A/AD+AP0A/gAAAP8BAQD/AAEA//4BAP/+AQAA/wEA/wADAP///gABAAAAAf8AAP3+AAD/AAAAAP//AAIAAQD/AQMA/P79AP7+/gAA/wEAAAACAP//AQD9/v0A/f7/AAEBAgABAAEAAQD/AAD+/wAA//8AAP/+AAEBAQD/AP8A/v/+AAD//wAB/wEA/P7+AAAB/wD+//wA/wH/AP0A/wAAAAAAAzhKKID//wAAAQAAAAD/AAAAAv8AAv8BAP8B/wACAQUAAAIBAP3+/QACAf8AAAACAAH//wABAAAAAQIDAAIBAgD//gAABAEDAAIAAAD/AAEA/v7+AAICAgAAAP8A/wD9AAAAAAD9AAAAAgMDAP///wD/Af0AAP//AAMBAgD/Av4AAwABAAEBAQACAQAAAgICAAEAAQAA//0AAQABAAABAgACAAEA/wD+AP8B/QABAQAAAQEDAAAAAgACAQIA/wABAAIDBQACAQUAAgMDAAABAAAEAQUAAAACAAECAAACAQQAAQEBAAECAAABAQMAAQIDAAABAgD+AP8AAwD/AAAA/wABAQAA/v/8AAEBAQD+APsAAP7/AAAB/gD+AP0A/f77AP0B/gAA//0A//38AP///QABAf4AAP//AAAA/QACAv8AAv8CAP8BAAABAAAAAwEDAAAAAAD/AP0AAAEDAP8AAAABAAAA/wD+AP4AAwD//wQAAP//AAn+AgAV5fkA1NXlAO0AAQAA/AAAAgQCAAIDAwD//v8A+vb5ADUrIwAd9vQADPz9APcODAAEBgUAAfr5AOTt9QANBv8A2wIDACkHBgACBgYAAff7AAD+AAAICAQACAUCAAIRCgACCwYA//r8APwQDADkDxEA3BAQANwnIwDUFhgA4gIFAOLz+QAYBwAA/fX8ADgIBADn7fYA4f4EAPjz/gApLikA6u3tAA0UFQD8BPcAJisZAOn89ADk7e4ADQ8YAPQDDQDz+QMA/f4EAAUC/AD/Af0AAAD/AAD/AAAAAAIA//7/AAD//wD+AP8A/f8AAP3//QABAP4AAP/+AP7//QAA//4A/v8CAAP/BAD+AAEA/QD+AAD//wAA//8A/QAAAP0B/gABAQEAAwEAAAAAAAABAAEAAgECAAH/AwAA/wEAAAECAPwA/wAB/wAAAAD+AP8B/gD+//4AAf/+AP8A/wAAAAIA//8AAP8AAAD+//4AAQD/AAACAAD+AP4AAQABAAACAgABAAEA/wABAAABAQAAAP4AAAH/AAABAQAA//8AAAAAAAAA/gAA//8AAf/+AAEBAQD+//8AAQAAAAAAAAAA/wAAAgD/AAAAAgAAAAIA/gD9AAIAAgDQuuGBBAEBAwD/AP8AAf//AAEB/wAD/v8A/wAAAAD/AQD9//0AAf8BAAIBAwABAAIA//8AAAIBAgD/Af8A/v/+AAAAAQADAQMA/f37AAECAgAAAwEAAQACAP///AD///4AAQIBAP3//AADAQMA//78AAP/AwD//wAAAAIDAAEAAwAC//8A/wAAAAIA/wD+//8AAP0AAAACAQD+/wEAAQICAAD+/wD/AP4AAgH/AAEABAD6AP0AAgEDAAEA/wACAf4AAgACAAABBQD//wAABAEBAP8AAAABAgIAAAABAAEBAQAAAAAAAgICAP7//wD+AP8AAwD+AAIAAgABAAAA/v/9AP8BAQD+//0AAgECAP7+/QABAQEA/f/9AP///gACAQEA/f/9AAADAwD//fsAAgH7AAD/AgD//QAAAAL/AAEAAQD//wMAAAEAAAH+/wD/AQAA/f/+AAIA/wAB/wAA///+AAH/BAACAf8A/P/8AAEBBQAC//4A/gEBAAP5+gABzuoA9f3/ABYXFQBQUFEA0dLRAMfExAAFBQUA6/r5APX5+gADBwQAA/b4AAHr7gAGBxYA/AYDAP8DAwAC9fYAFQ0LAPrn8wD89vsACQ8JAAb98wD8BwQAA/z9AP8QCQD49/cA/yomAN71+wDrFQ4AEx4LABoVCgD79/UA/CYsAPsNQADFnawAOQj7AAH39gAn1skA2erkAPo7SwDr7OgAExkUAPL59QAhJiQA9PzuACszHwD7AfoA9gD+AAgHIwAUEi4A49vZAAMF+QD6+OcA/PPzAAL9/QD+/wQAAgQDAAIC/QD8/PkA/gD/AP8AAgD///gA///+AP/+/QD+AQEA/f8BAP4B/gD/AAAAAP7/AAAAAgAA/wAAAAD/AAEAAQAA/v8A////AP4BAAACAwQA/v4CAAEA/wD/AgAAAgAAAAH/AAAA//4A/wAAAAD/BAABAgIA/QD/AAIA/gD//wAA/wAEAP7+/AABAQAA////AAH/AQACAQUA/wH+AP7//gD/AAAAAgAAAAH/AAAAAAIA//7/AAACAAD+/v4AAAD/AAAAAAAAAQEA//8BAAD/AQABAAMAAf//AP8A/gD+AQIAAP4BAAECAQD//gAAAf8CAP8AAQAAAAAAAzZJJYAB//8A/gAAAP0AAAADAAAA/wEAAP///wAB/wEAAgACAAIA/wABAQAAAf8BAAAAAQABAQEAAQAAAAH/AQACAgIAAQEDAP7/AQD//v4AAgH/AP/+/wD/AP8A/QAAAP8AAAD/AAAAAv//AP8CAAAAAAIA/wECAAP//wAA//4AAQIBAAEA/QD/Av8A///+AAH/AAD/AAAAAAD+AAIAAAAA/wAA/wECAP8AAwABAgIAAf4CAAQCBAAAAAAAAv8DAAICAwACAgIAAwICAAEBAwAAAAEAAgIBAAIBAgABAQEAAQEBAAAAAQACAQIAAAD+AAAAAgAAAQEA/v//AAAAAAAAAAAA//79AP8B/wD+/wIAAQD+AP/9/gD+//wAAAL8AAD//AD//v0A//79AAEBAQAAAQAAAAD/AAEBAAAAAAEAAQEAAP4AAAADAQIAAP//AAAAAAAAAQMAAAD+AAH/AAD9//wAAAEAAP/+/wAAAwMA//7+AAH6AwARFTEARmdpAG9vagAcHRgAMC4fAF9dRwD6/PwA1dPbAB0GCQA8AwAAAQwHAAH5+gAB8fQA4OLrAAsC/gDL7/0AGwP/AAb//ADz+fsA+fX5AAwJBAABAgMABBEJAPgMBwD6+f0A0/HzAP4zKwAbMg8AGkk4AA0hGAATJhYACCAUANvHzAAdKjAA7c/YAAkE+wC87vkANxoaAO0hJAD6/gQA8e/yABASDAAAAPcACAwOAAIG+QD//PgA9vnyAP78/AAB/f0A+f37AP0EAwATERoABwQPAOTf7QD99wYA/PoJAPz/DQD2/AYA+PcAAPr6AQADAQAAAgH6APwA/wD+//8AAAIAAPz+/QAAAP4AAgABAP0A/wAA/wEA/gH8AAH/AAABAQEAAgIEAAICBQAAAP8AAwIAAAEBAgD+AP8AAP39AP8A/wAA//8AAAAAAAACAQD/AAMAAQD/AAH/AQD9/wEAAAIAAAAA/gAAAP8AAQICAAABAQD//v8AAwECAAD//QABAP8AAwEAAAD/AAD//gAAAgEDAP8A/gACAAEAAQAAAAEAAAAB//8AAAAAAAD//wAA/wAAAgEAAAAAAAAA/wEAAAACAP7//AABAgQAAAH/AAABAADQu+GBBAIAAgAAAP0A/gAAAAIBBAD///0AAP//AAABAQD9//4AAAMBAAIB/wD+/wMAAgEAAAD//wD//P8AAAMCAAIAAQD/AAAA/wAAAAIAAwAA//8A/v/8AP8AAgD+AAEA/v79AAACAAAD/wEAAQEAAP7+/QD/AgAAA/8AAPwA/gACAgAA////AAD/AQAAAAEAAAD+AP4A/wABAQAA////AAABAAAAAwEAAP0BAAMCAgAA/v8AAAIBAAEBAwAA//4AAQMCAAAA/wACAAEA/wABAAEAAAABAgIAAAABAAAAAAAAAQMA/wABAAICAAAA//4AAAAAAP7//QD/AP8AAAEBAAD+AAABAQAAAAD+AP///wD/AAAA/v78AP///AAAAP4A/v3+AAIB/wD/AP8AAAEAAAIC/gD+/gAAAgICAAD/AAABAP4A/v//AAABAgAB//8AAQAAAP7/AQABAQIA///+AP8A+wAAAgEA/v3+AAIBAwAB/f8AAgEIAAsTJQAlPUkAFg8MANrc3QAKAfQALi4sAAUEDABaXAsA6MXVAEIA/QAB/voA//oEAAIKCgD29vkABwoIAPv7+wAeBwIACREKAPsKGAAA2eAA/QYEAPMMDgAM//YA/xQOAPwgIwDjzNcADz0vAAExEQATLx4AzrrTANDa+AAwJxYANCkBADhdPACticAAPhsZAPXt7QAXC/YAv+HcAAQtNwD6+/UABw4TAODa3wAhJSEA/AP6AAQIAQAGAAkA+/32APr8+ADm6OwA9/P5AAoB+QDG3tcAAvf5AAkFBgD77PIA//H6AAwUGAADEQoA+wH4AP8D/wAHA/0AGBgGAAMIBQABA/4AAgD9AP4C/gAA//8AAAH+AP///wD+AP4AAv8AAAAAAQAAAAAA/v//AAL9AAD/AgEA//8BAP3/AQD9AP0AAwABAP39/QADA/8AAQEEAP8A/wAAAPkAAQABAAD/BAACAf8A/v/7AP8A/wACAgIA///+AAAA/wADAQAAAQABAAAAAQD/AAAA////AP7//wACAgQA//4AAAABAAAAAQEA/v8AAAEAAQAAAQIAAf7+AP8AAAABAQAA/gADAAABAgACAP8A/P4AAAICBgD/AAEA//4DAAD/AAAAAAAABP8A/gD/AQMAAAD+AP7//QD+//8AAQAAAAD+AAADAwMA//z/AP8DAQABAQAA/QH/AAEBAQABAQEAAP8AAP8AAAD///0AA/8AAP//AgABAv4A/f/9AP///gACAAEAAwEAAP3//AD+AgQA+QAAAAIB/QABAf8AAP8CAP7/AAAAAgIA/gD+AAD//wD9AAAAAwABAP8A/gAB/wMA/wD/AP///wABAv8AAwICAP3+AAACAgIA//8AAP7//QABAQIAAQEDAAAAAAABAQIAAgACAP7//QAA//8AAgMCAP8AAgD//wMAAQAAAP/++wACAQAAAQEBAP8A/QD8/fwA/wABAAEBAgAAAP0A/wD+AAH/AAD///wA/wD6AP8A/QAAAP8AAQABAAD/AAAA/wAAAQL/AP4B/gD/AAQA/gD/AAAAAAACAP8AAgEAAP4BAgD+AP0AAAABAAEBAAAAAP0AAAD/AAABAAAA/gAAAwAAAP7+AgACBAIAAvgOADAuQwAQDAwA8u/vAP/48gAhJBoABAUMAAEDCQDn2N0AUwb9ABf8+wD8BA0A/Pb1AAkC/gDd/QAAB/3+ABAQEAAH/PsAAfH3AADm7wAJBAEAAwsHAP37+AACBwEABBcIAPrx5wAIMyIAt+LwAFNYKQDay9oAm63dABQuMwAyIOV3b8EAACAASURBVD4A3ubOACkU7gATGA8ACPP6AAzx7AApAP0ANBkQAMPe2gDiBgkAAvjuAP4LFgD3+voABPj+AAIDBgAJCgYA7O3rAPLs7QD6+PsA9PTxAOrx7AAE9f0A/vT3APb99gAE+AEAA/r+APTg4gD83wMABxURAPkE/ADzAv4A7+T/AAUGAAAECQEABAkBABESCwAQEv4A/QP5AP8B/wACAAMA/v/9AAICAAABAAIA/v8BAAADAQAAAAEA/f7/AAAA/gABAAAA/QD9AAEDAgD/AAIA//8CAP///wABAQEA/wABAAABAQAAAP8AAQECAAEAAgD+//0A/wD/AP7//wADAgIA/f39AAEBAAABAQEA//0BAP4A+wD///wAAQECAAD//gAAAQIAAQICAP/+/gAAAQEA/wICAAD+/gD//v8AAQIBAP4A/gD+AP8AAAEBAP//AQAAAAAAAP8AAAEBAgAAAAAAAFeBqH4E/v4EAAECAgD//PgAAwL/AP7//wAAAAEAAP//AP3//wACAwIA/wEBAAD+AAACAQEAAAIAAAEAAAADAAEA/wEBAAP/AAD+AP8AAAL+APz+/QABAgEAAP/+AP7+AAABAQIAAf8EAAH9/wADA/4A+v39AAQCAQD/AAMAAQEAAP///wD+AP8AAQL/AAD//wD+/gIA//8AAAEFAQD//gEAAQACAP7+/AAAAAEAAgECAP4A/wABAP0ABAIAAP//AQAAAP8AAAD+AP7//gD/AAMAAgABAAAAAAABAAEA/f/9AAEB/wAB/wAAAAEBAP4AAQD//f0AAQIAAAEAAgAAAAAAAP/+AP3+/gD/AP8AAP/+AAD//QD+/gAAAAACAP///gAAAfsA//8BAAICBQADAAIA/v78AAMC/gAAAAAA/gICAAD/AQABAQAAAP37AP8A/QABAAIAAAADAP8AAAAAAAAA//8BAAD//QD//wUAAgAFAAoAHAAzKT0AEwgLAOzi4AAgHRgAEhsoAAoICgAB/gIA1dLNAKiMmABsCAMADvz7AP7z8AAD+v8A8fn7AB4MBgD8CgUADggDAPsPEgDzAgMACO7sAPb3/QDu5+8AFRcTAAQDAAD45/UABh0fAMn5CQD+A/gAEATzAM/U1wDPy88AANfbAMy3rQCRWiEAAR4PAAsPDgAF/+kA9+z0ABoaEQD66/IAMffZACodIgCm7v8ADf4DAPvs8AD08wQADQ8IAOTy6wDy9u8AGRAMAN7aywAIDAcAEg0KAPDx7wD6+P8AAPn7AP36+wD99PwABgUIAP4F/gD29fYAAAkCAP3//QADAAEA/fP+AAP/AQD9//4A8AL2ACAtDgAOHgQAA//8AAL/AAAAAgEAAP8BAAABAgD+AAEA/f78AAEDAwAA/gAAAf8AAP8AAQACAgMA/v7/AP//AAABAwEAAwMAAP//AQD+/wEA///9AAIBAwD//f8A/wD+AP8B/QAAAAAAAgMCAP3+/QADBAQA//3/AAH/AAAAAP0AAgEGAPz//QAB//8AAwADAP///gD+AP4AAQEBAP/+/wD///8AAAAAAAMBAQD+/v4AAQEAAAD+AQD/AAAAAAAAAP/+AAD/AgEA/v/+AAAAAAAEAQH6AAL+AQAAAQEA/f8AAP8AAAABAgIAAP8AAAL//wD+//4AAv8BAP4AAgAEAQIA/v79AAIDAgD8/v8AAQMCAAH//gD+AgAA/v/7AAAAAQD//wIA/v79AAAA/wD//f8AAwICAP//AAD+/v8ABQIEAPz9/AAAAgIA/wABAAIAAAACAAEA/wABAAIA/QD+AAAA/wIBAP3//gAAAQIAAAD/AAICBQAA/f8A/gD/AAEBAgD+/wAAAAAAAP8AAAAA/wEAAQECAAABAAD/AQEA/wD/AAEAAQD8/v0A/wEBAAAAAAD9//4AAQD+AAD/AQAA//8A//7+AP8BAQD///8AAQD8AAAA/QD/AAIA/wD/AAD//gAAAP8AAAD/AAABAAAA/wEAAAABAP8B/gD/AQIAAAABAP8AAAACAQQA/v/8AAECAQADAAAAAwIEAP4AAAACAAIAAP//AP//AgAAAP8AAAH+AAD+BwARBR8AKhw2AAsABgAI/vwAIx0YAMnd2QDk2OgACy4qAAoLDwDe29UAkY6XAA8ODwAhA/kABwIFAAUPAwD87PMABhkRAAIHAwAKBAcA+wP/AP309wD2/f8AEwUGAAIC/wADEAsAAQX9AP8VEgD89/MAARgWAAr8EAD+4uYA6ujzADEtEgApGAQA4unpADogFAAgHP0A+AYOAA0LGwAC68cAEhMQAPT09gAQFwwAH/b7AP3w5AAMCA4A4erzAMYVIAD6/fYA+PsSABkWFQARCggAGBcLAOrtFwD28vIA9OjuAPfw9QD++fwAAvn9APz8+gD+//wA9vL1AAoQEQABCgEA+vz9AP36+gAAAP8A+/z8AAYCBAD/AP4ABQUFAOri+QAHCw4AChL+AP4C/gAAAAEAAwEDAP4A/gACAQEA/gD/AAH9/AABAgMAAAABAP///wAA/v8AAgQDAAD+AAABAQAA////AAAA/gD/AAAA/wABAAIAAwD/AP8AAQL/AP///wACAAEA/v//AAMCAAABAP0AAAIBAP///gAAAgMAAQD/AAL+AAD/AAEA/f/9AAIAAAADAQIAAQAAAP0BAAABAQAAAAAAAP4A/gD9//8AAQABAAEBAAAC/v8A/wEBAP8AAAAD/v8A/v79AAAAAAAEAAAEAP0A/QD/Af8A////AAMAAgD//gMAAAICAP///gAC/v0AAQD/AAEBAgAB/gEAAgIBAP/+AAABAQIAAP4AAP4CAAD8/vwAAgIDAP//AAAA/gAAAgEEAP7++wD/Av8A+/77AAMCAgAAAAEA/v39AAAB/QD/Af0A/v8BAP8AAgABAAEAAAD/AP8BAAAAAgIA/v79AAP/AgACAQEA/f/+AP/+/wADAQAA/v7+AAICAgABAAIAAP//AAEAAQD///8A/v8BAAAA/wABAv0A/wIFAAD/AAD/AP4AAf8AAAEB/wAA//8A/wH/AAAAAAD///4AAAD+AAD/AQD+//0AAgH9APn+/AADAgIA//z/AAEB/gD/AP8A/v75AAIBAgACAgMAAQH/AAIC/gAB/wAA/wH/AAD/AQAA//0AAgADAP///gD+/wEA///+AAEAAAAAAP8A//4BAAEBAAAAAQMADP0cADEkPAAcESAA9PHsAAUC9QAZGBcABQL/AB4dEADv5OsABgMBAOzp4wCvqrYAFSEfACoC9QATICUA/fT7APzd3AD8BQIABgUCAO/+/wD88fUAF0A8AADRzwATCP0A3O7+AO7p6wAbGBMACgP9APfm7QAOHhgA/AUDACojHAD09gMAxr3ZAFJLEQCVeToA7/H4ABQM/wANGgwAzt4IABICCgDl8voADPf5AAcFBwAFBQUAAREJAP309QAx8O4AGwkQAPnKsgDJ+/oA0fj8ABovOQD4CQEA7u8OAAwIDQD8/PoA/wcDAAQEBQAA+/8A/gj/AAH8AwAIBwgAAPb7APjz9AD/+fgAAwsGAAIA/wAAAP8AAwABAPz5+gAAAwIABgkEABEMDwAMCQwA/v/8AAAAAAD/AQIAAAH+AAH//wAB/wEA/wD/AAIDBAD9/wAAAv//AAECAQD//wAA/v/9AAMAAwABAP8AAP8AAP0A/QABAAMAAQD/AP3/+gABAwEA/wEAAAH+AAAAAQAAAgACAAD/AQAAAv0AAgEDAP3/AQADAQIA/vz7AAIBAAD9AAAAAQEAAAH+AgAB/wAA/v/9AP/+/gAA/wEA//7+AAAAAAAAAQIA//7+AAMAAwD/AgAA/P7+AP///wD8//4AAQIDAAAAAAADN0gngP4A/gAB//8AAAAAAAEAAwAAAQIA/wAAAAAAAQD/AAEAAgIGAAP/AgD/AP4A/QD+AAEA/wAA/wAAAP8AAP//AgABAAEAAvz+AAEB/wD+AP8A/wD/AAEAAAAAAP0AAAD+AP7+/QAA//wAAAH/AAICAQD+AP8A///9AAMD/wD/AP8A/v/+AAEBAgD///4ABAIEAAIAAAABAQEAAgACAAEAAAD//wEAAQEFAAH//wD/AP4A//8CAAABAQAAAP8A///+AAMDBAAB/wEA////AAMDAgAAAAAAAQH/AP8A/wAAAAEA/wD/AP/+/wD+/v0A/wD+AAD//gAAAP8A/gD+AP8AAAD///4AAAD6AAAA/QAA//8AAAABAAMC/wABAAAAAgIAAAAAAAABAAEAAAD8AAEABQACAQAAAQACAAIAAAABAQIAAQEBAAQBAwACAAAAAAEAAAEBCQAeCy0AOB8/AA0EBgD/+/MABP37ABkXFAALDhAAAQD9ABEWHADy7OUA2tDKAA0QEwDs9PwAv7y8ANrW3QBNKSgA+uvpAAvz8QABAgIABPn9APkQEgAZBQAA9+bmAP8BAgDd6fUACg0HAO319gAA9fYA6/oBAAj+AQDqAf4ABP/9AAwgHQD+Dg0A1dDgAO71+AAeOSUAEhwOAPgNFwDL4hEAB+YJAN3NzQC63+4AzCg8AOslMQDlAA8ACQL8AA399wD++PsABP/9ACTv7QAxDggAPAgCAPDp6ADM39wA9OnxAAMCAgAUFxMA+P73APj1+AAB+/0A/wD/AP/6+wD9+/wA+/z/AAkNDAABCAIAAgIBAAAA/gACAP8A/v//AAUDBAAHCQcADxMNAAEEAAADCQYACgwHAAEC/AAC/wAAAAIAAAIA/wAD/wEA/gD/AAAA/wAEAQIAAQEBAAABAAAA//8AAQECAAEAAgAA/wAAAgAAAP4BAAAB/wAAAQD/AAEA/wAA/wAA/AH7AAUBAAD8AAAAAQAAAAMCBAACAP8AAf8AAAAA/wAA/v8AAQD/AP8A/gACAAIAAwECAP///wACAAEAAAABAAIAAAD///8A/wEBAAAAAwAC/wIAAgD/AP4AAgD9/QEA/wACAAH//wD/AAEA/P8AANS+4IEDNkcjgP4CAgAAAP8AAgMDAPz+/gD/AAEA/wD+AAEB/wD+//0AAAH+AP4A/gABAf4A/AABAAIBAQABAP8AAgIBAP3/AAACAAAA/wEAAP7//gAA//0AAQABAP7/AAAAAP8A/v/+AP///QAC//8A/gD/AAD/AAD///8AAgEBAAEAAQAAAAIAAQEDAP//AAABAgEAAgACAP8AAAAAAgIA/wAAAAABAwACAAEAAQIBAP4AAAAA//8AAAEAAAEAAwABAf8AAgAAAP///wD+AP4AAQEBAP8A/QD+//8AAAACAAD/AQD///8AAP//AP//AAAAAf4A///9AP0A/wD///4AAAAAAAD+/gAAAP8A/v/+AAAAAgD+//0A////AAICAgACAAAAAwMFAAEBAgACAf4A/wABAAEBAQD//gIAAAIBAAAB/QAB//4AAAAAAP7+/wAAAAAAAwEIABwGLAAvGC0AAPv3ABANCQANDAgAGBsXAAMD/gADBAQADA4cAAkIDAAPFyIAFx0gAAcKCQD58u8A/vnxAOTt8AAJ8vAALBYNAPoHEAD4/v4ABRIMAAL/AAD98PEA/CYmAObp7ADN8fgAtOLsAAUDBQAK/PsAEQ0JAPwEAgDa6e8AAxcPAPv69wAOEg8AHxoeAOrwAQDLvNwA6ukGAOzsBwDy7QQAu7W7ALbW5QD4IiwABhcjAO8EDQDR8QAA3fwGABED9wAZ9vIABP0AAP8GBgDqFg0A//f9ADUYEQDcBAUA4ujnAPnx9AAJFhcAFhUVAPzy9gD5/PkACAMBAPn7+QAEAwMADRQVAAQPCgANFw8A/AD7AP77/AD++/sAAv8BAAAA/gALEAgACAwFAAgLCgABBQEAAAT6AAIF+QAEAQMA/gMDAP4A/QABAAIAAgIBAAEBAgAAAAAA/wD/AAABAgACAQMAAQACAP/+/wABAwEAAAIAAP8AAAACAgEAAAAAAP8BAgD/AQEAAv4BAAEEBAAAAAEAAgICAAEC/wAB/wAA/wD/AAAA/wABAgMAAQAAAAH/AAADAQIA/wH/AP8AAAABAAAA//7/AAIAAgAAAAAAAQEBAP///wAAAAIA//8CAAABAwAAAv8A/wD+AP4AAAAAAP8AAgEAANK94IEE/QIFAP4A+wADAgEA/f8AAAACAAD///0AAQAEAP///gABAf8A/v/9AAIBAwD9AAMAAQD/AP7+/gACAf8A/f8CAAAA+wD+/AEAAQMDAAAAAAABAQEA//7+AAD/AAD8//8AAAIAAP4A/gAAAAAA/f0AAAICAAADAQEA/v/+AAACBAAA/wIAAv8AAAEBAAAC/wIA/wD+AP8BAgACAAAAAgECAAAAAQD8//8AAP/9AP7//AAC/wIA/v/9AAEB/gAAAAAAAAH/AP///wABAQEA///+AP/+AAACAgIA//3/AAACAAABAAAA/f//AP3//AABAP0A//7/AP//AQAAAf8AAP//AP///wD8APwA/P/+AAUAAAD//vsAAwIGAP///AAAAgcA/P4BAAQDAAAA/wQAAwH+AAD/AQD/AQMA/gH8AAQAAwD+AP4AAf8CAP0B/QAG/wgAGgQuACkWIQAHA/8ACw8RAA4OCwABAPsACAkLAAQHGgD7+PcA/f3+APj58wAJCAoABxMdAP///wBETiUAPkpIAPj19wC2qKMAj6e3AFQOAgAa/QEA9Q8NAA349AD7CwgA/ujjAL7w9QCs5+wAAwABADkPCwD7CgwAAO70AAoIBQA2CAgA6uryAPksEgDy8/oA4ujoAAAC/gAZGR8A6OTpAPL+9QC9srwA+AAFAPYB/gD749wAAwYNABwgJQAZKB8A7N4EAPvx8QAEFPoA6eDgAPwQDADKCBAAtundAATt9gDf/voACQoLAPDq6QDdwMUAERYSAPXy8AAOEwwA9fj5AAgHBwADAAIA+O7vAP0BAQAC+goAFBMRAP8PDwD29PMA7+rvACMmIwAPFg8A8vLxAPwB+gD9//wA+vwAAAoDCAAAAP0AAf3+AAEAAwABAgIA//8AAP8BAAABAP8ABAIBAP7/AAD/AP4AAAH+AAQCBQD9//0AAAEEAAIBAAAC/wAA/QEAAP///wACAQEA/wMBAPz+/gADAAEAAgEAAP4A/gABAQIAAP//AP8AAQABAQMA/f/+AAMBBAD//vwAAQIAAP8AAQD8/v0AAQH/AP//BAACAQIA/P79AAEAAAAAAAAAAwMEAP/9/gD7AP4AAQIAAAD8/gAAAAEAAQAAAAAAAAADNUomgAICBAADAQIAAAD+AAAAAgABAAIAAwD9AAP//QACAQQAAAEEAAD/AQAAAgMA/wD/AP8AAQAAAQIA/wD9AP/+/wABAQAA///+AAD/AAD+//8AAAEAAP4B/wD///0AAAD+AAEBAgD9//8A/wD/AAH/AAADBAMA/v7/AAAAAgACAAEAAgIBAAMBBQABAgEA/wIBAAAAAAAE/wEA////AP3//wADAAIAAP8CAAAA/wD/AAEA/f79AAECAAAAAAAAAAEAAAD/AAAB/wIAAAABAAEAAQABAQAA/v//AP8B/QD9//wAAf//AP///AD//v4A///+AAAA/gD+//4A/f//AP8A/wD+AfoAA/8CAAH+AQADAwEAAQABAAUEBwABAQIAAgADAAIC/AABAAEAAgIBAP//AAAAAv8AAgAAAAL//gD/AQQAAQL/AAT/BQAK+CEAKRQhAA0JBQASExAAEhIPAAQFCQADA/0ACAgWAP7+AAAA//0ABgcJAA8PFAAHCAkAAwMDAAcICwAGBgkACAYNAAoLDwAuNjwAGTgsAMbj4wD0APUABOTpAAIGBQDc+/oAgNDhALLs8QDs/vwAPBIKACoJCwAfBwIACwMHAA8IBAAB9fgAHQMCABT7/gD6ChUAEyssAAsHEAD97vIAB9nbAB/Y3QBcGAwATxcMAEAEBQA0/vgAAfHhAOzd2wAF8ecAOxoWADz75AAIAQAAAQoIALQHDADeHh4A2+jwAPICAQADAwMAAwIEAAQDAwAB+/oA7eTmAPv09wAOEQ4AFhsVAPv6+gAVGxEA/fwAACEkIwD7AP0AEQ4MAAEK/QAQFQ8AOEE2APHy9gD8Bf8A/wIAABccDwAJDAEADA0EAAEA/AD/AP8AAgMEAP8B/gD/AQAAAQADAAQAAgABAf4AAAEDAP8AAAACAQIAAgECAAICAQAAAgAA/wD/AP8A/AD+Af4AAv7+AAIBAQAAAP4AAwEAAAH/AAACAgEAAgH/AP3//gD/AQAA/wACAAMCAQD//f4AAQL/AP///wABAgEA/v8AAAIAAQABAQIA/wAAAAD//wD//wAAAQEAAAD//wAAAP8AAAD/AAABAAAAAAAA//8AAAIDBAAA/wIA///+ANK+4IEEBQICAP8AAQAA//8AAAEBAAMBAgD+/v4AAQABAP7/AgD/AAIA/wABAAIBAAD9/v0AAgIBAAD/AAD+/v8AAAH+AAEAAwABAQEA/v77AAAC/wD/AP8A/P/+AAEAAQAAAQAA//8BAAAA/wABAQUA///6AAMCAgD+/f4AAQEBAAH//gD/AQIA/f8AAP8A/wAAAAEA////AAQBAgD8/v0AAAEBAP8BAAD+AP0AAP8BAAAAAQD/AP0ABAMCAP7//gD//wAAAP8BAAEAAwD9/vwA/wD/AAIBAQD+/v8AAQL/APz+/AADAQMA/f7+AAAAAAD//v4AAAD/AP4BAAD+AAAAAQD/AAAA/wD//v4AAgABAP4CAgAAAQQAAQAAAP7+AAAFAgEAAAAAAP8AAwACAQQAAP/+AAIBAQD/AAEAAwABAAAC/wD+//8AAf8DAAsDGwAmFywACwj7AAME/QD4+/YA9uXvAA4OCwASFBwA+/z3AAD+/AADBAoA/vz4APn58gD+/gAABwcLAAQFBQD+/v0A//37APv9/QADAwMAJScyACOLLwD49ukA5tXbAK2qpQCts78A5wIFAPIA/gAEAP8ALQ4OADoTDQAB+PoAB/jxAP39BQDxExEAB//7AP/V4QAQ19wADbsIAPf9BAAIAfYAAQMFAPwTCQAGEQ8AAvT6ACAB6QADCgQAQw8MAPf8AgD/BvMA+9W4AAH5+gAABAkA9QcFANMIBgANCA8ACQ0LAAkHAwD7/P0A+v8DAP3//gAKCgcA7u/tAPPy7wDo2eUA8+3xABIiFAAVGxcAAw0PAPHq8QDa0tUAHiUhAC85KwD49vYA7/X0ACMrIgDm5eQA+QT2AAUJ+QD7/fQAAAADAAD//wACAgEA/v//AAIBBQD/Af8AAAD+AAD/AAAA/wEAAgEBAAIAAQD+AP8AAf4BAP0C+wAAAQQA/wD+AAAAAAD/AAEAAAEAAAAA/wABAv8A/P8BAAAAAAD///8A//8BAAQCAgD9/v4AAQIFAP8A/gD/AP4AAP7+AP8BAQD+AAAAAf8BAP///QAA//8AAQAAAAACAAD+/v8AAgECAP7+/gABAgQA/f3+AAEB/wAEAgQA/P/+AP7//gABAgEAAQAEAAAAAAAE/gH/AAEBAQAC/QAAAgECAPv+/QAAAQAA/P78AAEB/gAB/wAAAAECAP8A/wACAf8AAgADAP8A/wAAAAAAAQABAAD//gD+//4AAQL/AP4AAgABAv8AAv8CAP7+/AABAQEAAAD/AAD//gABAAAAAAD/APz+/QACAQIAAf8AAAED/gAA//4AAQAEAP4B/wAB/wAAAAACAPz+/QADAgEA////AAD//wD+AAAAAAAAAP7+/wD+Af8AAQAAAAH/AgABAv4A/v7+AP4A/gD9AP0AAP8AAAABAAAAAAEAAP8AAAIBAAD+/v0AAAACAP//AAD//wAAAAD/AP3+/wD/AQAAAQIAAAEA/QACAAIA/v8BAAICAAAB/wAAAgADAAMBAQAA/wAAAQL+AAABBQACAAMAAQH+AP8AAAD+//8AAP/8AAAABQAEAQAABP0OACMVNAAI/v8ACQcCAAQB/wDw7eYADgsLAPr1AgDt/OUA///6AAkHBgD39/UAAgIFAAUHCwAAAQEA/gH7APn5+AAB/PcA/f3+APPz7AD6+AAADwsRACAmLQALFB8AIjc9ACIzPQBGbdoAamRnANrW4wAxBwcAPggEAAr3+AD6+f4AAwIHAAH6+AAQBwkA9AADAPsbGgAC/O8A+vz/APvz+AANCAUA++/2AP8PAQD0+vQABersAPr9BAD/CwMA/OTwAAsfFQDY8/oACuzxABsGAwD6+PoAAwMKABAFDgD19e8AJh8bAAH//ADl8fQA+/f8AAD9+wD///0AEA4OABcVFgDz9vMACQwIAAb/BADl2uEABA8KACo7KgA9VD4A2tXUAOLm1gALDxEAIRMWAAgG/AAcHgYA8vcDAAIE9gAAAQAAAQMBAAD+AQAAAv8A/f39AAECAgAB//4A///8AAACAwAA/gIA/f79AAMBAQAC//8AAAECAP7//QAE/wIA/wD/AAEBAQAAAP4A/QH+AAAAAQAB/v4AAAICAAEBAwABAAAA/wIBAAH/AAABAf8AAf/+AP3+/AAB/wEAAAAAAAEBAQAB/wAAAAD+AP8BAAABAQAA//4AAAH//wAFAgMA/v7/AAMCAwD9//8AAgIAAAAA/QD/AQIAAf8BAAEA/gACAgIA/v//AAAAAAAEAQEAAP8A/wD/AwAA/f/+AP8B/wAA/f4AAQICAP/9/wACAgMAAAEAAAMCAgD//f0AAP8BAP8BAAAA//4AAgEBAP0A/gADAgEA/wABAP/+/wACAQEAAv8AAAACAQD//wAA////AAEBAAD9/vwAAgACAAECAQAB/gEAAQEBAP8A/gACAP4AAf/9AP7+/wACAwIAAAAAAAAAAAD//wEA/gD+AP///gABAP8A/v8AAAMDAwAB/gEA/gD9AAABAAAA/wAA/wD+H9WsxgAAIABJREFUAAH/AAAAAf8A/v77AAD9AgACAgQA/gD/AP//AQD/Af4A/f75AAEAAgAA//8A/P/9AAABAAD//wAAAf0BAAEBAgAFAAMA/wEAAAP//wAAAQAAAAIDAAL/AQADAwMA/QH+AAH+AAAAAgAA/wACAAEAAAADAAEAAwEFAP7//gABAAMAFwwgACIbGwAFAfcACAH7APPt6gD79/cA7fn6AP8B8gAEAP8AEBAIAPLu/wD5+PcAGiAfAAkQDAAKChcABAULAAEBAgABAf4A/v38APn68gCim58ArqKTAP/8+AAkJR4AMzswAC0xLgAODxIAKCYeANzV4ABeFBIA7/f6APgMCAALCQMA9vD5AO34/AD1+PAADQcEAAgH6QD89PoAAf/5ABAJCgD1+vcA6CchABX2+ADw3ecACBINANrs8QAf7/4AEwwEAPHl7AAb+fkACgsKAPnx7wADCgkAAvn8APv18wAaGDIA3+PiAPv5AQAGBgUADQEEAAkLEwD6+/YAERITAOHi5AACBAYADA8TAPj79QAdHBIAERMKAPHq2gDt8tsACxAHABgWGgD/AP8A9vjeAPb3/AD9//sAAQQAAAABAQAEAgUA/gD/AAACAAD/AAIAAgL/AAEAAAAA/gAAAQEFAP4A/QACAwAAAQEAAP0A/gACAQEA/gH/AAEBBQD+//4AAQH/AP3//gACAgAA/wAAAAD/AQD/AQEA/v//AAQBAQAAAP4A//8AAPsAAAABAf8AAf/9AP/+/QACAwMA+/39AAL//wACAAIA/gAAAAABAQD//wEAAAABAP8AAAD/AP8AAAEBAAD+AAACAQAAAAEAAP8BAwAB/v4AAwIBAAIAAwAA/wAAAAAAAAAAAAAE/wL/AAH/AgD9/v4A////AP///wAAAAAAAAEAAAECAQABAP4AAgABAAD//wABAQEA///9AAD/AgABBAMA/v/+AAAAAQD9//8A/gAAAAAC/gD+//4AAwEAAP7+/wD/AAAA/v/+AAIBAQAAAAAA/wIAAAABAAAAAwEAAAABAAEAAwD+AQMAAgABAAIBAgD/AAEAAAEAAAIA/wD9//4A/wH/AP///QADAAIAAgEAAP7+/gAB//8AAAH+APz+/QABAAQA/wD+AAAA/wAA/v8AAwIDAP/+/QD+//oA/wACAAAAAQD///4AAgAAAAAA/QD+Af8AAQABAP///wACAQIA/gH/AP//AAD8AQAAAwEDAP8AAAABAQAA/wEAAAECAgACAAIA/f/+AAICAgAC/wAAAgIEAP3+/QAAAv8AAQABAAAA/wAB/AIAKx8nABsVEwAKChAA8fXpAODl4wD/+gEA8PDrAAsICAAJA/sA/gUPAAoQEwASFBEABAIDAPr07wD9+PMABgoPAP4A/gAFBQoA+/39AL21uwCfnKsA9Pf5AAEBAgDn1OIAxNPlAP77rAAJBAIABwUKAEkODwA0BwIAFhsUAAQC/gD95e8ACA0GAA39+wAIDQ8AsOHlAFsUDgDX+PsAFxoTAPTt7gAaAAUAGOjkAAL6BAAXAPwACAT7ABAiHgAA8+wA7f4AAPPz9wASAwIA1+vvACYHAgAA/v8A8/0DAAMKCQD19fEAFRYYAPv6+wD+7u8A+Pr9AAYKCQAC9/8A+vn6ABkYFwDv8O8A+fj6AA4REQAQEgsAAgn3AB4WGgDz//IA+gH6APz+/AD//gAAAwP8AAD9/AABAgIA////AP8A/wABA/8AAP3+AAEBAAABAf8A//8AAAD/AQADAgMA/QD9AAIBAgD9//4ABAEDAAIAAQABAQEAAP//AAD+/gABAwEAA///AAIBAQD9/wAAAgAAAP7+/gD+AgEA/v//AAEAAQD+Af8A//4AAAACAAAD/wAA/v38AAEBAAD9/v8A/wD/AP8A/AD+/wIAAQEDAP//AAAAAAEAAQEBAAACAwD//PoAAQEBAAEDAgAAAP4AAAAAAAMAAgD+AP4AAQIAAAH/AgAAAQAAAQEBAAAAAAAEAgL/AAL//wD/AAAAAP8BAAD9/wAEAQAA/v4AAAEAAwABAQAAAQAAAAAAAAACAwIA/wD/AAD+AAABAQAAAAECAP///wAC/wMA/f/7AAAB/wAAAAEA/QD9AAEBAgAC//0AAQICAP///wADAQMA/gD/AAIAAAACAQEA/wAAAAICBQAAAAIAAAH/AAAB/gAAAQMAAf4AAP8AAQACAgEA/f79AAIBBAAA//8AAAD/AAIDAgD9/f0AAP8BAAQDBwD+/v8A///+AAAA/wADAQIA/v7+AAEBAwD+//0AAAD/AAEB/gABAf8A/wAAAP7+/gAA//4AAQEDAAD/AAAC/gAAAgIBAAACAQABAAAAAwABAAAAAQAEAQEAAQEEAAABAwD/AP0ABQH/AP8A/wAAAAEA//79AAMCAgAAAAAAAgADAP8AAgAPBhQAEAsKAP8C9QDn7esA4OfhAMzXywD97u4AEQoKAAYHCAAPDhEA5PHkAPj79wD69gAA6N/2APPw7QABAAYACAoPAAoJAQARGhoACw8UAPbz9gAZGRUA2d3iAP/9/QACAAQAAwP+APr/AQAA+wEACPv5AEwVDgD//QIAzt/rAAsSCwAsDw4A/vH2AO8CCAAW8O8ASg0LAOHo6wD0+gEAIub4APYXHgDK9/AABPT9ACcNBwDpHhwAFu/xAPbp7wD8Dg4A0N3jADUOBgDO6/MANgwDAO0EAQAECAgA+Pr5AP789wAVDAcA9wQIAO3p8AAJBwAABQoMAAMDBAD5+/gABggIAOzr7gD+/AEADA4QAPXz+wD0+fUACA34AP769QABAgIABAQDAP0C/wADAQAA/v8BAAADBAAA/v8AAAAAAAEA/wD/AAMAAgIDAP///gAA//4AAAD8AAAAAgD+AQIA/QECAAD/AAABAwIA/v8BAAIB/wD///4AAwIBAAD//QD+AQAAAQECAP7+AAABAP8AAgABAAMBAAD9/v4AAAIAAP4A/QD+//4AAv4AAAAAAQD9/wEABAAFAAAA/QAA/wEABAEFAPz//gABAQAABAACAAEBAQD+AP8A//8AAAD++wACAgIA/wEBAAEA/gAE/wEA/P8BAP///wADBAQA/f3+AAEAAQABAQMA//8AAAAAAAAEAQD/AP4A+wACAQEA+/39AAICAgD9/v4A/wEAAAP/AQAAAQAAAAH+AAIBAgD/AAAAAgEFAAADAAAAAf4AAP/+AAABBQABAP4AAf8EAP8A/QD+AAIAAAAEAP///QABAf8A/wH/AP/+/wD//v8AAQMEAP3+/QABAgQAAgH/AAIA/gACAgIA/wADAAICAQD9/v8AAgEBAP7//wABAAIABAIEAP///gD9AP4AAAECAAD//QABAf4ABAACAPr9/QAAAQEAAgADAP4A/AD/AQAAAAEBAP4AAQAAAP8A/v79AAECAAAB/wEA/gEAAAABAgAB/wEA/f7/AAEBAQD+AQAA/wH/AAMAAQABAQAAAAL/AAIBAgACAQQAAgECAAAB/wD8/wAAAgEFAAMAAwAAAv8AAQAAAAP/AQD/AAMA/wABAAH+AgAQDBYA9fXzAPb69wDl7+wA1uDIAAQY/wABFg4A9f8BAPL8+ADwBOwAAgQDAPwBAgDdyOsAybnYAAgIAgAHBQUA+/3hAPb29gD/AQMAAQEFAPz6+gD6+fcABQQDAPf7/AAF/wAABv4EAAIBAgD+/P8AdxoQAP78+gDwBQYAJRANAA8H/QDt5+0AAQMFABT++wDa9fgAEgsJAAUCAgAiFhAA9/X0ABDv7gANAf0ABwICAAILBQD33eIABAb/APz7/gDx3+4ASg4LAL3s6gAkCgoAvfT2ACoHAAAO//YA9w4IAAsXDwDi5OMAFh8iABEQDAAE+vwA9PwAAO7v8wD18vUA8fDyAAYHCgALEhAA7u/0ABQZGAAOCQIAAQPuAAMG/wD9/vsA/gD8AAABAQAA//0AAAABAAICAgABAf0A/P/+AAD/AgAA/wEA/wH/AAEAAAAAAQEAAv8GAPv8+wABAv4AAgH/AAEBAQD/APwAAQEEAAAB/QABAAQA/QH/AAIAAAD///4A/QEAAP8BAQD9Af8A/f3/AAICAgABAAMA//79AP8C/QAD/gEAAQEDAP/+AAD/AAAA+//9AAIAAAACAAIAAP/9AAEAAQD//wIA/wEBAAD/AAACAgAA/gEAAAMAAwD+Af8AAP8AAAQAAgD/AP0AAgEAAP0AAAAAAAAAAgICAP8A/wAAAP8AAwEBAAAAAAAC/v7+AP///AD///wAAwMDAP4B/wABAwQAAQEBAP8A/wABAAAAAwEDAAMDBAAAAf8AAQL/AAECAAAC/wEAAgECAP4B/wD/AQAAAAMAAAECBgD/AAEAAQH/AAIC/wABAAAAAwABAAMBAgADAwMAAgAAAAQDAwABAf8AAQABAAACAwACAgIABAMCAAEBAgAFAQEAAQH9AAACAQAAAf8AAQH/AAEA/wADAgMAAgEBAAH/AQABAAAA/QD9AAIC/wABAPwAAgEAAAMBAwABAP8AAwMCAAIA/gABAgEAAgADAAEBAQAAAAAAAgABAAEAAAABAQAABQMAAAIB/wD7AP4A/QH8AAAB/QAB/wEAAAAAAP8B/gAAAf8AAAD/AAAB/wADAgQAAwEDAAEAAwACAAQAAQACAP8BAQD+AP8A/wAAAAMBBgD9+gwA9P0RAN7t8ADR4skA/Af6APf/9gD9Av0A/gP+AAAHAwD+BgQA+wL+AP4DAQAE9fsACwH/APH2+ADp8PQA7vT4AP0BBAD8/f4A9Pf1APf6+AD+AQEA/AACAAECAwD8/v8A+Pv9APv9/QANAAAACP4AABoICAAD9/gACPz+APz8AAAUBgYACf8AAAAJCAAeDA0A9QECAOD3/wDw8fQAv/L8AP///gC56/QA5P/6AMfO2gAV9vcAzOvwABAHAwAgCAMA4wMAAOMEBwAQBwAAAgQMABEHAwADAQEA8QMHAODi7gABBwYA8/LzAPD18QD+AgUABgUCAAoIAwAJCAYADAsLAPv7+wD2/PsADhMUAAMEAQDv7PoABwILAP/9AQABAwQABwIJAAH/AgAAAgIAAAAAAP8A/gD+AP4A/wD/AAEBAwACAgEAAAD9AAAB/gD+/v8AAQACAAQCAwADAQAAAgECAAAAAAAB/wQAAQH/AAH/AAAAAf8AAQAAAAECAgAEAwMAAAAAAAH//wAE/wIABQIDAAEA/wD+APwABgICAAP+AgAAAAEAAP8AAAIABAAB/gAAAAEBAAECAAABAQAA/v8AAAEAAgABAQEA/f//AP8A/gD+//4AAQEAAAIBAQACAf8AAgIAAP8BAwD+AQEAAQIBAAEAAAAAAf4AAgMBAAAB/wAAA/4AAAP/AAAAAAAEAQD/AP8AAQAAAAIABAEDAP8B/QD//gEABAECAP0B/wAAAQEAAAEBAP7//gACAwIAAP7/AAMBAQABAwIA///+AAX/AAADAwAA/v8CAP0A/wAFBQAA/f37AP8AAAD/AQEAAf8BAAEB/gAB/wEAAwIBAP//AAACAQQAAQEAAAEDAwD9AAEAAv//AAAAAQAAAwIAAP/+AAIBAgAB/gAAAQH+AAADAgD9/v4AAQD+AAACAAD8//8A/v7/AP8AAAAAAv8AAAD9AP///QAAAAAA/wD7AAEA/wAAAAAAAwIDAP4AAAABAf4A/gD+AAIBAgAAAf8A/v/+AAICAAAF/gAAAf8EAAMAAQACAwAAAAD/AAIBAwD/AQEAAAICAAICAAAB/wMAAgEBAAEAAgACAAAAAQEAAP8AAQACA/8A/wD+AAEBBAATHR0A5/bmAN3jxAAABfsA/f79AAECBAD+AAIAAQH/AAQAAgD/APoAAQEBAAf/CAAC6/IAE/8AAPH9/wD7/wAA/P77APz+/QD/AAEA/gD/AP7+/wAB/wAA/f77AAYDAwD5+/sABwkLAPf1+gAnDwsAHQgDAO74+wAJ+/8A2vX0ACH6BQAFAQAA6QQBAAYB+ADn/foAJAgMABb8/AD+/P0APw0GAAT49wBECgQADfn8AP4LCgAXEwsA4ub8APj39wCx7fUAKQr8AC/6/ADx9P8ALQP+AAD7BQD9Bf0AuvPzAAwXEgDp5eYABg71ABYZFAAUFA0A9PX5AP/7/AAJCQwA6+zvAAYICQDx9PkAAAH6AAQFBgD7+fwA+/YIAP4G+gD/AAAAAAMEAAUBBAD7APwAAAIBAP7+AAABAAQABAD9AAAB/QD+//4AAAEAAAAAAgAAAf4A/gD9AAAB/wAAAf4A/wAAAAMCAgABAgYAAQH6AP7/BAD+AAAAAwH/AP8AAAAC/gEAAf8BAAECAgD9AP0AAwAAAP/9/AABAAAA////AAD//gAAAQAA/v/+AAD+/gAAAwQAAv7/AAAAAgD9AP4AAAEAAAD+/wAAAQAA/wD+AAIBAgAAAAAAAQABAP0A/gD/AP8AAQEAAAD//QACAgEA/v79AAQDBQD+AP0AAAAAAAMDAwABAQEA/wABAAAAAAAC//8AAAEBAwACAQEA////AAMCBQABAQAA/v8BAAICAQABAwIAAAIBAAACAQAE/wEABQECAAT//wAB//8AAQECAAQBAgAB/wIAAQADAAIDAgAA/wAABAECAAEA/wABAgEAAQQAAAACAQABAwQAAAMCAAADAgD/AQEAAQIBAP///wACAf0AAAEAAAMBAgAC/gIAAAEFAAEAAAAAAP4A/wEAAP3/+wACAf8AAAD7AP4A/AABAAIAAgICAAEBAAAAAP8AAP/+AAECAgABAQEAAgEBAAQDAgAEAQIA/wH9AAIBAQADAAIAAgAAAAAC/gADAgIAAAIBAAAAAQAGAgMABAEDAAIBAwAAAAEAAwECAAIA/wACAQIAAAABAAEAAAACAP8A///9AAAB/QD+AQAA/wEBAAAAAAD///4AAwABAP3+8gDQ268A3ea+AAIG/AD+//0AAAABAAD+/AAAAP0AAwABAAABAAABAQIAAf4AAAYACAAE7vkADwMCAAL/AAD//wAAAAEBAP8AAgABAQIA//3/AAH/AAAA//8A/v//AAMAAAADAwIA9/n5ACcRCwBvGA8AGQcEAN33+AAKBQQAJQ8NAAsF/wD+/vsAF/7/APYICwDl+wAA3/77AMT/AAD9CgcAwfH1APgKBQDZ9/kA8QMGAPwA+wDw6vIAHv/9ABMAAABTEQ8AKw4GAK74/AD9DA0A0fr9AA0HBQD4DAoA7gwIAODo7QAJCg0AHB8cAAYDBAD29O8A9fTwAPT18wDz9fUA/f/+AAIA/gAmIx8AFhURAAIAAQAQDwsA/gL4AAcGCwAEBQMA/P/5AP3+/AD//wAAAP8AAAMCAgABAP8AAgIDAAAAAwABAQYABAMEAAABAwAAAP8A/gD9AP8BAgD/AAMAAAAAAP8AAQAB//0A//7/AAACAQADAgEAAQECAAEBAAD/Af8AAgEBAAIAAQAD/wEA/f7+AAICAwADAQIAAP8BAP4A/wD+//8AAP7+AAAB/gACAP8AAQABAAEAAQABAAEAAwEDAAAAAAAB//wAAwD+AP7/AAAA/wEA//8AAAAC/wAAAf8A/wEAAP8C/gACAgIAAgQDAAABAAAA/wEAAgECAAIBAgAA//8AAgAAAAAAAAACAAIBAP8A/wD/AAAA/gH/AP3/AQABAQEAAgIBAAIDAwABAQEAAf8BAAIBAwAAAQEAAAECAP8CAAD/Af4AAAD+AAECAAD+//8AAAH+AAH+/gABAAUA/gECAP8CAgD+/v4A////AAEB/wACAgAA/wAAAAQDAwADAwAA//8AAAMBAwAB/v8AAwACAAP//wAB//4A//7/AAEAAgABAAEA/gD+AAEBAgD+AAEAAQABAP/9/QAAAPwA///7AAEA/QAA//wA/gD/AAAA/wACAf8AAAIAAAACAQD/AQAA/wEAAP8A/wD8/wAA/wACAP//AgD8//8AAgACAAIBAAAAAQAAAAIAAP8AAAD+/wEA/v4AAAH/AgAA/wEAAQADAP//AgADAAIAAAABAP8CAwABAQIA/QD8AAAC/QACAP4A///+AAABAQACBP8AAAH+AP7//wABAQIA/wEBAP8AAQABAAAAAAD/AAAAAAAAAAAAAAEBAPfk7QAN9v8AAPr8AAMDAgABAQEAAQAAAP///wD/AP8AAQEBAP7+/gABAgIAAP//AP8A/wD+/f4AAgABAP7+/gABBgMABvT1AFQXEAAdBP8A2AoGAL7n8gAFAwQABgkFABT4+gBFFA4AE/3+ACAHCAAC/fwAPRUOAAr+/wAsFRMAEhYTANoAAgDxCgkAmPP2AOgPDAB56+sAxe31AGwTDgD48vEARxEMAAMBAQDl/fsA5Pb4ABwZGAAODggA+PDrAPv29QACAQQAAQQFABUYGAALCwgABgUEAAYHBQD8/vwABgYNAPb2/wDm5O0AEBESAPgA9wD7/vwA/wEAAP0B/wD/AQEAAAEBAAABAAAAAgAA/gEBAP4AAgAAAAIA/gD+AP8A/QD/AP8A/gL/AP0B/wAA/wIAAv4EAAD/AQAAAPwAAQIBAAEA/wD///sA/gD+AP4A/wD+AP8A/wEBAPwB/AD/AAAA/wAAAP3+AAD+/wEAAAIBAP8A/gD/AP8AAQICAAAA/wD+/vwAAgABAAAA/wABAAEA////AAECAAACAwMA//8CAAEAAAD/AQEA/wIAAAEBAwADAQMAAwECAAMBAwAA/gEA//39AAED/gABAgAA/wD+AAICAQABAgIA////AAAAAAAE////AAEBAgD//wEAAAEBAAEBAQAEAQIAAP7+AP7//wD/AgEA/gEAAAL+/wABAQAAAAEAAP0A/wACAgEAAf//AP7//AAAAgMAAAD/AAIBAQAD/wIA+wABAP8BAgAAAwAA///+AAICAgACAP8AAAD/AAH//wAA/wUAAAEBAAD//wABAAMA//79AP0C/wD/AAEAAQEAAP3++wADAf4AAwABAP//AAAAAP8A/wD/AAECAAD///wAAQD/AP7//wAAAf4AAQD/AP7+/AADAQAAAAIAAAD+BgD/AP4ABAIAAP3++wACAwQAAAD/AP7/AgAAAv0AAP4BAAIBAwD+/wIA////AAEA/wAAAQEAAAABAAABAwD+//0AAwECAAH/AAD/Af4AAQECAP//AAAAAP8AAAD/AP4AAAACAQEA/f79AAEAAgD+//4A/wAAAP///wABAP4AAP/+AP8BAAADAAIA/P//AAUBAQD//v4ABQIFAPfe5wAK9foA+v77AP8DBwACAv4AAP4AAAAEAAAA/wAAAQH/AAICAgADAgIAAQAAAPv9/gD/AAEABQH+AAgECgAKAwsA+AP6AN31+AAJBgMAMO3xAPoTDgDQ9PoALwYBAPcHBAD89foAA/8AABYMAADl+AMAI/v8AO39/AATEAYA+e7wAEABBQD97vEAWQoKAAPg6QByDg0A9P/+AM35+gD/+gEAAfwBACEC/ADE9AEADCopAPH//ADw5ewABwUAAAACAwAL8/cACAwMAP3+AAAMDAgA9PT2ABMZGgD7/AEA7vD4APb3/wDv7fEA+vIYAP4I/AACAwEA/v7/AAEA/wD+//4AAP//AP7/AAAB/wEA/wD/AP8B/wD//v4A/wH/AAH//QD/AQAAAf3+AAIBAgABAwEA/v8AAAUBAAAAAf8AAQAAAAH+/wACAQEAAP8BAAAABQAAAPsAAP/8AAAAAwD/AP8AAQAAAAICAwD9/f4A/v8AAAAAAQABAQMA/v8BAAMCAwAA/gAA/v//AAEBAAD///4AAQABAAEAAAD//gAAAwMEAP/+/gABAQAAAQACAAIBAQD///4AAP8AAAAA/gD/AQEAAwIFAP7/AQACAgEAAAD/AP8A/wAAAv8AAAAAAAAAAAACAgAAAAIAAQAAAAAAAgABAAMAAAAA//8AAAEBAAMCAQAC/gEAA/4AAAP/AAD+/f4A///+AAAAAQD//QAAAP/+AAAB/wAA//4A/gACAP3//wD9Af0A/wD/AAIAAQAB/v8AAf8AAAIAAQD/AP8AAv8AAP//AAAAAP0AAAD+AP8A/gD//wAA/v//AP79AAACAAEABf8DAAD//gABAAAAAgAAAAMAAgABAAAA/gABAAECBgABAQEAAQECAP8AAQAA/wEAAwD+AAIA/wAAAQAA/v3+AP3+/gABAAEA/wABAAIBAwABAQAA/wD/AAQBAQAA/wEAAgMEAAAA/gABAQAAAQEBAAEBAgAA/wAA////AP7//gAAAP8A//78AP8A/gD7APsA/gD/AAD//wAA//0AAgD+AAEA/wD9//4A/wAAAP7//gABAf4A/wH9AAEA/wAAAP4AAP/5AAAA/AD///0AAQH/AAD//gABAP8AAwEBAPzy+AADAQEACwQDAPj7+gACAwIAAgICAAQEAwAAAQEAAgICAAMDAgD+//8AAAAAAP8AAAADAQMABgMGAFIfFQATBv4ADw8LACUNBwAjDg0A9ggDAAoIBgAeGQ8A8ggEAOkNCgD+BgAAvvP0AA3/AwCv5+8A9QsFALb3/ADc/wQAuevwALr09gD5CQIAEgcDAIPx8wDxAwAA9wECABQGAQBFDwcAJwsIAP0EBQDxDw8A297iAO/u8wD4/f4A8fb8AObo7gDi4ecA5ebnAPHy8wDx9voAERcbAP7+BgD9/AQACQULAAgJEQD7/AsA+PT/AP3//gD+//4AAP//AAH//wACAAEAAQEBAP8AAQACAQIAAwABAAMAAQABAf8AAP//AAEA/wABAQEAAQIAAAMB/wADAP0AAwH/AP4B/wD+AQEA/QD/AP4DAQD/AQMAAQEBAAAB/wAAAQMAAAEEAAIBAQADAgIABAICAAH/AAADAf8AAgH+AAIAAQAA//8AAADFEHAzAAAgAElEQVT/AP7+/QAAAQIAAAD/AAIBAAADAgMA//8AAAIAAQABAAAA/v79AP8A/wD/AP8AAP/+AP///AD/AP8A/v/+AP4C/wD/Af8A////AAEA/wABAP0AAgL+AP8A/AAB//8AAgEAAAAAAAACAAABAP3+/QAAAf4AAAD+AAABBAAAAgIAAAEBAAMA/wADAAIAAgAAAAMBAgD+AAEA/f/+AP///wD9//4A/QEAAP3+AQD//v8A//7+AP7//wAAAP0AAgEBAP3//gABAQEA//8AAP7+AAACAAIA/wH9AAAB/wABAvwA/wD7AP4A/gD/AP8A/wIAAAMCAgD/AP8A/gD+AAABAAD+/v4AAgD/AP8B/QD/AQAAAAAAAP7++wD///8A/f/9AP3//QD9//8A/v/+AAEB/gD9/v0AAAEBAAEB/QD+AfsA//8AAAAAAgAAAAIAAwMGAP8BAAAAAf4AAQAAAAD/AgAB//8AAwD/AP///QACAP8A/wD+AP7+/AAA//8A/v0AAAD/AQD/AQYA/gD/AAL//wD//wAA/v4AAAD+/wAC/v4AAP79AP7//QD9APwA//79AP7//gD8AAAA/gACAAP/BgD///8A/v/9APz/+gD+APwA+//5ABMeFQAF//wAFgQAAAgCAwD+/f0AAgECAAIAAgAFBAMAAwMDAAIDAgACAwIAAgMCAAIBAgADAf8A+/78ACAHDAAQFAUABgL9ABQDAwDX7/UA6Ov0APoC/wAJ7vQADQQBACwCBgAD+P4ASRIPAPr1+wB1FAoA9+/1AC0DAgAi/fkAPBsaADgQCgCQ6fQA0///AGQRDQAH+/wA+Pj7AAj4/AD8AAAA9PP0ALn7/gC76O8AAgQFAPf/BAD7AQYA6/P6APsGDAD1AAUA7vP6APX4AQD+/wcAAQMIAOXm7QADAw0A//4NAAUGDwD48fUA9O37AAL+CQD//f4AAAD+AP8A/wAB/wAAAf8BAAIAAAD+//8A/gD9AP///QD/AP4AAf4BAP8AAQACAAAAAQEDAP4B/wAAAf4AAQAAAAIA/wAD/wEAAgEFAAIAAwD/AAAA/gD8AP3//gAA/wAABAIDAAEAAQD+//8A/v7/AAABAAAAAAMAAf8AAAMAAwAC/wAAAgACAAEBBAD//v4AAQEAAP3//wD+/wAAAQACAAD/AQAAAQIAAf8BAAEBAQACAQEA/wD9AAECAAABAAEAAwIAAAH//gABAf0AAgT/AAECAAACAwAAAQACAAEB/wABAgEA/wABAAAAAAACAAEBAAEBAQD//v8AAP4BAAD9+wD//f0AAAD/AP8ABAD9AAEA/P8AAPz//wACAQMAAv8BAAL/AQAAAP4A+/z6AAIB/wD/AP4AAQL/AP8A/gD///4A//3/AAD/AAD9//8AAgMEAAECAQD/AAAAAAAEAAUBAwAB/wIAAwIAAAIA/gAEAf0AAwD+AAEB/QAAAP8A/wEAAAEA/gD/Af4A+wD+AP0B/wAA//4AAv/9AP8A+wD+//0A/gD/AAEBAAABAP8AAP/9AP///QAAAf8A///+AP8A/QD8//wA///9AP7//AD9//kA/P74AP7/+AABAP8A///8AAAA/wABAQAAAAD/AAAA/gD//vwAAAD/AP/+/wD+//0A/P/8AP///wAB/QIAAf8BAAD//QABAP0AAAD+AP3+/wD8/f8AAAABAAH/AgAA/QAAAP8AAP0A+wD+/vwAAP8BAPz//QD8//0A/f7+AP//AAD//wAAAQAAAPb19gAEEAcAFgwLABoIAgABAgMAAgEAAAMBAQACAAAA/v79AAAAAQABAQEAAgICAP4AAAD/AQAAEwkHAAsG/QD4+gMA/QgGAO38/QA4FgsAIxELAP8GBgDW8/cA9gIAAPLt6wANA/0A/vn4AO8GAgCP6vUAHAMBAMn1+ADi8fkA+OLjAAsA/wBzGxQAHgUHAAMDBwDA+PwAIhIJANj8AAD1AP8AERIMAL3z+QD1CgkA+QEEAO7z+ADh4+sA9/4BAPf9BwACDxYADh4qAPwIGADs6vwA3dTkAPPs+wD09AUA9wAJAPsDCAAEChIA9Pr8AAsIDAABAv4AAAD+AAH/AAD//wAAAQACAAD/AwAAAAIAAAACAAEA/wAAAgIA/wD9AAAAAAABAQEA////AP8AAAD9/wAA/gAAAAAAAAAAAQAA/wD/AP/+/gAA/wEAAAEBAAECAAABAQIA/P79AAH//QADAAIAAv8DAAD/AgABAAYAAAAGAAABAgD/AAEAAAAAAAEAAQACAgEA//8BAP8AAAD+/v4AAQEBAP4BAAAAAP4AAQL+AAAB/QAAAAAAAwIDAAD/AQACAgAAAAH/AAQBBAACAQQA/f8AAP8A/QAAAQEA/wD/AAIBBgD+/v8AAQEAAAAAAAAC//4BAAD9AAAB/wIA/f7/AP3//gD//wIA/v4BAPv+/wD/AP4AAP7+AP/+/AD+//4A/v3+AP79/QAA/v4AAwABAP3+/QD/AP4A/vz8AP///gD8//wAAAH/AAD+/wAA/v4A/f39AP7/AAD/AAIAAP8CAPz//wD+/wEAAQABAP///gAAAAEAAAACAPr++wD9AP0A+f35AP7+/wD+//8A//3+AAL+AAAB/wAA/wEBAAABAAAAAQAABQEBAAEA/AD/AP4A/wACAP7/AQD/APwAAgD9AP3+/QAEAv8A/wD9AAEBAQABAAAAAwABAAH//wD/AAEA/v/9AP8B/QD9/v0A////AP//AAD///0A/v38APz9/QD7/P0A/f78APn++gD9/vcAAP78AP4A/QD7//4A/QD+AP8A/QAAAf0A/v/8AAAA+wAB/wEA//4BAAMA/gD///sA/QD+AP4A/gAAAfwAAQD8AAEB/wABAAEA/vz+AAkZEAAK9/0ABv3/ABUGBAD++vkAAAICAAEBAQABAAEABQQEAAMBAgAA/wAAAwICAAYEBAACAQQA////AA/6+gAE9vkA9vn+AAQKDQD7+v0A8vr+AAP6+AAtEg8A/AcCAND2+QD3BAQAwPj+AAn8/QBdFg8A7/cAAFoREgCU6fAA8gMGAP36/gAGA/4ArevrAML09ABEBgYA9vX7AEAJAwAWBwQA6vr+AN8CBgAIEhsA+g0ZABQxPgAKKzYABxQfAAolLQAnNz8ACxcmABETJAD59AsAGhgqAPn4CADo6/MA+fz+APbw9QAgJS4A2tzlAAEABgD+/wAAAf8AAP//AQABAf8A//79AAEAAAAA//8A/wD/AP8BAAACAPwA/gD+AP0BAQD7APsAAQH9AAQBAgAC/wAABAICAAEBAgD//wQAAAAAAAAA/wABAQMAAP8CAP0AAAD+AAAAAv8DAP8BAgD/AP8AAAMDAAABBQAAAP8ABAIEAAEA/gAEAgUAAv4BAAD//QD/AAAAAQH/AAMA/gADAf8AAP/+AAABAQABAP8AAAD+AAIAAgAA//8AAAH+AAAB/wAAAAAAAQABAPz+/QABAAEAAv4BAAEAAgD//wEAAP/+AAEBAQABAQAAAAEAAAAAAAAEAQABAP8AAgAA/v8A/gD+AAIAAgAA//8A/wIAAAAA/wD9//8ABQMDAP///wD+/v0AAf//AAD/AAD/AwEA/v7/AAIAAQAAAQAA/QEAAP/+/gAA//4A/f/+AAAAAAACAAIA/wAAAAD//gD///8AAgECAP4A/gD//wIA/vz+AAD//QD6Af8AAQEEAP0A/gAB//8AAQABAP0AAAAEAAAA/P78AAEB/wAAAfoA//4EAAD+/gD/Af4A+wD8AAIBAgD///wA+//6AAEBBQD+/QAAAgH+AAD/AAD9/f8AAgECAAEAAQD/AP8A/v78AP///gD+//wAAv8BAP//AAD+/v4AAQECAAH//QD+/v4AAQIDAP8A/QD///0A/v0FAP4A+QABAgYAAf/9AP4DAAABAAIAAwACAPr+9gACAgQA/gAEAAL//AAA//8A/QECAAL//QAAAAAA/gD+AP8A/wAFAAUA/gH8AP8B/wD+APoAAgEDAPsGBQD3+wIAAQT/ACMMBgDT7vYA+f39AP0B/wAB/v4A9vf4AAQEBAAAAP8A/QH/AAIAAAADBAMA8fr9APQLCwAFCQIACe3wAAQTCgD//AwA6ufoAAkLDQDm8+4AG/D/AEEcFQD25O8AMBQJAAwGCwC67/AAMP4AACcIBgBzHBMA9QD/AKHs9AA2+/oAaxQQAAP//QDfAAIA4fv7ACcDAwDk/PsAnPsEAPMWGAALHyYAESAiACMnKQDp5+cA//n5ACQtLgDq3+gAAv/1APLu+AAECQwA6Oz0ACQoKgDr7+8A7+bmABENEQD48/MABf0IAPvyAwD+CP4AAgIAAAAC/wD/AAEAAAMBAP/+/wABAf4AAQAEAAEA/QD+/wIAAQACAP7+/gADAAAAAAADAP8BAQAAAgIA/wH+AAL/AQADAQAA/f8AAP//AgABAf4A////AAMAAQD//gMA/wD7AP//AAAAAAEA/wAAAP4A/wADAwUA///8AP//AAAA//4A/wIBAAEA/gABAP0A/v7+AAAB/wAAAAAA/wD9AAL/BAAB/wIAAgEBAP3//gABBAUA/v76AAIBAgAAAAEA//8AAAMBAgAAAPwAAgIBAP4BAQABAP0A/wEAAAEB/gADAQEA/wACAAAAAAAC//75AAEA+wABAf8AAv/+AP/+/AD/AfwA/f7+AAD/AAAA/v4A/v4AAP39AAD+/gAA//4BAP7//wD9/PsA/v38AP/9/gD8+/4A//z/AP37/AD8/P0A//z9AP79/gD8/v0A/P38AP3+/gAB//8A+/7+AAD8+wD9//wA/P/+AAAAAgD/AAAA/f74AP/9/QAAAAAA/v78AP7+/AD+//4AAQEBAAEA/wD//wEAAAECAP8B/gAA//4AAP8AAP4A/wAAAQEAAQQCAP0A/gACAAIA/v7/AAEB/wABAAEAAf4AAPv//gAB//8AAgACAAAABAD+/AMAAP8FAP3+AAD9//0A///7AP3/AAD/AgQA/f7/AP3//QD9/v0A///9AP/8AQD+/vwA+//+APv+AAD8//wA+/36AAABBQAA/gEAAQD6AP4A+wD/APsA////APv9/QD9/fsA/v/6AP8B+wD7/v0AAQAEAAAA/gAAAAAA/wEBAAAPAgADGgcABgQCAAj5+QAfDgcA/f38AP/9/wD6/v0AAAIBAAAA/wD+/v8A+/r8AAAAAgD7/v4ADQgHAPn/AQD7AwMABSIZAP/09gAB+vIAGx8iAPj+AgDt/QAABg4EAP33+ADkBf8AHwUJAAEB/wAIAwcA7AgBAN769gARCAUAGw8MAE4XEwAgCgoAtfb3AK3u9wAZ/fsAQgoJAPYCAgDF/wQAvwUKAAsiJQADExsAAwkRAP/7CgAkGSoAEwgTAN7O2AAI/QUAEA0WAAYEAwD++egACwgJAPLq7gDs5OkAAfn+AP389ADy8OgA9u7sAPLv7wD//wEAAAEEAAD//gAC//8AAf/+AAEA/wABAf8AAAD/AP8BAQACAAEAAgADAAMBAwABAAMAAQAEAP0AAQD/AwAA////AP0AAAD9APsAAQABAAEA/wD//vwAAQEAAAH/AAD/Av4A/AEAAAIBAgAAAAEAAQABAAMA/QD//voAAAABAAECBQD/Af4AAAD8AP///QD+/v4A/wEDAP0AAwAAAAMAAf8DAP8AAQAAAAEA/wEAAAECAAAA//0AAgEBAAEAAAD//wIAAQECAP0B/wD9AP8A/gH/AAIBAAABAQAAAgEEAP7/AAD/AgEAAAL+AAAAAAAEAf8DAP7//gD+/v8AAAD/AP7+AAAAAf8AAf/9AP/+AAABAgEA+/z6AAEBAAD//v4AAAECAAH+AAD/AAEAAAEDAP//AQD+AfsA/v39AP///QD8/v8ABQMEAP///wAAAAEAAAD/AAL/AAD9//0A/wABAP4A/gAA/v8AAwMCAP4AAQD+AP8AAQD/AAIBAQD+/vwA/wD+AAMC/QAAAQYAAP/9AAAA/wD//wAAAgD9AAQAAAD9AQEA//4DAP7+/gD+AQEA/v7/AAH/AAD9/v8AAgIDAP/+/wAA/wAA/gAAAAQA/gAAAQAA+v79AP///gAAAgIA/P37AP7/AQAAAP0A/v//AP8AAQAAAAAA/v//AAEAAAD+/wIAAAD7AAICAgAA/QEAAP8AAP///wAA//4AAQQBAP7+AAD/AP8A/v0AAAACAQAA/QAAAAH7AAL//gD/AgEA/gABAAH/AQD9APsABf37AP8BAAABAQYA/gD/AAEM/wD1Af4AEgYCAAv8BgAcBwAA3/b6APP++wD//wAAAQICAAEBAgAGAwAA/f7+AP7+/gACAQEA/v4BAOn18wAJFA8AAO3sAP37AAD78fgA/Q39AAj//gAqEAwA8QUFAAT69QD7BQUAwvDzADYMCgBCB/4AAQIHANDz9gCa6vMAYRQRABwE/ADyBAQAQQ4JAOgC/QAJAgMACQAAAMAFBACcAQoAChoeAAwYHwAAAw0AFBMXAAD//wDw7fIA/AYFABQKEQAG+P4ABAUCAAcHBAAPDRUA9fHyABYWHAAUGBsA/wYEAN/f2wD6/PcA/QAAAPf6BAAPAQIAAf/9AAAA/wD/APwA//8AAAEBBgD+AAEA/wD9AAD+/gABAAAA/wAAAAD/AQABAgQA/v38AAEAAQAA/wEAAP8AAAECAQABAP8A/wD9AP8B/wAAAAIAAAAAAAD//wABAP0AAAEAAP///gACAgMAAP4AAAABAAD+//0A/wABAP7+/gAAAAEA/wABAAMBAwD9AP4AAAACAAIA/wAAAP4A/wECAAEAAAD/AP8AAQEBAAAAAgABAP4A/wD/AAAA/wAAAf8A/wABAAEAAAABAQIA///+AP8B/wAB/wEAAAEAAAEAAwAAAAAAAAH/AAAAAAAC/f4CAPz+AQD/AAEA/v7/AP//AQD+/v8AAf79AAD+/AD9/PsA/f79AP39/QAA/wEA/vz9AP/+/QAA//0AAP/9AP3//QD9/v4A/v7/APz8/gAAAAAA+fz7APz9/QD9/fwA//7/AP7+/QD7/v0AAQD/AAP+AwACAgEA/f/9AAAA+wD///kA/v/8AP7//QD9//0AAQL/AP4AAgD9AfoA/gP9AAD+/wADAf4A/wL+AP4CAQABAQEABQAAAAUCAgAEAAAABf8CAAAA/wD/Av8AAP7+AAD+/wD//wAAAgADAP0A/gD9/gEAAgAFAAIBBAD//P4AAQAAAP7/+wACAP0A/v79AAD+/wD//vsAAP/9AP39/AD//gEA/wAAAP3+/AD6/v4A+vz7APz++QD8Af0A+Pz6AP39/AD+/fwAAv7/APz7/QD7//4A/P78AP3//gD7/PwA/v/+AP79+wAB//sA/gH8AP4A/wD/AP8AAQD/AP39+gAJKhsAAQIDAAD+/AAQBAYAEgMBAAP+AQADAAIAAgAAAP8AAAACBAIAAAD/AP7+/QD//v4A9Pz1AMnx9gDv8vkA/xQWAAQYDgALKhoACwcBAOXv7gDzAAUA/w0NAMjs+wAnBgQAKhIQANvw9wACCgkA8/UAADsVDwBWFQsAEAYEAMH6AAC+7vMAAPb+AB78+gD/BP4A6gkIALgWGwAMLC4A/xseAAIEEAAZERUAEwAIAAf4/AD/+/kACPgIAAL8AgD69fMA8+7oAOLf7AAPFBsACA8PABkgHgDv9PYABQYEABUaHgANFBYA/P35AOLW4QAEBAUAAQH/AAECAQACAQQAAgIFAAAAAQAAAAMAAgIEAAIBAQAAAQIAAQEBAAEC/wD9/wAAAwQFAAQAAgAC/f8AAgIBAAEAAAAAAAEA/v78AAEA/gAA//4AAf7/AAAA/wABAAEAAv0AAAABAQD+/gEA//8CAP39AwAA/wQAAP0AAAIBAgAA/wIAAQADAAD/AQADAAEABAIBAAH//wD+//0AAAH+AAD//AABAv8AAQEAAAAAAAD+AQAAAAIBAAEAAgABAAAAAwIEAAIBAgD//wAAAgIDAAT/AgAAAgQAAQH+AAEA/QAB//4AAwEBAAAAAAAC/v//AAEAAQAA//4A//4BAAEAAAD//f0A//8BAP4AAQD//v8A/f39APz9+wD8/f0A/P/+APr//QD7/v4A+/3/APz+AAD+/QAA/Pz+AAEAAwD8/P4AAAAAAP/+/gAC/wAAAQD/AP39/gD//wAA/Pz7APz/+wD+/foAAgD+AP3+/AD+//8AAAAAAP0A/AABAv0A/gD9AAEB/gAB/v4AAP7/AAMBAwAD/wUAAf4AAAD//gD+AAAAAQICAAAA/gABAQEAAAAAAAQBAgAD/wAA///+AAABAAD/Af4AAAH+AAD/AgAAAQIAAAD/AAD//wAAAgIA+//+AAEABAD8/QAA//4AAAD/AQD//wEA//7+AAD//gD8//kA+/75AP7+/AD9/PoA/f/8AAD8+wAA/v0A/wAAAP3+/gD7//8A+/z8AAP/AQD//gAAAf8AAP8AAAABAAAAAP39AAEB/wD//v4A/wD+AP4AAAD+Af4A/QD7APb+9wD6IQUA8Pz8AAD+/wAMAwIAIg0MAAcCAAAB/vsAAv/+AP/9/QD7+/wA/v//AP///wADBAMA/QAFALvh6QDgBAoA8v8AAAP7/gAA9fwABfDyACExKAAHAwQADPz9AC8aEAD0+fsAFgD8AM75+AD17/UAv/HvAOv5/gAb/AAABff1ADUCAgA3BgQADwYBAAcJCAD9CgsAtjwzAOopIQAXJCQADwoVAAL3/QD79PcA0sfJAOfa3wDp3+MAA/n5APz29gDs8PAA9Pj4ACQoHwDt7fMABAIGAM3Q0gAICwgA7O3xAAsNBgDx8PMABAMDAOvn6wAGBgkA/wEDAP//AwD///4AAQD+AAMC/wAFAf8AAQD8AP8AAAAA//8AAgEDAP8CAwADAwEA/v78AAICAwAAAgQA/P//AP3+/QD+AP0AAAEBAP38AgD+AQIAAAD/AP7//gD+//0AAAH/AP7//QAA//4AAQD/AAEBAAABAQEAAAH/AP/+/gAAAAAAAQD/AAEB/gACAf0A//75AAEB/QADAQEAAP/9AAIB/gABAP4A/v7+AAAA/wAB//8A/v7+AAABAgD/AQAA/wD9AAH//gACAf8A/v/9AP8BAAD///0A////AAECAgAAAAEA//0BAAAAAAACAQEDAP//AQD+/AAAAQEBAP7+/gAAAAAAAAECAP79/gD/AAAA/v78AAAA/wD/AP4A/P78APz//QD9//0A+v36APv9/AD8/vwA/f/8AP39/QAAAAAAAP7/AAIBAAAAAgAA/f79AAAB/gD+//wAAAD7APv/+QD5//wA+/77APz++wD9//4A///8AP8A/gAAAf8AAAH/AAEAAAABAAIAAQACAP4A/wD9AQIAAAEAAAECAgACAAEAAAEBAAIBAgABAP8AAgECAAIAAQAC/gAAAgMCAP4BAAABAf8A/f/9AP8B/wD/AP0A/wD6AAEA/AAB/fwAA//+AP3++wD+//4A/gD/APv+/AD9/v4A/v/+AP//AAD+//0A/v/+AP8AAAAAAv0A/gD8AP7/AQD//f4AAf3+AAH8/gD//gEA/gD+AP/+/AAAAf8A////AAAAAAACAAEAAf8AAP79AgAAAQQA//8DAAH+/wABAP4AAP/+AAMBAgD+FgEAAS0LAAIDAwAF//sAFQcCAB4HBQAC/wAAAQABAAMC/wD9/v0A/f/+APz//gD8/PsA/v/+APkC/gCX094AvdzsAPf5/QD+CwgAAQUJAATt7AAMCQIAAvX0AAkF/wDm+wIA+QECAFsVCQD6DAUANxYOAAD+/QD7AQAA9v8AAPz8+AATAf4A/f4AAPoPCQCV/gMAt+0KAPLvAQDdwMUACP0GABULEwANAQcAMy0sAAwFBgAIBAAABQL9AOvj5AATEg4AIiIgAAH4+wAICAMADxQRABkYFQDx8ewACQwEAOnn6AAHCAUA9/f5AAsMFQD++/4AAf8AAAL//wABAQEA//8DAP8A/gD/AAAAAAD/AAECAwABAgEAAAD5AP8A/gAAAQAAAwIAAP///gABAAIAAQEDAAIBAwD9/gAAAP8BAAECAAD///0A/v8BAAMABQD//gEAAQABAAH/AgAAAP4AAP/+AP///gD+AP8A////AAICAwACAQMAAgAFAAEBAwAAAgIAAgEGAAMBAwAA//0ABAICAAAA/wD/AP8A/gD+AP3//AAB//4AAwICAP8A+wABAf8A/wD+AAEBAgABAf8AAgEBAP8BAQACAAAAAAH/AP7+/AAAAP4AAAD/AAAAAAAC/v/8AP3+/AAAAgAA/v/7AAAC/wD9AP8A+f35APz//AD8/v0AAQIBAAD/AAD///sAAAD9AAH9/wAD/gIAAf8BAP7+/AD+/v8AAQADAAAA/wAA/wAAAP8AAP7//wD8/v4A/AD+AP3+/AD+/voA+//8AAD//wAA/wIA+vz8AAABAQAA/wEA/gD+AAAA/wAA/f4AAP3/AP///gABAgEAAAMAAP4B+wACAfoAAwD+AAQAAgAHAAIABAD/AAMAAAAFAQMABAECAAEAAAADBAQAAgABAAUBAQAB/wEABgIGAAP//wAGAP8ABgABAAIBAQABAwIA/gH/AAMBAQAEAf8A/f/9AP7//QD+//0A/v7+AP///wD//P4A//wAAPz+/QD+/P4AAf3+AP7+/wD6/f0A+/79AP0A/wD9/v4A/P4BAPr+AAD8/fsA/v/9AP/8/QD8/P0A/gH/AP/+/QAA/v8A+//7AP///wD//f0A////AAMAAQD9AgUAAC0YAPYfCwD+/PoADwH+ACgPCgAdBQIADAL/AAH+/gAA/wAAAgAAAAAAAAD3/P0AJzkbAAoWBwC/5uwA/hQIAPwH/gD+9PEA/AkGAC6gHf4AACAASURBVP4BBAD3/fsAAg8IAAj19QAoFgsA8/v+AAkGBQANAwQA/vgDAAkIBgAPBgIABgD/AAQDBAAECwgA/QwKALEOGQDYP1oAESsxABEWLwAC+wQA9evqAPjx8gD49/oAz9DZAOHd3gDp4OQA1NDYAP3+BgADBAcA4NviAB4bGwDv7vgA8PL2APz7+gAMCQ4A5+noAPf29wAKEBAAAQMIABkcLwD8+QMA/v7+AAAAAQAB//8ABAD/AAAA/AD9Af4AAAEAAP4A/wABAAQABQQHAAUBAgAD/wEAAQEEAAEAAQADAP4ABP7/AAEA/QAAAP4A///9AP7//QAB/wAA/P79AP7//gABAQEA/v79AP8A/QD9//0A/wD+AAD/AQD+/f8AAAACAAEAAQACAAEAAgL/AAAA/wD/AAEA/wP/AP0B/gAAAwMA/P/9AP8C/gD+Af0AAAL/AAQEAwAAAQAAAgAAAAMAAQAA/wIAAAEBAP4A/gD//wEAAP8BAAH//gAAAQAAAAABAAECAQABAgIAAAICAAAAAAADM0gggP7+/wD//v8A//8AAP//AAAB/v8A//8AAAD/AAAAAQAAAP8AAAAA/wACAAMAAgAAAAAA/gACAAIA/f7+AP7//wAA//8A/v77AP8A/wAAAP8AAAEBAP8AAAACAAEAAwABAAEBAAD//wIAAv8AAAIBAwD+Af0AAgMCAP///wAA//8AAgL+AAEB/gAAAP4AAgIAAAAAAQABAgEAAf7/AAMBAQACAQIAAQECAAAA/wABAAAA/QD+AAECAgAAAAMA//8BAAIBAQACAAEAAQD+AAABAwACAgEAAwABAAABAQD+AQAAAQAAAP4AAwAB//oA/AD/APz//AD9AP0AAQABAP8A/gD/AP8A/f8AAP7//wACAQIAAQIAAAQAAAAB/wAAAQAAAAABAQD8//4A/gD/AAIAAgD//gEA/gAAAAMA/wD//wAA/gH+AP4A/gABAQAA/QL9AAEBAgABAP0ABAL/AAEBAQAA//8AAAEBAP8BAQAB//0A/woGAPjy+gAG5vsA/Pz9AP77/AAFBAMABAACAAQDAQD+/f0A/f//AAMCAgAVHxEARGUpAA4YCgDp5fMAKQUKAB0PEQAL/P0ABwkAAAEGCAAICAUA/gcGAOvx9wAG+v4A/Pr6AAX8/gAJAQEA+vr7AAsEAwDz8/UACgsKAPcFBgD+CwwAxR8rAJ4GEwDp3dsAA/r7AAcFDQDp3tsACwcPAAwOFQAKCg8AIiQiAAgGBQAB//0ADg8PACAgIAD++PsAEw4NAOjn6AAWFRYACAoDAO3z8wAABggA/AQDABESDgDx7+4AAwIEAPn8+QAOEvcACAz+AAAC/QAC/wIAAgAAAPsB/wAC/wEAAQL/AAIAAAABAQIA/wECAAAA/wAAAQAAAwAGAAEBAQAB//8A/wL+AP8A/gAA//4AAgABAAEAAAAAAP8AAQEBAAEBAQAA/v8AAAH/AP/+/wABAQIAAP7+AAAAAAAAAQEAAAADAP7//QABAQEA/gL+AP8A/gAAAQIAAAD+AAEA/wD/Af4AAf/+AAAAAQD/AP8AAQEBAAIA/QD+AP0A/gD/AAEB/wD//v4AAAAAAP///wACAgIAAwIDAAAA/wABAAIAAgECAP//AgADAQQAAP8BAMez14EE//7/AP///QABAQAA//7+AP8BAgACAQEAAfz9AAECAgD9/f4A/gAAAAICAgABAf8A//8AAAAA/wD+/vwAAAD/AAMCBAD8/vsA/wMCAP//AQAA//0AAQD/AAIBAgAAAAEA/v/+AP/+/AAAAgMA/wABAPv++wACBAIA/vz+AAAB/wABBP8A/wD/AP8AAQADAQIAAAD/AP/+/AABAgEAAAEBAAACAgD+AAAA//7+AAMCAgD9AP4AAgECAAL+AAD+AAEAAAICAP7+AQAEA/4A/P4AAAEBAAAB/wMAAAD/AAD/AgD//gAA/gH+AP/+/gABAAMABf79AAD/AQD+AQEA//4BAAEA/wAAAQAA/gEAAAIA/wAAAP4AAP4AAAACBQD+AQIAAf/9AAH9/QACAQMAAAIDAP7//wD+//0AAv8BAP0BAgABAf8AA/8DAPwB/QD///8AA/4CAAAAAAABAwEA/vwAAP8E/wD/AgAABP8BAP//AAAAAAAA+wL9AAcyGQDm1+sAEu0GAAYF+gAVAwIAAgICAAb4/QAOCgQA+PwBAPP9+wA1Ox8A/P3+ABUeCAA6TSEAmJ/VAPT/KwBWKhYAJfT4AAARDgAAAgYA/e/rAAsDBgD+B/wA+/4HAPwA/gD+/PsAFQkCAOn5+wAODw4A+QEEAOIB/wDHGygAyQsQAAf8AQAUGRsA5N7jAAz3/wAUGiUAISQuAAMECgAMCwwA+/X6AP38AgDv7fMAFRYGAOPg3wAC/vwACBkdAPj2/AD8/vcABAYAABQYFwAHDxMABgX/ANPRzAD99gEACw8ZAPTz5ADz7/UACxcBAAEAAQD+AP4A/gEBAAIBAAABAAEAAQEBAAD//wD/Af0A/v7+AAECBwABAP0AAAD9AAEBAgAAAQAAAP79AAIAAAD+AQIAAf8DAP7+/AACAgIA/v79AAEB/wABAf8A/QAAAAEAAQABAAAA/f/7AAEB/wD//gMAAQH8AAIBAAAA/wQAAAD+AAICAAAA/wAA/wABAP8BAAAA//4AAwMBAPz9AgABAQEAAgD9AAAB/gAB/v8AAQL9AAABAAABAgIA/wAAAAECAAAAAQIA/wD/AAAAAQABAQIAAAD+AAIBAQD///4AAAABAAAAAAADMEMhgAEB/wD//vsAAgICAP/+AAD///8A/wD9AAAA/gAAAf8A/wIAAAL/AgABAf4A/wH+AAABAQABAQIA/gH9AP4A/AD/Af4A/f8AAAEBBAAAAgEAAgEAAAEAAQD/AgAAAAIAAAAB/wD9//oAAAH+AAEB/wD9APwAAgMAAAIBAAD///oA/v/+AP//AQACAQIAAf8AAAMDBAACAQEAAf8BAAAAAQABAAIAAgEBAP///wD/AAEAAQEBAAH/AQAAAQIAAP/9AAQCBQD/AQAA/wABAAMBBQACAf8AAP4AAAECAQAB//8AAAECAAMA/QD/Av8AAwEEAP8AAAD9Af4AAf8AAP/+/gAAAAEAAgABAAL+/QD/AgMAAAD+AP8BBAACAAAAAf//AAAAAQAA/wIAAAIDAP7+AAABAQQAAQEAAP0A/QADAQMAAf//AAD/AAABAAEABP8BAAAB/AAAAP4AAQEEAAIBAwAEAgQAAQEFAAMBAQABAQEAAwIFAAAD/AAQJxoA8ffwAPXv9QAA/gEA+fj8AAYDBgD8BQIACyUMADFRLgAUMQoAAgAAAAAABAAPFwkA7e73AMDN4QACAAcAExANAA0HBwAB7ukA0wANAOoB+AC55fQALRAIAAwE/wD/DAoABQT7AOULDgCC4e0A0gQDAJLk6wDS7O8A6uXqAAsOFgD9CBQAJSouAP4BAgACAAkA/f8EAP8GBgAPCwsABwQJAPsAAQAfIBsA+/z5AAsJDQAREBAA//8DAAgJCwAGBwUA6uzuAO72/AD/+/wA3+TkABsXFwD18PQABwYFAAUGAwAKFAIADRT0AAEA/gACAAEA/wAAAAAA/wD//wAAAQD/AAIAAQABAQEAAwIDAAIB/QABAP8ABgIFAP8AAAACAgQAAAH/AP8AAAABAAIA////AP8B/wABAP8AAAD/AAEBAgD/AP4AAAADAP8AAQAA//4A/wEAAP///wADAQEAAgL+AP4AAAADAgIA/wD/AP8AAAACAgEAAQD+AP8AAQACAP8AAf7/AP8CAQABAv4AAwL/AP8AAAABAAEA/gD+AP///wABAQIAAQEDAAH//wABAf8AAP/+AAIBAwAC/wEAAgABAAEB/wD/AP8A/wH/AMiz2YEE/wEAAP78/QABAQAA/f4AAP//AQADAAAA/v8CAPwA/AADAwQAAv//AAEC/gADAQAA/gAAAAACAQD9/v0A/v//AP//AAABAAEAAwAAAAH/AQAA/wIAAAD8AAEC/wAA/wEAAP8AAP8A/AABAAEA/v79AP8AAAAAAf4A/QD/AP7//wABAf4AAAIBAAQA/gD9//sAAQIDAP3//wAC/wEABAICAP8BAgD/APwAAAEBAAEABgACAP4AAgEAAAECAgD+/wAAAgECAAD//QADAgEAAwMEAAAAAQD9/gAAAgQFAP7//AACAwMA//79AAED/wAA/gEA/wEBAAQCAgD9/gIA/gL9AAEAAgAAAAEAAPv9AAIDBAD/AAEA/wEDAAUAAQD9//0A/wEAAAEAAgD9//8AAv78AAD+AAD//v8AAgQCAAAA/wD9//kA/wIAAP/+AAAA//8AAgMHAAD/BQAAAf4AAAACAAAAAAD+//8AAwAAAP//AAD8AQAAA//6AAEBAgD4C/gAFEkoAP4//wD13usAEAQGAObe7AA7OR4A+xMEAPr7+gD8/f4AAAABAP8B/QABAP8AAf8FAPv+AACe0dcAyeLoADgRDwAqIxsAv+LeALnZ4AAMCgsAFxoQAEAVFgDp+gcA4v/+AND2+gDJBe4A9+frAP8FCAAVEBMABAsLABwcHwADDxkA8O/5ABURHwAGCwQA/wAHAA0WDQDo5eEA7ubhAAoLEADwBAQADgkNAAwECAD8Af8ABwYFAAH/AgD9AAAANDg4APX4+gDu9PEA8f30APf9/AD3+fwAAfn7AAwVEQD1/vMAAv8HAPwA+gAEAAAAAAEBAAAA/gAAAAEAAAH/AAEB/wABAAMAAAEBAAEABwABAf4AAAD/AAMA/wD/AP4AAQACAAQBAwABAv4A/AH8AP///wAB/wMA////AP3//wABAQEAAf8BAAAA/QABAP0AAQD/AAD/AgD+//4AAAACAAEC/wD+//4AAQABAAAA/gD///4AAAABAAAA/QAAAf0A/QEBAAEB/QACAQMA/wH/AAIBAAD//v4AAQABAAEBAAD+AP0AA/8EAP7+AgADAQEA/wD/AP4A/wABAP8A/wEAAAD//gD/AAEA/v8CAAAAAAAEAP/8AAMEAgD+/v8A/wD/AP8C/gD9/f4A/wD+AAIAAQD/AP8A/gH/AAAC/gD+AAIAAAEAAP4A/QADAgEAAP0BAAACAgD9//4AAf//AAAA/AD/AgAA//7+AAD/AgD///4ABAP/AAH//QD7AAAAAgAAAAL//wD/AP8AAP7/AP8A/wD/AAEAAf8CAPsB/wACAP8A//8EAAEB/wD/AP4A/AD+AP///gAD/wIAAwIGAAAA/gABAQEAAP/+AAIAAwAAAP0AAAEFAAABAAAAAf0AAAAAAP8CAQAAAAEAAwH/AAH/AQD9/gAAAwICAAD/BAD+AQEAAAL+AP/+AAACAQIAAwEAAAH//QD+/wAAAAIBAP///wD///4AAgMEAAD//QAF/wIA/AABAP8CAAAA//0AAP8BAAEAAQD///8A+v77AAMBAQABAAEA/v4BAP8BAAADAwMA/QD9AAEBAgAA/v4AAwT/AAD//gD+/gAAAgMAAAD+AQACAP8AAQH/AAAAAQD/AAAA+AH4AP0KAAACKgwA+///ABklIQDzAP0A//r7AAIEAQAD/wEA/gADAP/+/wAKBwUA3tTnAP8BAAD/AwQA1PD2ANPx8wAC4OgAAgIBAP4GBgAHEBMAht3uAL8LIAALJSoA8voGAPLv6AAUHwEA4NjTAAsMDwACCxUA7eztABPx7QAVDRUAFg0WAPHz9QANGBEA/wABAPPz9gAYFRsAIhYZAPH19gD29fgAFQ8QAPz6/QD4+/EA9/L6ABIQFQAICgoA7fDuAODr7AAIFggA+vf3APj5/gAeKCMA+PHxAO326AAK+AoA//3xAAIE/AD9AP0AAQH+AAP+BAD/Af4A/v//AP8A/QACAQAAAQAGAP8AAQD/AQEA/f/8AAEBAAD+/v4AAwIDAAD//gD9/QEAAgEDAAL//AAA//0AAQD+AAP/BgAB//wAAAH8AAABAgD9/gAAAgIBAP4AAQAAAQIAAQECAAEB+gD//wAA/wICAAAA/gAD/wEA/wD/AAD//AAAAQAAAQAEAAAA/AD+//sAAwECAAD//wADAQMA//7+AP/+AQAAAf8AAAL+AAAC/QD+/wEAAf8DAAAB/wD9AQAAAP//AAIBAgD//v8AAAAAAAAAAAAC/gH+APv++wD8/v0AAP8AAAD//wAAAgEAAAIDAPwB/wACAgEABgMDAAQBAAACAQEAAgAAAAQCAgACAgQAAgIEAAIBAgACAAAAAgH/AAED/wAAAP4AAQIBAP7//wAAAv8A+//7APwAAAD//v4AAP7+AP7//QD///8A///+AP///gD+//0A//38AAP+AAAB/wUA/P/8AP3++gD9/v0A/PwBAPz+AwD+AQIA/P/+AP7//wD//vwA/gH/AP8B+wACAv8A/gD4AAED/gABAAYAAQEEAAEABAAGAwkAAQADAAIBBAADAgAAAwMBAAMDBAABAgQAAQEBAAQEAAACAwAA/gIDAAABAAACAgEAAQQDAAIAAQAFAwMAAQD/AAABAQD+AwMAAAMAAAAA/gADAQIAAv8DAAMBBgABAQYAAQAIAP3+AQD+AAAA/QACAP8AAwD//gEAAgAAAAD9/wAGAgYAAv8DAAMBBgABAAEA/wD8AP///gD///4AAP4BAP7//gABAQUAAf3/AAP9/wAE/wMABAEBAAAB/AADAAEACAEFAP79AwD+/wEA///9AP4AAgDo5/MA/vgBAP8AAwD+AQMA/gQDAAICBgAFCwgAAwoJAAICCAD9/wAADBcXAO0CAgD68fYAA/jyABIWGgAGAwoACAkJAAYHCQAGBhAAHSw2APLp8AAF+vkABgH4AA4PCwD6+QAA8/P4AAYEBQD4+fwA7vX7AOvu9QAA/QEA9PHzAPn68gD28vQAEhUPAAAH/gDx+fUA9vf6AB0ZGAD08fkAEQ4SAA0GBwD57/MA6+fvAA4UHgD99BQA/PwRAP7++QACAP8AAP//AAD//QD/AP0AAAEAAAABBQAAAQUAAAH/AAIB/gAA//4AAgACAAUBBAAGAgUAA/8AAAAB/wADAgMAAgEDAAgDCAADAgQAAQH+AAAD+gD+AwEAAAEDAAH+/gACAQIA//4AAAIBAgAAAf0A///+AAD+/gACAf4AAQD/AAIAAAABAP8A//79AAAB/gD//wAAAAH/AAAA/gACAgAA/v/9AP///gD+/vwA/v/9AP4A/gD/Af8A/f38AAL+AAAA/AEA//8BAP3+/QD//v4AAP//AP7//wAAAAEAAgECAAAAAAAE//7+AAH//wAEAgIAAf7+AP4AAAABAgEA/gEAAAMAAAD/Av0A/wECAAQBAQD+/wEA/wEAAP/+/AACAgEAAQT/AP7+/QACAgIAAv//APv9/gAAAAAAAgECAPz+/AD+/f0A/wL9AAAAAAAGAgQA/Pz6AAADAQAAAAEA//7+AAMEAQAA/QEA/wACAPwC/gAB/voAAgEDAP8CAQD+AP8AAAD8AAIAAgD9/QEAAAD/AAIC+wD+AAIA//4FAAD/AwACAv8AAQIEAP8AAAACAf8AAAEBAAIC/wAA//4A/QIEAP///QAEAgMA/v38AP0C/wAC/wEA/gABAP/+AAAEAQQAA/8AAPsCBAD///4A/gD/AAIDAwD+//8AAQAAAAEAAQAAAQEABQD/AAABAQABAAIAAP4CAP8A/wABAf8AAf8AAP4AAwD+/v4ABAIAAP4AAAD+AgIA/v/9AAQDBQD+/P4AAgQBAAD+/wAAAQIAAP4DAP8B/wABAP8AAAAAAAEAAQD//f8AAwMFAP39AAD+APwAA/8EAP0BAwD+Af0A+gD8AAT/BAAAAAAA/QICAAT/AADk0PQACwgMAPT4+wABAgIAAP8AAAIGBwAAAAMA//z/AAECAgAGBQkAFg8ZABD+CADx7u0ABQ0WAAz/AAAECwsACw0PAA8OFQALFB0A+AIDAPj77wDLxscAExkjAAoPEgASExUAAAQCAP8IAAAGAwoA9/b5ABIPEQANBwQA8vDqAPn49wAiHx8AAf0DAObs7QANGhsADQ4OAAH8/QApBwsA4OXlAPHz7QAkHiEADgoTAPwUBgDoAf0A/vfqAAMHAwAB//4AAP8DAP4B/AD/AQMAA/8CAAMAAgACAQAA/f79AAMCAwACAQEA/v7/AP3//QACAQAAAAD/AAIAAwAAAwEAAv4BAP///wADAwQA/f8EAAEAAQABAP8AAAH8AAECAwAB/wEAAf8AAAAB/wD+/vwAAgECAAEBAwD///8AAAD9AP4AAgD+Af0AAAD8AAD9AQD9AP0AAQL9AAIAAAAA/wIA/wH/AAEAAgD9//0A/wABAP/+/gAAAf4AAQECAP8CAQD+//4AAgADAAAA/gAAAP0AAQECAAD/AQD//wEAAP//AAAAAAAE/wD/AAEBAQD/AAAA/gH/AAAAAAABAAEAAf//AAQCAwD9AP0AAwL/AAD//wAAAQAA/wD+AAED/gAAAP0AAQD/AAEBAAD+//8AAAEBAAAA/AAEAgcA/P38AAIBAQAA/wAA/vz+AP8CAAD8Af4AAAECAP3//wAB/wAAAf4AAP8A/gAAAf8AAQL/AP///wAC/gMA/wEBAP7+/wABAPoAAQICAP//AwAAAAMA/wIDAP8AAgAAAQIA//7/AAEB/gD/AP0AAAEEAP8A/AD+/wEABAMCAP8A/wAAAv8AAwL9AP79BAAA//8AAgMCAPv//wABAgAAAQD+AAMABAAC//8A/gL8AP8AAgD8//wAA/4BAP4BBAABAv8ABP7+AAIBAQD+//4AAwIEAP7+/gABAgMAAAECAAAA/wD//v4A/wEDAAH/AAABAAEA/QD+AAH//wAC//8A/wAAAPz++gAHBAQA/wD/AP8BAQAAAgIAAf8AAAEAAQAA/gMAAAIDAAH+/wACAv8A//7+AAECAwD//gIAAAEBAAEA/wACAAEA//78AAECBQACAgcA/v7+AAQGBwDp2fEA/wADAAYGAQD9/v4AAgYFAAUMCwD39vcACwkLAAcEBQD6/wQA7/DyAA8UCgDr/PYACgoXAOnj7gDx7foAEAwVAOrq5gAPHi8AHh0kAO0FBAAIEBEADAwQAPT09wDw9PYABAIIAAUC/AAREwcABgQEAODf4QDk8e4AHBkSAAcGDgDo7/QA9vX2AAoJEAAJCgwA8vLwAAP5/QABCwcAFBYWACUeIQAE8fkA8AP3AAkDCQD+EPkA7O30ABYMAAD9AwIAAAD+AP8BAAAB//8AAwICAAIAAgAAAAAAAQIBAPr+/AADAwEAAQH/AAMBAgD+/gAAAgECAAAAAQD///8AAAH/AP0A/wD+/QAAAgICAAAA/wD+/wAAAQAAAP///AACAv8ABAMCAPn8+wADAQEAAgL+AP4B/wADAAEAAQABAP8A/gD+//wAAQD/AAEAAQAAAQIAAAD/AAABAAD9AP4AAAD/APz+/AAA/wAA/v7/AAQCAgD//QIA/wIDAP7+AAABAP8A//8BAP8ABAAAAQAA/v7/AAUCAQD/AAMA/gAAAAAAAAAE////AAEDAwD+/v8AAAEAAAAA/wABAv8AAwEAAAEA/AABAQAAAAD/AP8A/gAAAf8AAgEAAAEBAAAAAf8A//4AAAIAAgAAAwEA/f/+AAMFBAAB/v0AAgD+APz8/AAA//8A/gEAAAH/AAAAAQEA/v7+AP8CAQAB//8AAQMCAAAA/gAB/wAAAf8BAAQBAgD/AAIAAf8BAP8AAQD9Af4AAv4BAAMAAQACAwEA/v/+AP3+AgAAAP8AAgEAAPz+/AADAQIAAf/7AAICBAAAAf0A/v7+AAECAgD/AAEAAPwAAAL/+wAAAQAAAAEDAAMB+wD///8AAQH/AAACAQD+AAEA/v0EAAUDAQAC/QAA/wL9AP0C/gD//wEAAQADAAIAAAABAQEA/f8AAAECBgACAAEA/wEAAP7+AQABAQIA/wEAAAAB/wAAAAEA/v//AAEAAQACAQMAAAABAAUC/AD/AAAAAQD+AAAAAwABAAEAAQD/AAEAAQD/AAEA/P0CAAMC/wD//v4AAwIFAP/+/wABAAQA/v/+AAEB/wAEAQQAAAMEAP4AAQD///4AAwACAPbw+gDx6fsA+/7/APz8/QAGBgQAAAUGAA4WEAAK/A8A+ev0AAUGCgAgHyEABf8GAP4IDgDr1cwADfQDAAsWHQAeHiQA+PTvAPb6AQDn3c8A9/X3AP4CCwD/B/8A+Pn7APDu9AAtLyQABAUIAAb9BwD3+vsAA/z7AAcC/wARGBMA9Pn7ABMVDADr8PEACxUTAAUHDgDk6uIAEAoMAPP3+gAF/AEABREMAOz49wAFAvcA/wr+APf++AAaKSkA8tDyAAMC7gAA//kA/QD/AP///gAEAf8AAf8EAAEBAAAAAQAA/wD+AAEBAAD///4AAAABAP///gABAQEA/wL/AAL/AwAA/wEA/wD/AAIAAwAEAv8A/gD/AP39/QADAQMA/v7+AAECAQAB/gIA/QD/AAMCAgAA/gAAAP//AP///QD9AAAAAwEEAAEB/gAA/v8A/gACAAIA/gAB/wIA/gD+AAH/AAAAAQQA//7+AAH//QAC/gMAAQAAAP/+AAAAAQAA//38AAIDAwD+//8AAAH4AAEABAABAAYAAAAAAPv9/QABAAEAAQEDAAAAAAAEAwECAP/+/wABAQEA/wD/AAEBAwABAv4A/f/6AAMCAwACAgIA/gH/AAEBAAABAf0A//8CAAIAAwD+/wAAAQIAAAEB/wD//v0AAwH/AP7/AgD+APwAAwEEAP4A/wD8//kAAQL/AAD/AgD9/AEABQMEAPwB/QAAAf8A/v79AAQCAwAAAAIAAQABAAH//QD+AAEA/wIAAAL/9hbE6QAAIABJREFU/gD//vwA/gACAP8AAgD+Af0AAAH+AAAAAgD/AQMA/v8AAAAB/wAA//0AAgEAAP7+AAABAQAAAwACAAD/AgAA/wAAAgEBAAEBAQD/AP8A/f79AAEBAAAAAQMAAAIBAP///wAAAf4ABAAAAP7+AAACAQQAAAIAAAD//gD/AAEAAQEDAAD//wAD/wEAAAICAAL/BQACAP8A/QD/AAECAQAB/wAAAAH/AP///wAAAgIAAf0CAAMCAQABAAEAAQH9AP//BQD+AQAABQAEAP/+BAAAAQMA/wD+AP3/AgABAAAAAQAAAAD+AQABAQIA//8AAAEAAgABAP8AAAADAP4A+wD+/wAAAQEDAAEA/wABAQIAAP8HAOzf7AAAAQYA/wD/AAQDAwD4+vYAEhEUAP34/ADz7fUA/PX3ABcRGADl3+MAFxkZAA8SFgAYHCQA+Pn2AO7f2gADBQwAFx8oAPX7BQD8Au4AARUSAAMACQAMDxAAFxMYAPUQDwD39fsADQwJAPj68QAE9vsA8vLvAO7t6AAgGx4AFRITAO/z9AAMEg8A9vgAAAkLAwAJCwwA9vv8ABAPEwALDhAA9QP6AAj9AwD48vQA3/HmAA8OEADetcwAKi4yAP4A0gD+//sAAgIGAAD/AgD+Af8A/QAAAAAB/AAA/wIA/wD/AAIBBAD//v8AAQACAP0B/gACAQAAAf4AAP4C/wABAP8AAAACAP/+/QD/APwAAQABAAIABQD/APwAAwQBAP7+AgAAAv8A/wD/AAEA/wAAAQIA/v//AAEBAQADAQIA///5AAD/BAABAAMAAAEAAP8AAgACAAAA/gAAAAP9AwACAAAA/gEAAAD/AwD9/wAA///9AAMAAAAAAgEAAAAAAP/+/wD/AAIA/wD/AAMBAAD+//sAAQADAAEABQAAAP8AAwEAAAAAAAAAV4GofgQCAwIA//4AAAICAgD+//0AAgH9AAD/AQACAgUAAAH+AAIBAAABAAAAAAIDAAAA/wADAwIAAgAAAAL+AAD9AAAAAQL/AAT//wD8//4AAgEBAAABBQD//f0ABAMDAP4ABQAA//8A/gD/AAIB/AAA/wEAAf8BAAIBAAAEAwUA/wABAP///wD9//8A/wAFAAQB/wD+/v0A/wEBAPwAAgABAAIA///9AAH9AAAFAQIA+/4AAP8B/AACAgAAAv/9AAADAQD/AQMAAwQBAAAA/gD+AP8AAP4AAAIBAQD///4AAAIAAP4AAAAAAgAAAwAEAP4CAAACAgIA/Pz/AAEAAQD8APwABAIAAPwCAQD//gMAAv//AAAAAAD+AgAAAv8DAP78AAAEAQAAAAEDAAH//wAF/wAA+wH+AAEDAwAC/v0A/wIAAPr+/gAFBAMAAv8CAAEA/wD/AAIAAQEAAAQAAQD+AAEA/wH+AAX/AQADAQUA/gABAAD//wADAgIAAQH/AAEABAAAAP0A/v8DAAIAAQACAQAAAP8GAAIAAQD+AQEAAgIEAP8AAAACBwUA077kAP7/AgAEA/8A/f/9AAIEBwD0//wACPgFAA8PEwDz++wAAP3/AAIGCQABBQ0Azc/FAPf39AD7/f0ANTxPAAQLDwDk4uwADhcaAOfpAAAB9AMACgsFAP/5+QDo5OQAIhocAAoKDgD2+/kA/gYGABoXEgAFBgIA0dXNAOn49wD0+QkAAgYHAPz7AgAWDQoA/fj3AAkIAgDn+PYABAcMAPPv5wAG/wgAGA4TABEOCQD6FP4A6u3pABD8CgAA+ggA+v4aAAUC8gD///kAAf8EAAIDBAD/AP4A//8BAAIBAwAB//0A/wD8AAMCAwD//v8AAgABAAEB/wAC/wMA/P/9AAL/AAAAAAAAAQICAAP/AwD7/f4A/wL+AAIAAgD//v8ABAEAAAACAAAB/wIA/v0CAP8B/wADAAEAAgAAAP/+/AABAgEAAf/+AP0C/gAB/gMAAgICAAAA/wAE/wYA/wL8AP0A+wAAAAIAAP8CAP///wADAwYAAgAAAP7+/AACAAMA/wEBAAIAAgAB/wEAAAABAAIBAQD/AP8AAv/9AAICBQAB//wAAAAAAAT+//8AAQEAAAAB/QACAf8ABAEDAP///wD/AAAAAAEAAAAA/wADAgIAAQECAAEBAQD/Av8AAP/9AAABAAAA/wEAAP8CAP8AAgABAAEAAAAAAAEBAQD/AwMAAP39AAMBBQD9//4AAf/7AAABAQAA/wIABQMCAP7+/gAA/wEAAf//AAIBAQAAAQIAAP8BAAL/AgD/AfwAAv8EAAMA/wAAAQAA+//+AAL/AQACAAAA/wD8AAIAAgAC/v8A/wABAP/+AgABAgEA///+AP8BAgAD/wEAAgIAAP3+/QACAwEA/f/+AAICAgAB/gMAAwIDAAEA/wAA/wEAAgMAAPwA/QAFAAQA/f4AAAYEAAD+/P0AAAABAP7+AQAA/gIAAQIBAPwA+gD+/v8AAgABAAMCAQD//f8A/wEDAP7+/wACAgMA/P4AAAgDAQAAAPoAAwEEAAECAwD+AP8ABAL/AP8AAAAAAQcABAH+AAIB/wABAfwAAv8BAAMCBwAAAAEA//4AAAID/wAA/gMABAICAP///QD+AQIAAwACAAD//gACAAEAAv//AP3/AQDp4fMA+fEDAP/9/gD+//4A//8BABgaGQD/EhIA+fsCAObX1gAVDRYA6e/zAA4OEwDb2tMA9/fqAAADBwANDhIA6efcAAsMDwD8/QUA7Oz6AAMHDQAbFxYAEhMTABALDgDy9fUA/v7+APv4+wD//fwAAP7+AOj06AAAAf0AGBscAPnn5AAEBQAADwoKAPL09QDz+QEABAECANjV6AAqLysA+PXzABQCDAAJBggA+vnyAP0A/gASCBAA+e/0AAcRGQDx8O0AAQARAA4QCQAGAfsA/AL6AAP+AAD9AP8AAgMGAP8A/wABAgEA/wEBAP/+/wAAAQEA/wD+AAABAAAAAQAABQEFAAEB/wD9//4AAAEBAAD+AAAEAf8A/v78AAIBAAD/AgAA/wD7AP3//wAAAAIAAgP/AP7//QD+/QcAAgH7AP7+AQAAAQMAAf79AAQBAAABAQEA/f79AAACAgD/AfsAAP//AP7/AAAAAf8AAf4AAAEBAQD///oA//8EAAEAAwD+AP8AAAABAAIB/wABAP8AAQECAAD//gABAAQA/wEAAAAB/AD+/gAAAAAAAAQEAwIAAv8AAP4A/wABAAMAAAABAP8A/wACAgAAAQEBAP8C/wD/A/8A///9AAQCAwAAAP8A/wEDAAEA/gADAQAA/gD+AP8C/wAD/wIA/f3/AAIAAAACAf8A/QD/AP8A/wD+Af4AAAH/AAD/AQACAgEA/gD9AAIDAgABAQEAAAAAAAABAQD//wEAAgD/APoB/gACAAIAAAD/AAP//wAAAP8AAgEBAP3//wD+AP0AAAD/AP//AgD9Af8AAwAAAP///gD+/wMA/v79AAICAAD/AQMAAP36AAABAwD9/v8AAQAAAAABAQD+AgEAAgEBAAEAAAAAAAEAAv8CAAABAAABAgQAAgECAP4A/AACBQEABf4AAPsBAgD/AQIA/wAAAAUABgAAAAEA/gD/AP3//QABAwIAAP//AAMFAgD//v0ABAQDAAAA/wAEAQIA//79AAEBAwAD/wIA/gH9AAACAwAB/wAAA/8FAAAB/QD+/wAAAQMEAP39/QADAgMAAAEAAAD/AQD//wEA//7/AAADBAAAAAAAAAD/AAABAQAAAAAAAP8AAAkJCQDTwd4AAAQLAAAD/wD//vkA/wD9APL1+wD5+vEACRoYACpMRwDjzNsABvcDAAEEDAAYHBgA4eD8AAULCwAOGCEABxEeAPn8/AAKERUABQ7/ABAQDgDz8fUA6u3pAODh4gAABQMAFg8VAA4K/QD99vwACAIBAAUKCwD6AQAA6vDxAPT1/gD6+/sA6/HmAP7zAQAUFQQA8vT4ABYTGAAE/QAA//j+APQL+wD/CQYA9PPyAAIBAAALAAMABgYAAPX5AgAG9vYA6/gJABERDgD/AO0AAwIGAP3//AACAgIA/gABAAD//wACAAAAAQABAAMAAgD+AAAAAQEBAAH+AQADAv8AAQH9AP/+/wABAAEA/gAAAP8AAQAAAwIAAgEGAAAA/QAAAPwAAwAEAAIA/gD+/f4AAAH/AP7//gAEAvwA/v79AAEAAAAC/gIA/wAAAAD/AQD///wAAAEBAP8AAwD//vwAAQACAAUAAQD+/v4A/wACAAD/AAAB//0AAAH+AAEBBQACAf4AAAEDAP///gABAP4AAQAAAP8AAAABAAAAAAAAAP4AAAD/AAIAAAAAAAQDAAAA/gEAAAMBBAACAgAA/v/9AAEAAAAAAAAA/wEBAAIB/gD+AP0AAwQEAAEA/wD/AAAAAQAAAP8AAQD//QAAAgEBAAMA/AD///4A/wEAAPwA/wD///8A/wL/AAD+/wADAQEA/QAEAAAA/QAB/wEAAAICAAMBAwAAAgMAAAD+AAL+AQD+AQEAAQEAAAYA/QD/AQAAAgABAAEB/wD9/wAAAgACAAIBAgD9//0A//8AAAMCAAD9//4A////AAMBAQAAAf8AAf7/AAIC/wD+/f4AAwMAAP39/AD/AgEABAEAAP7/AQABAQIAAP8DAAABAQABAf8AAAEBAAD+/gD+AQAAAv/9AAEBAgAA/wMAAQAAAAECAAABAgIAAP3/AP0BAQABAgAAAf/+AAEB/wD///8AAAEBAP8AAQADAQEAAf/8AAACAQAA/gUAAwIDAP3//gAAAAEAAf8FAAP/AgABAQIA/gAAAAIBAgAB/wEA/f0AAAUCAwAA/wAAAgIAAP7//wABAgAAAQEBAP8A/gACAQUAAgEBAP4B/gAB/wEA/wIAAO/t/ADq4f4A/f8BAPn59wAHCg0A+vXvAPwNBQAWKCgA8f34AAwMDgD++PEA9PgBAAEJBgDu6+sA/QP+AA8QGQAKDRsA9vkBACUqLADy9/cA7+DUANHK2AAJFisAAhAQACkiIQAGBgsA6+nrAOLj6gAWEw8AJB8hAPn4+QD6//4AAf4IABcXEQAHCAAA4dveABkZFwAFCwsAERMUAAgFBAD29fYAGAwSAPwGBgDv+PEAAwYAAPT08wD5AwMA6PfvAAX3/QACDAYABwMJAPn1FwAIDesAAf4EAAIBBgD+//wA/wAAAAMA/gAC/wEA/gD+AP8B/wABAgIA/wABAAIBAgD9/v0AAAMDAAACAAD+/v8AAv//AP8BAgD+//wAAAICAAD+BAABAQIAAAH7AAP/BwAC//wAAAH/AP79AAD9APoAAwEDAAEAAAAA/v8AAAIEAPz+/wAD/wIA/wD+AAEAAAAAAAIAAQABAAD/AgD/AQIAAgH9AAEAAgABAQMA/QD+AAEA/wAEAgAA/f8AAAECAwD+/v4AAAL/AAD+AwAAAf8AAQIAAAAA/gACAgEAAAAAAAQAAgEAAgEBAAX//wD/Af8AAAD9AP8A/wAFAgMA/gD9AAMBAwD/AQIAAf4CAAIDAgABAf4A/v3/AP8AAgACA/4A///+AAAABAD/AgAAAAABAAP+/QD+AQIAAAECAAAC/wD//v8AAAD/AAABAwACA/4AAQAEAAEAAAABAQMAAgD9AAAEAgD+//4AAAD8AP3/AAACAgIAAQABAAAAAgAAAQAA/v79AAAB/wABAAIAAAD+AP3/AAADAAEAAv8AAP8AAAAA/vwAAgABAP79/gD+//8AAwECAAAAAAABAP0AAAADAAL/AAAB/gEAAQICAP7//QAA/wAAAAECAAL/AwD8//0AAQIAAAMA/gABAAUAAAICAAP+/wD/AgIA/P/9AAIBAwD/APwAAf4AAAD/AAAA/wIAAgEAAP8AAAD/AgIAAf8AAAABAAD/AgAA/QABAP8BAAACAgEA/wACAP4BAAAEAQAAAQICAAAA/wABAQAABgAEAAD/AAABAgEA/wAAAAIC/wABAAYAAQIBAAAA/QAAAgEAAAACAAIA/gABAgQAAAMFANfI5AAB/gQAAf34AAUJCQAABggACAUZAAEGBwD38/YAExgVAM+7xwAQCQ8A+wf8AAEMCAABBP0AAv8CAAsSFAALFRkA/vT4AODk5AAOGBsAGSs8ABklPgD7A/0AAfj3AOfu8AAPEAYAAgcJACAgFAACBwAAwMfHABQUFgAXFhEA/QD+AAH7+AD1+AMAGxcOAODj1gAMGxsA/wULAAP/AwAHBwcA/AEEAAD69gAJBwYACAcOAA8IEADT2dEAA/4BAPb89wD+9fkACA4LAPDyFAAYCw8AAQPzAP3+AAABAv8AAAD/AP0B/QD/AgUAAf4DAP8BAAD+APsAAgEFAPwA/QABAgEAAwECAP7//wABAf4A/wACAP0A/AABAQEAAf/9AAIDAwABAAQA/f//AAEAAwD///4A+v/6AAIA/wABAQMA//0AAP///gD+AQIAAAD/AP///wD+Af4AAwECAP7//gABAgYAAAACAAH9/AADAf4AAP8BAAH/AgD/AP4AAAAEAAEDAQAAAP4AAgIAAAD//wAAAQIAAP7/AAIBAgABAwMA/wD9AAEAAAACAQEAAAAAAAIEAAEABQECAAAC/wAAAP8ABAEDAAUCBAD+AAAAAQMBAAACAwABAAIABgMBAAMDAAAD/wEAAwIDAAIBAAACAf8AAP8AAP///wD/AAEAAwEEAAMABQAEAQUAAwIBAAMCAgABAQEAAwH9AAIB+wABAQAABgICAAQCAQACAv4AAAL+AAMDAQAFAgEAAAEBAAMCAgACAgEAAQH/AAIBAQADAwMABQQFAAMAAQAFAgEABgECAAT/AQAB/wIA/QEBAP8BAQABAAAAAAACAP78AQADAAMA/P7/AP0BAQAB/ggA/wAFAPwAAAD/AgYAAQACAAMBAgABAAMA//4BAAIBAgAB//8A//8CAAH/AgAB/wAA/gEAAAIEAwACAAEAAwABAAAA/wACAgIAAQAAAAIBAQACAgEAAgAAAAQBAAABAQEAAAIDAAAAAQAAAQEA/wH/AAECAwACAP4ABAABAAEAAgD/AAEAAQEAAAEBAQD/AAEA+wEAAP4BAQD+/v4A/wD9AP3/+wD/AP8A/wD/AAACAwD/AAAAAQEDAAD/AwD+Af4A+vQFAN3O7AD+/fcA/f/9AAULDQABAfwADyIfAAQUFQAKEQ8ACgkJAA4NCQADBv4A8uzoAAD//wACAggACxUhAAQKDgD5+f0AHB4dAAcJDgD29PAADQgGAA0MCAASDgsA8fX5AA8HEgD48/MACQgEAPf69wDx7fgADAwYAPT3/wD1+gEACQ0OABQLDQAI/wMAAAUIAPYBBwDp7/MAAgYFAAsLBgAWEBQABgMGABAJDQAGBQQADQMFAAT6AgAuISsAAwIIAPL5+gALEQoA+AUAAPICEADy/BoAAf8GAAYCBQABAAEAAf8AAP8AAQAC/gEABAL/AAABAgACAgUAAP8DAAQCBgAA/wQA/v/+AAEBAQABAQIAAAL/AAEB/wACAAUAAgEEAAABAAD+/wAAAQAEAP///wD+AgEAAQEAAP4BAQAB/gEA/f8BAP4AAQD/AQEAAP8AAAQCAAAAAAAAAwAEAAMBBQAC/wIAAf7/AAIAAQADAAAA/v0DAP7/AgACAAUAAgEEAAH//wABAQIAAQD/AP7+/AABAQEAAAIDAAAA/QD//voAAQD9AP7/AAD+AAAAAAAAAAQAAgAAAAEAAAEAAAACAgMAAv8AAP0B/QABAgIA/wAAAAECAgAEAf8A/wD/AAP/AAD/AQIA/gABAAIA/wABAQEAAAH/AAABAAAA/f8AAgD+AP8DAAD+/QAAAf8DAAEB/gADAwAA+/4AAAMDBgAB/wIAAAEBAAQCAgABAQEAAAIEAPz+AQACAQMABAD9AAEAAQAB/gIAAQT/AAH+/AACAAEA/f8BAAICAQAA//8AAAEBAAECAQAA/wEAAQADAP7//AD9AAIABAACAAIAAQD9/wAA/wD/AAb/AgD/AP4AAP4BAAEBAgD//QEA/gIAAP//AAACAQUAAwAAAP3+/AACAAMAAP4DAP0A/wAB//8AAAL9AAD+AQAAAQEA/wMAAAT/AgD+/P4AAAQBAP/9/wABAAAAAgH+AAD/AgAAAP4AAQABAAAB/wAAAAEA/f7+AAEAAgABAgAAAQEBAP8AAQAAAQEAAP/8AAAABAD+/wEA/QH+AAAAAgACAgEA/wAAAAMBBwAAAf8A/wD/AP8BAwABAAIA/wD9AAADBAD//vsA39brAAH8BQADA/4A+gQAAP4AAQD17+4ABA4OAAwgIgDs7OsA9O/vAP3+/QAJCgoAAg4TAAMECQAGBQkACAwTABMTHADy7PoA7O3vABISEQD8+/wA7errAAADCgASDRAAIBgZAAEAAgDo7v0A9vb7AA0QCAAFEgsAHB8WAPr5+wALCwsA5+zqAOj2+gANBAkA7Pf0AAIMEwATFg8AEAsHAOPh5wD/FP4ABwgIAPkE/wAQ+QMA8Pr4AP8BBAAOBAUAIBwgABIZEQDq7uwAHjonAOrr3gD4+RUA/gDxAAAB7wD+/wEABAECAAAA/wD9AP0AAP8FAAEAAAABAAEAAAICAAAAAwABA/8AAQH+AP7+/wABAAEAAwD/AAUABwD9APwA/gAEAAEA/QAAAQAA////AAEB/AD+/vsAAQEDAAH9AQACAf4A/wL+AAEABAAB//8AAP8AAAABAQADAP0A/v/7AAEAAQACAwEA/v//AAAAAgD9/gIAAgL+AAEC/AD/AAIA////AAICAgD//v8A/wH9AAICAgD8//0AAgAEAP0C/gACAf8AAP4BAAEDBAD9//0AAAAAAAQBAQQAAQD+AP8A/QAAAQQA/wH+AAICAgD///4A/wEBAAIA/gAAAAIAAAECAP8BAQD+//8AAgEBAP8CAAAC/wEA/wMAAP4A/QABAAIA/v4CAP7/AAACAf8AAQD+AAIB/gD+AAIABgQEAP///gABAgEAAQICAAEA/wAAAgAAAQECAAUEAQAA/wAA/f8GAP///AADAgEAAAABAP8BBQACAgQA///+AAIBAgD9/v0A////AAIAAQAAA/4AAP79AAMBAgD//wIA/f77AAAABQAA/wEAAQADAPz//gABAP0AAgIFAAD/BgD+Af4AAwABAAEAAQAB/wAA/QH8AP4A/wABAAIAAP/+AP8BAQAA/wEA/v7/AAEB/wAA/v4AAgAAAPwA/QD/Af0A/v3/AAEA/gAAAQQAAP8BAP4BAQAAAAEAAAEBAP//AAD//wMA/wD/AAAAAQD9/gAAAAD/AAMC/gACAP8A/AADAAMCAgAE/wEAAwH/AAAAAAD9/wEAAAEBAAAB/wAAAQQAAgH9AAEBAAABAQEA/wECAAIAAAAGBgYA5d/sAP8EDwD7/vYAAgYBAAL//QAPFRcA9OzyAAcQ9AAGCQ0AJSgqAOjf4wAA/voAKys1AOXZ3gAB/AUA/PgDAPf0/QAbGxUA6OvpAPX1AwAABwQAGhwUAAL8AgD3/PgA+Pv+APj6+gAACAIA8+7zAPX18gDx8fIAKyUiAAACAwDw8vEA/AQCAAYSCgD1+/0AEQYUAAoI+wARDQkA4+fmABYXFAD8BAQA+/73AAX5/gDd0NUAFSMeABETGgAKCBAABgQFAAPyBAAHEgsA9QD0AAAK9wDl6/0AEh0gAAT69AACAP0AAQEGAAAA/AAAAPsA///9AAICBQAA/v4A/wL+AP//AgD/Af0A/v0AAAH/AQAAAgEAAQABAP4BAQABAQEABAD/AAD/AgD9//sA/v//AAD+BAADAf8A+/3+AP///gD8//0AAQAAAP///QAA/wIA/wD+AAD/AQACAAQAAAEBAP//AgD+/QIAAQEAAP8A/wAAAAAAAQEAAAEAAwAAAAAAAgAAAP8AAQACAf4AAQIAAP7+AAAAAf8AAP/8AP79/QABAwMAAAACAAD+/gABAQQAAAAAAAQEAAAAAAEAAAABBwD/AQEAAQADAP4A/wADAwIAAQD/AAD/AQD/AgIAAAEBAP4AAAACAv4AAAD/AP8DAAD//gEABAACAP7/AgD+AvsA/gABAAL//wD/AAEAAf7+AAEBAAAB//4A/f/+AAEBAAACAwEAAAD/AAABAAAAAf4AAAEAAP///wACAf4AAQEAAAABBQD+//4AAv8AAAEBAQD/AP4A/wL/AP3//wAAAQIABAICAP7+/gABAgAA/wABAP4AAgAAAP8AAgECAAP/AQAA/wAAAAEFAP//+wAAAQQA//8CAAICAgD///8A/wAAAP8AAgD/Af4AAQEAAAL/AAABAQMA/wD7AAAAAgAAAQAAAgEDAAAAAAABAQIA/f77AAEAAAD+AAAAAQICAAD/AgAA//4A/gAAAAD//gD//wAA/wAAAAEBAgD//vwAAQEAAP4AAgAAAP4ABAMBAAEBBQD+AQMAAQH/AP//AAAB/wEAAP//AP8B/wADAAMAAwEAAAEBAAAAAf4AAAIEAAEA/wD+AP4AAQICAP7+AAAB/QYA3trwAAcDFgD9BQAAAv/6APv9/wAC/wQAEBIWAAH7AAAIBQUA693lAPb1/AD68PAA7+DjAAQQFgD6+/8AAfv0AAEA/QD5+voA9fX5APLy9wDu8O8A5xMQABMSEwDy7/YABhEOAAcLBgD+9fUAEQsRABQSCQD7ExgABQICAPcB/wD5/wQAFBkUAOjf3AADBQsAAAf/AAQD+wDw+AYA+gIIAPsABAAODQwACgwEAOPo5QAIHCAA/vsEAPnz9wDt9/sACwULAA0PEADkA/MACAX5ABUWFQDw6/cA4uvxABwNFgAJA+gA/wABAAIBAgACAAYAAP/9AP4A/QACAQEAAf/8AAD//wAAAQEABAEBAAAAAwAAAf8A/wACAP8A/gByndj+AAAgAElEQVQB//8A////AAH/AwAC//8A///+AP///wD+/v4AAP4DAAEBAgD+/voA/wD9AAEBAgD9/wIAAAAAAAIAAQD9AAEAAf4EAAICBAD///0AAP/+AP///wABAQMAAAACAP7+AQAAAf8AAgH+AP7/AAD/AQQA/f/5AAAB/QAAAAEAAQD/AAL/AAD9AP4ABAIBAP8CAQABAP0AAAAAAAQBAv8A/QD9AAAABQACAgIA///+AAAA/gAB/wAAAAH9AP8CAwAB/vwAAgH/AP4BBAAAAgAA/wD9AAUABQD/AgIA/v//AAMABQABAQQAAwH9AP3//gAAAgQAAQQDAP/9AgD+AP0AAQIBAAABAAD+/wIAAQICAP4B/gACAP8AAAECAAECAQABAP4AA//+AAECAQD+/gEAAAEBAAICAgD+/v4AAgH+AAEAAgAA/wIAAv4BAAEC/QD//wEABQIDAP/+/wD+AQAA/wACAPwA/QACAAMAAP38AP8C/wADAwUAAAECAP4AAAACAQMAAP//AAEBBAABAQIAAf/+AAIA/wD/Af4AAQMFAP/+AQD9APwAAf3/AP7//gD//wAAAAQAAAD+/AAB/v8A/QABAP//AAAA/vwAAgIFAAH//gD/AAAA//8AAP8A/wACAv0A//8EAP//AAABAQMA/P/+AAMC/gAE/wEAAQACAAEAAAD9/wAAAAEDAP8A/gACAQAA/gD/AAEAAQACAf4AAAABAP4AAAABAgIAAAABAAMF/wDNwu4ADAUZAPz+AAD59fMAExoSAPr7/wACBQ8AChEaAPr5+gAaEyMA8fbxAA8RCQAJGR8A5dnXAP/t/QAQExIACg0OAOrr7AAMDhIAERYXAPn89wALEQsAAgYBABoeFgAWF/wA+v3/APb29QD2AgAAAQb1AOfm7AAMCxQA9gICABEMDwD6//gA4tziAPj1AQAYHg0A9gH0AAYQEgAOBAYACRQHAAYGCQD49vMA49nqABwiHADu/fAA+f37AA4SEgAFBwMA9vr3AOgB8AD9A/sA9e31AOwD+gAHCA0AAPYAAPf89gAIAe8AAwH3AAIAAQAAAAAAAgEDAPz+/wACAwUA/gH/AAIBAwACAf8AAf8AAP8A/wD+/gEAAAEAAAICAAAA/wUAAQD9APz+/wAAAAMA/v8BAPz/+QD+/gEAAgAAAP7+/gAAAAMAAQIBAP//AAABAQQA///7AAABAQACAAUAAQECAP//AAABAgEAAQAAAP/+/wD+AAEAAP79AAECAQD/AAEA/v/+AAABAQD9/wIAAQICAAD//QAAAAEA/wIAAP//AgAA/wAA/wIAAP///gAC//wAAAAAAAT+Af0A/wABAAABAQD//wQAAwH8AAD//wD/AP4AAAEEAAEAAQABAfwAAgICAAABAAAA//8ABAIGAP8ABQAFAAEA/AH9AP3/AAD/AAIAAQD+AAQCAgD7/v4A//7/AAABAgADAgIA/f/7AAABAAAFAQAA/gH+AAECBAD/AP4AAwAAAAAA/wACAgEA/v8CAAMB/wACAv4A/QAFAP8B/wACAgAAAf8EAAAA/gD/AAEAAQMAAAIABAAB//8A/P79AAICAQD8//8AAwD/AP4BAAAAAf8AAAEAAAIBBQD///8AAf4BAAIAAAABAf4A/AACAAEB+gAF/gQAAgIDAP7+/QAAAP4A/wEAAP3+/wD+APsAAP8CAP79/gABAAAA/vv+AAAA+wABAgQAAf//AP7//QADAQIA/v76AAIBAAAA//8A/wEAAP8AAAD8/v4AAwH+AAIAAwD+AP0A/v4AAAAA/gACAwIA//7+AAYDAQAAAv8AAAEBAAH/AgD/AP4AAQICAP0BAQABAQAA/QABAAMA/wAA/v8AAAL9APbxBgDXx/AA+ff5AAcSDgAC+/8A8OvqABQbGQAJEBMADRYbAPTz9gDr7/IAExcMAP78/wACAfsACAkNAP7//gD5+/YAAPf/APv4+gD4+/QABQUCAA8RDAD09fsAAQQDAPDy9gD09fMAAwEGAP4FBQAXIxQA9O7yAPP3+QD+/vkAHRAVAPj//wD8BAYABf/6AAkTBgD39OgA2MK5ABc9PQAMEQ8AAPoAAA4LCQDz6/0AHRwgAPf6/AAVFgwA+/cDAAYNBAD5AfwA9AX2AB0pHwDt8ukA8Oj3ABgYEwDq+9kA+vL6APz5CQD7+wQABgsDAAAB/wAAAf8AAQADAAUBAQABAQIAAQEBAAIAAgAAAP4AAQD+AAAB/wADAAIAAAABAP/9/gAB//8A/f78AAEBAQD8/v8A/f78AP//AgAAAAAA/P75AAIDBgAC//0A/P//AAH/AQAC//8A/wABAAH//wAA/wIA/gEAAP4A+wD+/fwAAgEBAAEAAwD///4AAQIDAAD/AAAAAAEAAQD/AP4A+wACAQMAAP8AAP8BAgAAAAEA/v//AAAA/wAAAAAA/v/9AAECAAD/AAMAAAAAAAT/AP8A/wEFAAL/AAAGAf8A+///AAABBQD/APsAAP//AAMA/QD/AQEA/QABAP8A/wAEAAEA//8AAP8C/wD+/v8AAgEBAAABAgABAP8A/P8BAAEAAQAA/voABQAHAPwB/AD8/fsAAwQDAP39AAD+AgAA/wD9AAIA/QABAAAAAAEAAAIBAgD9/v0AAQEBAAABAgAAAAEAAwICAP///wAAAf8AAf8CAAH//gAAAQAAAQEAAP3+AQD9AAAA/wIDAAH+/wACAQAAAP//AP7+/gACA/8AAP8AAAH/AAABAwEAAP/+AP3+AQAEAQEAAQIAAP3//wAAAP0AAP79AAUBAwAB/gIA/f7+AP//AgAAAAIA+/v7AP8A/wD/AQAAA/0AAP8C/QAB/wEA/wD+AAAA/wD+AAAA/wD/AP//AAAAAAEA/f79AP8BAAAAAQMA/P7+AAMB/wD//gAAAgIEAAL/AQD//f8AAgIBAP39/QACA/8A/gH+AAICAgACAAAA/P37AAMFBAAAAAAAAQH/AAEBAAD+AQAAAwEKALuq3gD8+AMAAxAMAPv69wAGCAUAAQIMAO7j6gD+6PAAGvwDAPTv8gAaJSEA593aAOjVzAAGBgcADxgrAPz9AgAGAP8ADRMRABUYFADl5+MAAQICABMWFwAMEhUA/gICAP3+/gAPFhcACgsGAPwA/gD19/oA+PwCABUfGgAF/v0A2vLoAAkRDgALBgwACBIEAO7t6QDn0t0ADBkqAPDk7wD4+PsAIhgXAAgFCQAEJAYAAQ0AAAL1+ADq7vUAGhMWAAIC+gD09/gACRIEAPDv6QD/+PIADBUOAP4C+gAaFg4A0OTfAB4YIADYxdQAMzkNAAL/8wD7AAEA/wH/AAMA/wAAAAIAAgECAAIAAAD//wAA/wD/AP8ABAD/AP8AAf//AP4AAAD//vwAAAH9AP39/gD9/wMA/gEBAP7//gABAAIA/QADAP78/QADAAEAAgICAAD//gD+//8AAQIAAP7+/gABAPwAAAADAAEBAAACAQMA///9AP3++gACAgQAAP78AP7/AwD/AP8A/wIBAAD/AQD//v8A/wD+AAAC/wAAAQEAAf7/AP0AAAACAgEAAAECAP79/gACAAMAAAAAAAT+AQAAAP78AP8B/gD9//wAAAECAP4AAAABAP8A///9AP4B/QACAAEAAP/+AAEBAgAAAQIAAAP9AAD//wD+AgIAAv4FAP8AAAABAv4ABv8EAPz9/QACAgUAAQD+AAAA/QAAAgAA/P//AAEBAQABAf4A/wD+AAEB/gD//wIAAQEDAAAA/wAEBAMA/f7/AP0BAQADAQIAAwD/AP0BAAD/AAEAAAICAP3/BQAC//4A/QABAAQCAAAB//8AAP79AAADAwAC/f4AAAIAAAUBAgABAP4A/QH9AP4B/wAB/wMAAgD+AAAAAQD9/wAAAf/9AAECAgD/AP8ABP8FAAEB/wAAAgEAAf4EAAAB/AD9/gAA/wMBAAD+/wAD/wAA/QEAAAEBBwACAAAAAf8AAAAA/QD/AP8AAQEAAP39/AADAgYAAgACAPz//QACAv0AAgMDAP79AAADAgQAAf8AAP8B/wD8AP8AAv8BAAECAAAA//4AAgADAP//AAAAAgIAAgMDAAL/AgD/Af4AAP/+AP8BBQAA//gA3M/4AOvb5gAFCw8A9voHAAUGBQACAgcABQUKAAoTFwAA+vwA+f32AA8ZFQAABAQAAP7+AAQGCAAJDhgACQ0NAAMGDAD3+PQA7u7sAP8MBwAQGxUA+PX9AAAGBwD7+gAAExINAPf4+QD6/fsA08DLAAsLEgALEgsAAAL+AObg3wD/AgYAChcPAPr39QDt/fAA9unyAPDl7wAQFCAA/QoBABIjDAAC/fcA8fj7APEB8QAJAAIA9fn/AA4IFwANEwcA7uvwAAgF/gAC/gYADwcXAOnu4gDv/fYAGSUNAAQB9gDy8/MADwkMAO727wD8Dx8A3uDmACEfAgAHAAQA/f/9AAADAAD+//wABP3+AAECAgAC/gEA/gEDAP8AAAD///4AAAD/AP7//wABAAEA/f4CAAEAAAAC//8AAAACAAL9/QD9/vsAAgEDAP4A/gD+AQAA/f8BAAQBBAAAAAAAAP8BAP4AAwABAf8AAf79AAACAAD/AP8AAAD/AAEA/gD9/fkABAEGAP3//gACAf8AA/8BAPv9/QD/AgMA/wL+AAD//gD///8AAwEBAAEAAwABAgAA//7/AAIBAAAB//4AAAAAAAT///0AAgEEAPz/AQD+AAEAAQH+AP39/AACAgEAAwD/AP8BAQABAQUA/gD+AAMBAgAC/wAAAQADAP4AAQD//wAAAAH/AAP/AgD8AAIAAQP/AAD+/AAAAAEA/wICAAL9AAADAfwA/wD/AAICAAAAAAAAAQIFAP///QABAQMA/gD/AAMCAAD/AAAAAgIBAP8AAAABAQAA/v//AAACAAAAAAEAAP//AAIAAAABAQAAAQH/APz+/wADAAEA/gMAAP79+wAAAQEA/gEBAAAA/gABAAAAAP4BAAD/BAD/AwAA/v//AAEA/wD+Af4AAgEAAAP/AQD+AP0A/gIEAAD//QADAAQAAAABAAAA/wABAQEABAIDAP4A/wD9/f4AAP4BAP0A/gABAf4AAgIBAP79AgACAv8A/f/8AAABAQD9//0A////AAEBAgAB//0AAQABAAIBBQD+AAEAAgL+AAEA/wAB/wAAAgICAP8A/wABAP8AAP8AAAABAwD/AAIA////AAEAAQADAAAA/QD+AP/+/QACAxAAwa28APfz9wAIBgQADQ4NAP0FCAAHCAYA+fz5APr7AAAFBQ0ADA4QACUwKwDj4eMA/gP+AAINCwD2/PYACgIAAPoGAQALGBoA/O/4AAwOFAASFxAA9vT4ABANCgANCxMA9//0AAMA/wD05vEAFxgeAAoNDgADB/0A+f37AA4SEgD+/wMA/gMDAPr9/wAMEA8A/QEGAA8GCwAEDAkAAwv8AAIL+ADp1N0AGhQjABYaGQAEAw0AAQH8AAEI+QAAAAAAAgoDAAQPEQAMAwMA6/bqAPjw+wAGBBYA/u8IAPb6+wDr4O8A/QIFAAIACwAMEwQA+fUCAAf78QD9BPMAAgEAAAT/AAD9AAEAAQECAAABBAD+AQAAAP8AAAIB/QAAAQAA/v8AAAL/AwD/AP0AAf8EAAH//QAC//sA/wD/APwB/gD/AfwAAf7/AAEAAQD/AgEA/v7/APv/AAACAv4A/wABAP8BAgABAAAAAAEAAAAAAQD//v4AAgEDAAD/AQACAf0A/QD9AAAAAQACAAMAAAH8AP8A/gABAAAAAgABAP//AgAEAgMA/v/9AAECAAAA//4AAAECAP8BAQD+Af8AAAAAAAT//wIA/QD9AAAAAAD//v4AAQECAAD//AD+/wAAAQH/AAIBAwD+/v0AAQD/AP4A/wD9BAIAAP//AAH/AQAEAQAA///9AAAAAAABAAEA/wD+AAABAAABAv4A/f0EAAACAgABAAEAAwAAAAD/AQAAAgIA/gABAAEABQAA//8AAQECAAAA/gD/AAAAAQABAAEBAAD+/v4AAAMCAP4A/QACAAEAAAEAAAQBAQD+/wEAAP/+AAECAQD+/v0AAP8BAP4BAgACA/8AAP79AP7//wAA//8AAwECAAAA+wD+/wEAAgEFAAEA/wAA//4A//4DAP4B/wD+AAEAAf78AAEA/wD6/foAAQABAAIBAQAB/gAA/v79AP7+/gD/AAAAAAQAAAIA/gD+AP4A/f4AAAEB/gD///8A+/7+AAIBBAABAAIAAQH9AP8A/gABAAQA/f/8AP8BAgABAAAA/P4AAAQCAQACAAAA/v/9AP8AAgAAAAEAA/8AAAIBAAABAP4AAf/9AP4DBAAA/wIAAwACAAAEBwC0kscA9/H1AAkPEAABBwoABQUBAP399gD99/gADx0ZAAUKDwDv4ucA+//1ANzh3QAA/gMA/wMEAAMDBwAFCw0AChcSAPwEBAD2+vcABAH/AO/r6wD8AAEADg4LANjh4gAAAecAAgj/APLo8gAUERcACxIEAAgP/wDq9OwACw4PAA4ODQD08PQAAgwBAP8B/AALDggADBALAP0cDgD+BgAA/QP6APLj5AD57gQA5vjuAOjz5gAlKyEAEQ0KAPLy/AAXDhsA9xAGAAQAAADu++8A9P/wABgjIgD6+AAA/wD8AAMCAgAFAA4ACwocAPvv6AD78/UAGBUSAOXh8gAPGQ8ACQ3xAP0A/AACAAEAAP4AAP4B+wAAAQQAAwAAAP8AAAAB/wEAAQD+AP4A+wD/AP4AAAH/AP39/QAB/wEA/fz8AP7+/QABAP8A/f/9AP4AAAD//QMAAwECAP8CAQABAP8A/f//AAIBAgD///4A/QABAAD+AAABAv4A/QD/AP8BAAAAAAEA//4BAAEAAAD+Af0AAP/9AAICAwAD/wAA//8AAAAA/wD+/fgAAgMCAAAABgD9/wAAAgECAAEAAAACAAIAAAAAAAQA/wIA/wD9AAH+/QAAAgAA/vz9AAMBAQD//wAA///+AP0BAwD/Af0AAwABAAQBAwD+/f4ABAICAAH+/QAAAQMA/wADAP8ABQD///4A/v7/AAEABAAAAPwAAAH/AAEDAgAA/P8A/f/+AP8BAwAAAAAA///+AAQCAwD/AAEAAAEAAAEAAQABAP8AAQIAAPz+/AADAv8A/wD/AP8BAQD//wAAAgD/AAAB/wAB/wEABQEAAP7/AQD8Af0A/wEDAAIBAgAA/vwAAQD+AAEAAAACAgAA//78AP8BAgD+AAMAAQD+AP8BAAAA/wAAAAABAP/+AAAAAAAA/AD9AP8AAgD9AQAAAgH+AAD/AQAB/v8A////AAD//wAEAP8A/f3+AAECAgD+/wEAAQMBAP7+/QD///8AAAIBAP///gD//v0A/gADAAACBQABAAEAAAEBAAAAAgD+//8AAwEDAAD/AQAAAgAAAAEBAAECAQAA/wIAAAAAAP8B+wAAAQIA/gABAAL//gD/AAIAAQMFAL+l0ADi2ucACxAVAAYKDAAIEhEA+wEBAA0SEQDz7ewA9eXnABMhBgAPEwwA8e3rACAXEQD08fEA9O/tAP/9+wAFCgYA9/rxABAPEwD46/sAERkZAAMJBwAeHB0A5OroABIcEgAIBAMA/Pr8ABYTGAAOEAgA2+HeAP/+/gAMDAYA9vfsAAwNDwAFCwMA9fIEAP0B+QDu9OEAGhsSAPj3+QD59v0A9OnzAPLm7AALEhQACRAIAA0YDADf3e8A3P7zABQgEwAHDPQACgkFAPP3+QAFAf4A8vAAAAUA8QANDgQA/gH3APDu8wD+BQ4ABAUDABUYKQDi/c0A6fHyABkWEgANFfgA/fjzAP//AAAAAgEA/wD9AAD/AQACAP8A////AAAA/gAAAP4AAf7/AP///AD+//4A/P7/AAH//QD//gAA/wEBAP8BAwAB/f4AAAH/AP4AAQAAAP8AAQAAAP/+/gD/AgQAAAD/AAD//gABAgMAA/8CAP8A/wD//v4AAQEBAP7//wAA/wEAAP8AAP3//AAAAv4A//8CAAD+AAD8AAAAAf/+AAAA/wD//v8AAQIDAP8B/gABAQMAAAAAAP/+AAABAgIAAAAAAAT9/voA/wACAAEAAAAC//sA/wAAAP7/AgAD/gEA/wD9AP8BAQABAgMA/gH8APv+/gAFAwMA//77AAABBgD8AAAA/v77AAMBAAAA//4AAv/+AAEAAAAA/gEAAv8BAP3//QAAAQIA/v8AAAAAAwD+//4AAQH+AP8A/gD/AQEA/v/+AP8AAAABAAEAAP39AAIAAQACAAEA/gACAAMABAAD/v8AAgIAAP3//AABAQUABAD+APoA/wACAAUAAv7+AAAA+wD8AP8AAf8AAPz//AAEAAEAAAACAP/+AQAAAgIAAAH+AAEABgD9AP8AAv//AAIA/AD8//4A/wADAP7/AQAEAQIA/f//AP8A/wAAAf8AAAD/AAH//QD/Af0A/QACAAL/AAD9APwAA/8AAAEBAAAA/wMABAADAAH/AQD+Af8A///9AAD/AQAAAQEA/gD/AAMB/wD+AAEAAAEAAAEBAQAA/wIAAAD/AAAA/QABAgIAAv/+AP/+AQD9AAIAAAEBAAAA/wD9/vsA7+X+ANzN6AASFx8A+gEAAPr19wAHEPcABgsQABQbHAALHBgA9ujrAPbr6gD8AwcADRUXAO/h5QDy9PAABwoQAP0FBAABBwYAAQMGAP78AgAcIR8AAP/6ANzRxADu7uIADhQTAO/v9QAQDQkAEA0PAAIJAgDe5eAAExcQAPj29AAC+/cACP/7AAMGEQAbFxgA+vv8APb48QD09/oA5ubnAP8AAQAA/gUA//8EABAZFAALHA0A+Pv6ABYXFwAD/vkA8fn6ABkUFQD3/PcAB/75AOTi6gD//gYA/wEKAPwC9wD1+v8ACQUNAAYQ/gARE/4A6+7wAP8YDAAF9wEAB/gRANve3gAJ//QAFhEAAPsA/wAA//4AAP8BAAIAAwABAfsA/wACAP///gD/Af4A///+AAEBAQD+/v4A///8AAEB/wAAAAAA/wABAP8A/wD/AwMA//7+AAQCAwD/AAAA/wD9AP4B/wAAAAIAAwACAAIBAAD/AQEA/v8AAAEA/wACAAEA/v79AAEBAAD/AAEA////AP8B/QAA/gIAAAD/AAMCAAD+/wAAAv4CAP8B/wADAwcAAgEBAP3/AQD///4AAgIFAP8B/QD///oAAAAAAAQB/wEA/wD/AP3//AD/AgAAAAAEAAMC/AD6/wEAAAD9AAX/AQD//gAAAAMBAP8BAQD7/gAAAwECAAL/+wABAQIAA/8AAP8BAgAAAAAA/gL/AAEAAwAB/f4A/AD9AP8AAwD9/wAAAAH/AAD//QD9AP4AA/8CAAH/AAD+AvwAAQECAAL/AQABAQAA/wD+AAEAAwD+/wAAAQD+AAH//QABAv8A//4DAP8C/gD+/vsA/AH9AAH/AAAA/gMA/AEAAAH/AAD9AAAA/wEBAAIDAwD8/f0AAP/+AAIAAwAC//0AAP8EAP0A/QACAf0A/v8BAPsBAQACAAQAAAD/AP4A+QD6/wMA/v8BAAEBAQAD//8AAAABAP0A/wAA//8AAAABAAD/AAAAAAAAAQADAP//AgD8//sAAv//AP4AAgAB/wIAAgACAAABAwD9//sAAAEEAP8AAQAAAQEAAQAAAP8A/gD/AgEAAgH/AP8AAQABAP4A/gABAAD/AwAA/gAAAwH/AP8AAAAMBx4AsKK1AAYFCAAC/voAAfn8AAYMEQAEBw0ADhsVAPn89wAPGhcA+PLwAPPt9wAJGBQADx8eABYeIQDazssA+O/zAPvr+AABBwUAAAP6APL27AD6//QABwX7AC49KgAHCxIA+QAKABYAIQDe3uEA7vPkAB8nFgD5AfEA/wMIAO3n4gDz2+QADQ4NAP8Q7gDkFxEA+/8GAPvz8gD++/0ADRAJAAIH/QAXFhYA+Pj6APj49QAMCfkAC/v+APb27wARHBYAEwAAAP8H8wAB8fYA5e73ABkkFwAMBAAA+/3/APn+9ADn6PYADvsFAPby6AADDwMA5ODcAP794gAbDQoA0+DhACohIwAJ7NIAABP9AAP+BQABAv4AAf3/AP///QAAAgQA/wD/AP8AAAAA//0AAQEAAP7+9wAB/wAABQIDAAD6/gD8//4AAQABAAIAAAD+//8A/wEDAAAA/gADAQQA/f8AAAMAAgAAAAIAAgIBAAL//gD+/gEAAgIAAAH+AQADAgYA+/76AAH//QD//wAAAQH+AAH+AgAB/wAABAICAP///QAEAQQA/wD+AAEC/wAB/v4A/f4DAAIFBQAC//4AAQEAAAACBAD/AP0AAAAAAAT9APwA/wD/AP//+QAAAAQA/AH+AP7+/QADAQIA/wEAAP7//AAEAgAA/v0BAAAB/wAAAf8A//4AAAQBAQAC//0A/wADAPz9/AABAgIA///+AAD//gAAAAIA/wAAAP4A/gABAf4A/f//AP8A/gAB/v0A/wEBAP4BAgD//gEAAgIAAP///wD9AAEAAwICAP0A/gACAQIAAv4BAAEC/wD7/AMAAQL+AP/9AAAAAf4AAv8AAP7//wD/AP4A/f77AP7/AQD//wEA/v77AAECAAACAQQAAgACAP7//QD/AQMAAf/+AAAB/QAAAAEAAQEDAP8A/gD/AP8AAAAAAP4AAgACAAAAAwEBAP///wD+AQAAAAD+AAABAgAA/wIABAIFAAH+/wACAf8A/v/+AAD+/gACAQEAAAAAAAD//wD+AP8AAgECAAL++wABAgMAAgACAAL/AAAAAwAA/v79AAAAAwABAQAA/wABAAD/AAACAQMAAAAAAP0AAAAA//4A/P0IABEPMADNud4A/vUAABILCwAB+1XfygcAACAASURBVPwAEhQTAPgEBwD26+wAExUNAAkSBwAE9fYAGRISAP3w8wAJDQcA/f/4AObf2wD99fEAAwcFABgsKAD7/vsADhYQABQQEADw9PoACQ8PAOnh2gD/7vgADBERABMQ/wASHwwA9e/7APv5+AAEBAAA5eHoAP31BgD9+gwA9vUEAAgKAQAD/vsACxYQAPoD/AAG/QEA8vr4AAH3+ADn6tQADBINAAj+AADv6vYA7d/jAA0gIwANFu4ABgsJAPv9/wD++gMAHB0eAPfx6gDb3+UAFB0ZABAMEAASCQgA/PruAAgD/QD1+P0AExQTAAwD/gAC/u8AHuPeABQTEAAaHSIA7/7ZAP8A+wAB/QMAAAH9AP8C/gD+AP0AAP8BAAEBAQD//QEA/wD/AAEBAwABAf8A//0AAP8B/gABAQEAAf//AAIB/gAC/gQA/QH/AP4A/gD/AAAABAQFAP//AAAAAQEAAQD/AAEABQADAAAA/gD+AP4AAAD9AAEAAAAEAAEBAQAEAPoAAP8AAP4BAgAAAP0A/QH9AAAA/wABAP8AAAD+AP0A/gACBAEA///8AAH+AgAAAgQA/wACAAD//wABAQMAAAAAAAT9AP4AAQEBAAABAwD///8A/wD6AAIBAQAA//8A/QIAAAABAAD9/v0ABAIEAP3//wACAP8AAQD+AAD/AgD+AQQAAAACAAMC/wD9/v0AAAAAAAABAgD9//8A//36AAABAgD+/v4AAQEBAAH/AwD/Af8A/wD9AAD/AgABAAAA//4AAP0A/QACAAEAAP4EAAICAgAA//sA/P/9AP/8BQAAAQEA//3/AAAA/wAAAv4A//79AAABAgD9AP8A///9AAEAAgAA/wEA/wEBAAH+AAAAAAEA/P8AAAEBAQACAgIAAP8CAAAAAgACAQMAAAECAP8AAgAB/wIA/gAAAAH+/wAAAP8AAAABAAAA/gD+/wEA//8AAP8AAQABAP8A/v/8AAEAAQAB//8AAAEAAP8B/wD+AP4AAQACAP3//wABAAAA/wD/AAEC/wADAQEAAAAAAAIA/QD+/wEAAgIFAAABAwABAAAAAQAAAAAAAAD///8A/gD+AP/+/wABAAwAFA83APLvGgDp3sUAEwsHAAT//wD5AAEA/ff6ACMbFADuBP0A+ernACMUGQAtKi0AOTc3AKixsgDP3NgAAPz2AAwOEwDf6eUAIiwnAPD48gAcICIAEBcNAPsABgANDAYA9PH3AOjg+gAGBfgA+/0BAPLy8QACBAIABgT/AAgBCgD98/cABv8IAPYB+wAGEQkABQUDAPTs6wDx59oAEh4dAPzw9wDz+PoA/QIFAP/6/QAC/fgA9gXuAA0NCwAQDwcACAcKAPz0/QAmJBAA+f78APj+/QACEgMAB/7uAN/a5gD27v8AAxcLAP/+/gAwEP0A5OPrAOQIDQALCgMAEAcFAP/48QAUBwQADBUTAAfp6ADT9v4AGx8CAP8HAwAA/AAAAQACAAH+AQABAf4AAAH9AAD+/wACAgIA/f74AAD+/wACAP0A/wH/APsC/gABAAIAAv8CAP4ABQD+AQAABAECAP7+/wD/AQMA/wAAAAEBAAAAAQEAAQAAAAEBAwD+//0AAgABAAEDAgD9//oAAv8BAP7+/wABAQMA//77AAAA/wABAf8AA/8BAAIBAgABAQIAAQIAAAAAAgD//v8ABAQCAAEBAwAA/v8AAQL+AAICAgD+/wAAAAAAAAT/AQIA////AAH/AAD/Af8AAwL/AP8AAQAAAf0AAQH9AP7+/wAEAwgA/P/9AP7+AgABAgEA/f78AP8CAQABAQEA/v/+AAEAAwAA//4ABAIDAP7//wAD/wEA/AABAAH/AgAC//4A/gAAAP8BAgAAAAIA/wD/AAH/AQD+/v4A/gABAAMCAwABAP4A/v/9AAAAAgAA/gAA/wICAP3+AAD///cAAwIEAAEA/wD+/wAAAAADAAD//wAAAAAA//3/AP//+wABAQQAAf8DAAAAAQAA//8AAgMCAAL/AwAB/gIAAAICAAACAAD/AP8AAAAAAAEBAwABAgEAAv4AAAIC/gD+/wEA/wH+AP/8AQD//wIA/f/9AAL/AgAAAfwA/gD/AAQAAwAA/wEA/P4AAAAB/gAAAAEA/f3/AAIDBAD//wAAAAEBAAICBgABAQQA////AAAAAQACAgEAAAEBAP///wAAAAIA/v/+AAMBAgAAAf8AAf8BAP7//QAPDR0ABAAWAAoKAgAD8eoACQAJAAIGAQAEA/8AAgMFAOTf4AAFBAIA/gcEACUjIwBIQEEABAMDAHZkZQCUoqAAw9nYANrZ3QApLSgA6OztABYfHgAEBvYADQkPAPr+/QAA//4AAfoDACAmFQAMDAsA69zTAAYVEgD6+f0ADBEPAOjd4QD67fsA+vbrAAMECAAEAgAAERQNAA7//AD06f4A99rkAA4QEQAQDQ4AFhoVAAwNCgAGAPwAJiQiACkpJAAOCAcA5efpAAMDBQARFRcACQgCAAMEAwDb4N8AwM/WAAv4BQAODP0AHgL6ACYPFQBaRD8Au8rPAKfDyAAa+AYAFiQaAE87UgAJAAIAre6nAP8K7gAX/uoAAAkDAAP9+QD/AwAAAP8BAAEAAAACAP4A/gAAAP8A/wACAf4AAQIAAAMABwD+/v0AAAH7AAMAAAD/AAMAAQEBAAIB/QD9AAAAAQEGAAH+AgD6/P0ABgQEAAP//wD9//4A/gD/AAMAAgAAAf8A/wABAP///gADAQEABAQAAAH8AgD9/AAA/wECAAIBAgAB//wAAQEBAP8AAQACAAEAAAAAAAIBAQD/AAMAAAICAAABAAABAQAAAQH/AP7//gABAQEAAAAAAAQE//4A/wH/AP0D/wD/AAEAAP7/AP8AAAABAf8AAP8AAAIAAQD9/v0AAAEBAP8AAAD+/gAAAQEBAAIBAgAB/gEA//8AAP8A/wADAgIA/QACAP4AAgD/Af0AAAICAP77AAAAAQEA//7+AAEBAAD/AQAA/f0BAP8B/wACAf4AAP8AAPz+AAD/AAAAAAMAAAL//gAB/wEA//3/AAH//AABAf8A/Pz6AAMCBAD9AQAA/QD/AAEAAAAAAAAA/f8BAPwAAgAD//8ABAECAAH/AgAAAwAA//8CAAEBAQABAP4A/gACAAD+AgD/AgIAAP8CAP/+AQABAP8AAQIBAAEAAAAC/wEA/Pz+AAD/AAABAP8AAAAAAAIB/wAA//8A/v7/APwAAAAAAP8AAQQCAP///gADAAEAAwIEAP7/AAAAAv8AAgAAAAEBAAAEAgAA+/4BAAMABQD8AP8AAwD/AP8A/wD+Af4AAP4AAAAA/wD//P8AAAEDAAQBAgDw8OEA8f/qAOTD4gARAf0A/AUIAA4KDAD3+PIAMS4uAOHn7QDu9/IA5urmAPfu7wD7+foACA8NAAD+/QBVSksA9vj9AMjw8wA7LikA1eHoAPb5/QAH9PoA8eLmABwSFQAeGxgA2/biAF1KPwDd6OYAEiodAN/q7gC0trYAVWhiAPv8AgDc2OMACwsJAAEDAADx9PkA1tPMAGtqYQDa3ukAICEfACAgHQAQCAYACwwKAAoHBgADAgIAAAD/AAQCAwACAgEAMCopAP//AAABAgIA/P3+AAADAQApHSAAPTAzAOvt8AADAQAAIB0XAPDx8wD19vcAKh4bAIxjWgD78/EA0+XoABQNEQAKBAUAOkJFALy7qwAHE/wA/wD7AP8CBQAA//8AAAH+AP7/AAD/AAEAAQD/AAMCBQD9//sA/wAEAAAC/AABAP8AAP/+AAMA/gAAAAMAAP0BAAEABgAGAgIA/P//AAADAgACAgMAAQABAAIAAAD/AQAAAAD/AP3+/gABAAAA/gABAAMDBQAA/QEA/wD9AAAB/gABAvsABAEBAP39/QAAAf8AAAIBAAIBAQADAQEA/wACAP4B/gACAf4AAf0AAAIDAgABAAEAAgEBAP8AAAD///8AAAAAAAQAAQEAAAD/AAL//gABAgIA/v/9AAEB/wAAAf8AAP4BAAMBAQD/AP8AAQECAP4A/QAA/wEAAP8DAP/+/wABAQAAAgEBAPv+/wAAAQMA/wD+AAMBAgD///wA/v//AAACAAD//vwA////AAAB/gD+//8AAwECAPz+/QD9AP0AAgECAAH/AQAAAP8A//z/AP8BAAAA/wMA+v79AAMBAAD9/wEA/QH+AP/+/gABAQEAAv8AAP4A/wD/AP8AAf4BAAIBAQAAAQAA/v//AAECAQD/AAAA/wH+AAMBBAAB/wMAAQEDAAIAAgAA//8AAgIAAP4B/wD9/f8AAPsCAAIBAQD/AAAA/f8AAAABAQD9/voA/wAAAP//AgD+/wEA/f0AAAMCAQACAgMA/Pr9AAIDAgD+AQAA///9AAQDBAAB/gEAAgQEAPz//wD/AAEAAQMBAAAAAAAEAAAA/P3/AAABAAD9/voAAwAGAAD//wAAAAEAAP/8AP7+AAD9/vQA/+rwAPbY6AD9/wwA+/77APn/+gAeGBUA/vb6ACMZHgAA5uQAFx8TABP8CgCqlJ0AQ09JACEpJQAIBgcAJCIoAEpHRQAMDw0ATUACAAoFBQD+/PwABQIFAPkC/gALAwYACzg5AAYHBQA3+CkAAgD+AMzW3AD+8PQALCMpAAUFBABDNTQACwYDAPb2+gDt+fkA90M4ACgfHQAoKvkAEAsLAP79+wAGBwcAAP//AAQDAwAEAgIAAAEBAAIBAgD/AP8AAP/+AAQCAgAAAQEAAgQBAAEAAAABBAAAFREQABURDQAA/wIAAAD/ABYUCADf498AFxYVABIODgAB/hoAAgwPAAD/AAD3+vgAx9nQAAkOGwAG8/UA8hHtAP3++QABAgMA/v3+AAEBAAACAAIA/wD/APz+/AD///8AAQH9AP7/AAD/AAAA/wECAP//AwAA//8AAgMBAAEBAAD/AQEAA/8EAP///wABAgAA//8AAP4A/wADAQAAAv4AAPsB/wABAQQAAf8BAAD//wADAgIA/v8AAAEBAAADAgAA/f3+AAIDAAAAAAEAAP/9AAADAgD8Af4AAwICAAP+/gD/BAAAAQACAP8A/gABAQEAAf8CAP8AAQD/AAEAAAAAAAT/AAIAAgEBAPz//AD//v8AAQEBAP7+/QABAQAAAQAEAPsA/QABAP8AAf7+AAABAQD+/wEAAv8BAP4CAQD5APwAAv//AAABBQD+/gAAAQL9AP39AgAAAQMA/v7+AAEA/AD/Af4A//4CAP7+AQD+AP8AAv/9AP79AAD9AQEAA/7+AAUBBQD+AP4AAQD/APr+/wAAAPkA/gH/AP0B/wD//gIAAQEAAP4A/gAAAQEA/QD+AP4A/wABAgMAAQAAAAP/AAAAAAEAAwIBAP8AAAADAAcA/gD+AAH+AQD+AQAAAQD+AAL/AQD/AwMA/gABAAD+AAACAP8A/wD/AP3//QD///4A/f/+AP/+AgAAAP4AAP8AAP/+/wD+//0AAAABAP///wD9/f0AAQD/AAIABAD+/wAAAAH+AP//AQABAgMA///+AAYBAQAA/v4AAAMEAAIA/wD8//8AAwECAP3+/QAD/wMA/v/9AP8BAAD+AAEAAQD+AAH+AwAK/gQA49DpAAYABgD0+vsA9fr8APD18gAAAPkAJScrAOnl7wAoHCEAERQUAAEFBgApIygA2sLOANPHyQAyRkEAJCAcABQREwAQDAcABwIFAAQCAgAHBwQA/AAAAPPy9QACAwEABwgJAAIAAAAMCgMAAP8AAC4lIgAqIiAAAQMBAAD/AAAPDAoAAgEBAAUGBQAQ/w4A9QwMAAQEBQAKBv4ABwYDAP4BBAAEAAEAAwMCAP/+/QAAAgEAAgABAAAA/wABAAAAAQAAAAAB/wABAAAAAQEBAP7//gAAAAEAAQABAAABAwAAAQAAAAABAAEA/wAZGBsA/v8BAAAAAQDl6usA0M/SAAIFAQDf4d8A6eTjAArs7QArOjgA9/vOAPwD/gAAAP4AAAH/AAAAAAAA//8A/v//AP8B/gADAf8A//4HAP//9wD+Af0AAP/+AAIAAQAAAAAA/gECAAMCAQAA//0AAgIBAP//AQD9//4AAAEBAAIAAgADAgEA/gD+AAUBBwAA/QEA/wH7AAAA/wD///8AAP8AAAICBQAA/vsAAQIAAP0A/wD///wAAgMEAAAAAQABAf8AAAD/AAICAwD+AAAAAQD/AAD+AgAAAQEAAQIBAAD/AAADAgIAAAAAAAM0SRyA/gD7AAAB/wAA//4AAP8AAAAB/QAAAAIA//8AAAIDAgD+AP8AAv8CAAD//QD//wAA/wD+AAEAAAACAAIA/v8DAP3//gAAAf4AAP8AAAH/AAAAAAAAAAACAP7//wD//gIAAAEAAP8A/QAB/wEAAP4AAP///gABAAMAAQADAAAAAAD/AgIAAP8BAAEA/gD9//wAAQACAPv8/QD//v4AAP//AAD/AgAA/wIA/QAAAAAA/gD+/v8A/QD9AAD//gAAAgQAAwEAAP8ABgADAAMAAAACAP8B/wADAAIA/gABAAAAAgAAAAEA/f3/AAAAAQD+/v8A+fv5AP8AAAD+/P4A/f3/AAAB/wAA/f0AAf8BAP0AAAD+AAEA/wAAAP//AAAAAAAAAQEBAP8A/wABAAEAAQD/AAIA/wD/AAEAAQH+AAEC/wADAQIA/gAAAAAA/wACAQMA//7+AP8AAAAC/wMA/gABAP7//gAB//4AAv8AAAP/BQDv0uoA9d3/AAD/BwD+AAQAAgIFAAUCBADt8e8A4+fgABoPDgAVEBAABQYIAAYLCQAACgMA/P/7ACMoJgAkKyYAAwUGABIMCQAEAQIA//7/AAgJCAADBAMAAQAAAAMCAwAKCAcABAQCAP8A/wAEAwQAAgEDAAUFAwAMCwoAAwACAAIEAwAHBAQA/v7+AAMEBAAGBQYABQUFAAABAAAIBgYAAQIDAAL//gAGBAIAAQEBAAMDAwD8/PwAAAEBAAIBAQABAQEA/wEAAP7//wABAQEAAQEBAAEBAQAAAAAAAAAAAAEBAQAA/wAAAAAAAPn6/AD+/gAABQYFAAUCAgALCwoAGBgXABYTEwAvKCgAODExAOff1AC4wsMADwYSAAYSAQD+//gAAQECAAECAAD+//0A/wD9AAIA/wAAAAAA/gH/AP7//AACAQEAAgAAAAABAgABAggA/P/7AAEB/QD/Af8AAQABAP8C/wAAAQEAAAAAAAMBAwACAQQA/wD/AAEAAAACAgAAAwD/AP8A/QD+AP8A/wEAAAH/AQABAP4AAf8BAAEBAAAAAQIAAgIBAAECAAACAf8AAgEAAAEAAQACAv8A/gEAAAMBAAADAwEAAQD/AAMBAQD/Af4AxrLfgQQDAP8AAAD/AAABAAD9AAAA/wEAAP//AQD+//8AAQIAAP/9/gACAAMA/AD+AAIBAQAAAAMAAP//AP4B/QD/AQEA/gABAAEDAQD+/v8AAAIAAP8BAQAA//8A/wAAAP8BAAD+AP8AAgEDAAD/AgAAAAEAAAL9AAMAAAD//f8A/QD+AP8AAQAA/P8A/wACAAMAAgABAAMA/v0AAAH+AwAA//8A/gH/AAICAAD8/vsAAAMDAP39AQACBP4A/v4AAAEBAwAB/v8A/AECAAMCAgAAAQAA/wEAAAD+AQD+//0AAAEDAAEBBAAB/gAAAv8AAAD+AAD+/f0AAAAAAP3+/wD9/f4A////AAH+/wABAAEAAgD/AAEBAQD9//4AAQEDAP7+/QAA//4AAgMCAAIDAgACAP8A/wAAAAICAgABAP8AAwECAAD/AgD9AQIA//8AAAAAAQD//vsAAP8AAAQBAgD+Af0AAf//AAD/AAD/Av4A///+APnx/QDw1fQAAP4MAAIBBAABAQAA/wD4AAcGBQAHCxgA6+7oALLHvgBkSVsAHR4UAAYXDwAhNy0A+wUCABwaGAD7/P8AGwsEAAgHBQD9/wEA/Pv7AP7+/wACAQMAAQIAAAUE/wACAgMAAwECAAEDAQD9/f0ABQQEAAQDAwACAgIABgcGAAL9/gADBAMAAf4CAAMEAwACAQEABQUEAP7//gAEAgIA/v/+AAMAAgD5+/sABwcHAAEBAQABAgEA/v7+AAEDAQAA//8A/v7+AAIBAgD8/v0AAgECAAMCAgABAQEA/wD/APz8/AD///4A///+AP3//gAAAwQA+fn5APb+/wABAP8A+fj7AA4PEAAA/fkAoKOZADYZ+gAOEh0A1fv8AAX6/QABBgAA/QD9AAEBAgD//gAAAAAAAAEB/wD9//sAAP//AAMBAAD9/wAA/wD/AP3/AQAAAfoABQIAAAIAAgABAAIAAgH/AP4BAQD9/gAAAwEDAAIABAABAQAA/wQGAP/+/gD//vsAAAEBAAL/AwACAf8A/f78AP8B/gADAgMA/gH9AAH//wADAf8A/QD/AAQA/gACAP8A////AAMCBAD9/wIA/wABAAAB/wABAP0A/wEBAAH/AAAEAQMAAAAAAAT8AP4A/v//AAH/AAAAAAEAAP/+AP8A/gD+AAEAAv4BAAEAAgD8AP0AAAH8AAL/AwABAQEAA/8AAP8AAwD+//8AAgL+AP/+AgAA/gEA/f7+AAIB+wABAAIA/v8BAP8AAAACAAMA/vz6AP8B/gABAAcAAgABAP7+AwAAAAIAAf//AP3+/gAAAQAAAQAAAAH+AAD/AQQAAAD/AP/+/QAAAP4AAP//APj++gAAAgAAA/8CAP8AAgD8+/4AAAAAAAADAQACAAEA/v8CAAL//wD+AAIAAf8AAAIB/wAAAAIA/QH/AP7//QADAAQAAAAAAP0A/QD9AP8A/f39AP39/gABAQAA/v8CAAD+/wAAAf8ABQAAAAABAAABAQIAAf4AAP8AAQD+//4AAP4AAAAAAAAAAQAAAQEBAP8AAAAAAf8A/wD8AP8BAQD/AQYABAECAAH8/wAAAwAA/gICAAL+AAABAgEAAv7+AAAAAAABAAQAAAECAOrT6gD++wcA+/f1AAMECQACAgUABQUGAAkJCwD9AwYAExIDAP/xCwAwMDYA+Pn9AAwQEgAECAkAAggFAP//AQAICAUACgcHAPv9/gADAv8AAgIEAP7+/wADAwIA/fv9AAoIBwD2+foAAgECAP79/wD//v8A/v7/AP8AAAABAQEAAgIBAAcDBQADAwEA/Pz+AAMCAgADAQAA///+AAL/AQD//v0A/v/+AAIDAwAFAwMAAf//AAABAQACAQIAAAEAAP39/QD///8ABQQEAAEAAQAAAQIA////AP///wAAAAAA/f7+AO/w7wDT09AA9fLyAA0REgD+/v0ABP78AAMHCAD7AQYAICIoAPPx8gCho5sAFQPwAN3k7AAtQkAABPLmANv62wAAAfwA/v8AAP/+/gD/Af8A/f/+AAP+/gD/AP8A/wD8AAEBAAAAAAQA/v8BAAIBAgAAAP8AAAABAP0AAwAFAAMA/gD8AAD+AQAFAwUA/QABAP8CAwAA//8AAP8BAAACAAD+/v0A//8AAAACAQD9/f8ABAEBAPz//wD/AAEAAAH/AAIBAQD9AP4AAAL+AP3//wAEAwMA//8AAP8B/wADAAIAAQEAAAIABAADAP8A/QEAAP4A/wAB//4AAAAAAAT+//0AAgAEAP3//QAA/v0AAAEAAP8AAQACAgIAAP7+AP7//QD+AQEAAf4AAP4BAQAB/voAAQIDAP0A/wAA/wMAAf7/AAD//QADAQEA/wACAP8AAgABAAAAAAD8AAD+AAD9//4AAAECAAAABAAA//8A/gABAAEBAwD//wAAAAD+AAAAAAD///8A/v/8AAD/AgD/AQAA/f7+AAAAAQD///8A/wD8AAEAAwD//wAA/v37AAD/AgABAgIAAAD8AAIA/wD+/v8ABQL+AP7+/gACAgAAAAACAP4B/gAA/wEAAAAAAAACAQD8//4A/gD/AP78/wD/AQMAAAEFAAAB+wD+/v4A/gD9AP//AAD//f4AAAAAAAIDAQD9AAIAAQD9AAAAAAD9/wIAAP4AAAL/AQD/AgAAAgMAAP3+/QADAgIA/f0AAAEC/wAAAPsA/gIGAAECAAD//wAA//7/APz//wD//gAAAAABAAAA/wD7/fwADPkKAO3Z8wAD+wUACgMEAAMDAQD+/QEAAgEDAAMDBwADBAYA+P/4ACYkJwAAAgMAAf37AOng4gAZMyYA/fv/AP38/gACBQAA/P39AAICAgD9//8A////AAMCAgABAgEAAwUFAPz+/wAEAwMAAAEBAAICAgD8/PwAAQEAAAQBAwAA/wAA////AAMCAAABAQEABAQDAP///gD///8A////AAABAAADAwIA+/j6AAADAwD///8A/P39AAP/AAD7/PsAAgICAAAAAAAAAAAA+/v8AP3+/QABAAEA+/z8APf49gAAAAEA9/j5AAMAAQAoJysA8fPxAAQEAQD06eMA7N/eANnb3wDf6O4AS0Y1AObi1gD/6tUA7wIBAC0WEwCflKEA/iQkABoyBQD9AfsAAQD/AP8AAAD/Af0A///+APoB/AD8/vsABAABAP//AAD///0AAgABAAAA/QAAAQAA//8CAAIBAwD9AQAAAAD9AAEBAgD+AP0AAAEGAP///AABAQMAAP/+AP8A/wD+AP8AAQECAP7//QD/AQAA+wABAAIB/wAA/wAAAP//AP4A/gABAAAABAD/AAEDAgD+/v8AAAIBAAEBAAAAAP4AAAABAAABAAD7//8AAQD/AAABAQD9//4AAAAAAAQC/v4AAQH+AAH+/QD/Af8A/wEAAAL/AQD9/f4A/f/9AAQBBAAA/gAA/wACAP7//wADAgAA/f3+AAABAQAA/wAAAAH/AAMCAQD+AAEA////AAD+/gD//wEA/wH9AAQAAwD//v8AoqosHgAAIABJREFU///+AAQAAgABAfsA/v8CAAIBAwD9/v0AAf/+AAP/AAD+/gAA/P//AP0B/wAA/QEAAP8AAAIAAgD8/wIA/wEFAAIA/gD//fwA/gMBAAL//wD//v4A/gD+AAEA/QD/AwIAAf0AAAYEAAD+//sAAwMHAPz9AAD/AP0AAf//AAEAAgD9/f4A/v/8AAIBBgD7+/0A/Pz6AP/++wD9/f0A/wACAP8A/wAB/wAA/AECAAP+AgAAAQEA/QD/AAMBAQAD/wUA///9AP4C/AACAQAA+/4AAAMBBAAB//8AAAECAP/++gABAwQA//79AP8A/wAA/wEAAAD/AP8AAQAA/wEA///9AAD//wAJ+wMA27nZAAf7BQAGBQgA/Pv8AAACAQD7/v8A/wL/AAIAAwAA/gEABgAAAPfw6gD49O4ACQIGAOHR0QDbGQsAIDU3AAADAgAD/wEA+vv8AAD//gADAwQAAAEAAAQCAAAC/vwAAAICAP///wABAQAA+fr6AAQEBAADAwMAAQH/AP7//QD+/QAAAQICAAECAgD//v0A/f0BAAABAQADAgAAAAAAAAD//gD+//4ABQUFAP79/QAAAAAA//7+AAICAgAAAAAAAAAAAPv7+wABAQEAAgICAPv7/AD8/gAA/wEAAAcLDgAB/wEACAn+AAQDAgDr7e0AFRUZAAIB/wAG//sA/frxACEIDQAZEs8AIO3NACUU+QAw+gAAwPEAAMIB/AAcKhQA+QoLAAL+9QD7Av8AAAABAP///gABAf4AAP/9AP8A/wD+/wMA/P/+AP4A/QABAf8A/gEAAAUABAAC/wIA/gH+AP8B+QAA/wMAAP8FAAIC/gAA/wEAAQD/AAED/wD//gAAAgIDAAD9AQABAgMA/v39AP4AAQACA/4AAP0AAAIAAwAAAP8A/AIDAAEBAQAA/v0AAwD/AP3/AwD/AQAABAEAAP8A/wAAAf8ABAABAAAB/wD+AP4AAgACAAIAAgD9//0AAAAAAAM0SBuA/v/9AP7/AAD/AQEAAgEBAP7+/wD/AAEAAP//AAEAAQAAAAEA/v8DAP7//QD/AAEAAQEFAP8AAgABAAIA/wEBAAD/AAAA/gEA//8CAAEAAQD/APwAAAACAP7+/wAAAAIAAP8BAAEBAQAAAQMA/v8BAAEAAgAB/wAAAQAAAP//AAAAAQEA////AAH/AAAAAAEA/P8DAAEA/AACAf8A/f/+AP8A/AD/AP8AAAEBAAAAAAAAAf8A/wD/AAEBAgAAAv8AAwEEAAABAAACAgMAAQAAAAIBAAAAAAAAAP//AAEA/wD//wEA/v/9APz8/AD6/v0A//z8APz8+wD+/v8A/f4AAP78/gABAQEA/gAAAAAAAAAA/wEAAgIBAAD//gADAQEAAQD9AAAA/gAAAP8AAAABAAICAgD+/f0A/wH+AP8A/wD+/wEA/v3/AAIAAAD9/wAA+/79AAADAgD//P4AAQECAPz5+wD75voA89XyAAL+BAAB/wMAAAQFAPwAAgD9AQMAAgIDAAwKDQABAAIA+vbxAObq4gDl4dwADwT9AAQA+AD15ekApaioAN7t6QDw9u8ABQMDABYUFQD9/v0AAAABAAEAAAD9/gAAAAABAP39/gADAwMA+/z7AAAAAAAAAAAA//8CAP38AAD9/v8AAgIAAAAAAAACAQEAAQEAAAAA/wACAgAAAf8BAAEBAQD5+fkAAwMDAAAAAAABAAAA/f//APz9/QACAQEAAAAAAPz8/AD4+PgAAQECAPz+AAD4+foA/v4AAPj6/AD7/v0AAQIBAOTp6AAGBQYABgYGAPLx6wDfzLsAAQUGANTVzwDt2NwAEwYEAO72+wAnJhgAFwcFANPO4gAKMRwA/BL8APoA+wABAvwA/gD/AP8BAQD+/v4A/QD9AP7//wAA//0A///+AP8B/QD9//wAAgD/AAAAAAAAAAEAAAAAAAACAQACAQMAAQAAAAEBAQACAv8AAAH+AAABBgAAAgEAAAAAAP7//gAC//0AAv8CAAEB/AABAAAAAgECAAAB/gAAAfwAAgD+AP///AABAQAA/wH8AP8BAQAA//4AAwEBAAABAAABAgEAAv8BAAIBBAABAAAAAf/+AP//AQD/Af8AxbLggQT9/gAA/wADAP///wAA/vwA/QD9AP4A/wD+/wIAAgABAP39/QAAAgMAAP4AAAECAQAA//4AAP/8AAEAAwD//gEA/v/9AAADBAADAAMAAQIAAP7+/wD/AP4AAP8AAP8AAAD//v4AAwEEAP8A/gAB/QAAAwICAAH+/gD///8A/gAAAPz//wABAwIAAf8BAAL+/gD+AP4AAAD/AP8B/wD9/v4AAQAAAP8CAQD//wAAAf//AP8BAQD/AP0AAgAAAP7//gAB//8A/v4CAAADAAABAAIAAgADAP//AgACAAMAAQL/AP7//gAFAQEAAP7/AAEDAAD+AfoAAQADAAEABQD+AAIA/P3+AAADAgACAAIAAAD9AAAA/gD/AAMAAf8AAAEAAgD///4AAQEAAP//AAD9/gEAAgEAAP3//AAA/wIAAP/8AAACAgD///0AAv/+APwCAwD+AQEAAQD+AP/9/AAAAAAA/P38AAL6AADm1u4A+vsDAAQDAgADAgMA+/3+AP8EBQD+/gEA/vv8APj79gD//P8A//77ABUQGADo8PMAqL23AA4PEAAdGR0A7vPuAAHNyQDVxb8A6Pn5ADg5OwBVUFAAKigqAP39AAAAAwIA+vr7AAMBAQADAwMABQMEAPz9/QD/AAAAAQH/APv8/AADAQQA/f0BAP7++wD9AQIAAQH/AAMAAAD8/gAAAQEDAP3+/AD+//8A/Pz8AP/+/wAAAP8A+v79APj4+QAFBAMA+PX2AAMDBAD9//0A+fj7AAYKCQDf4eAAExUVAAEEBwAPCggA7PHxAPv+/gADAQIA9vf1AKSZjgDz1s8AAPv5AAYABAAvHBUA+/b+AOX09AC3v9gAU081AFhFLgDB1+0A/RgCAPoL/wD+/gEA/wEAAP3++wAA//wAAAD+AP3+/gD//wAA/v/+AAEA/wAA/f8A/wIBAP8B/QD8AgEABQAGAP7//QABAQAAAgIBAAEABAD//wMA/wH8AP/++QAEAwcA/v/8AAAA/QAAAAEA/QD8AP7//wD/APsAAQADAAAB/wD/AP8AAgD/AP7//wAAAP8AAQADAAAA/wAAAf8A+gD+AAUBAwAB/gAAAQEBAP8A+AAAAQUA/v4AAAAAAAAB//8AAAAAAAQDAf0A/P4AAP7/AAD/AAEAAgEEAAAA/QAAAAEA/v//AP//AAD9/v4AAgADAAT/BAAA//8AAQEBAP3+AAACAQQA/wABAPz+/AABAP8A//7+AAEBBQABAAUA//39AAEBAQD+//0A/P/5AAQABAABAgEA//0AAP8AAAAA//8AAf8AAAP/AwD+/f0AAf8AAAICAwD/AP4AAQD9APz+AQACAQMAAAH8AP8BAQABAP8AAQP/AAD//QD//v8AAQICAP///QABAQMAAAEBAAH//wACAAEA//8AAAIB/wD//vsA/gEBAPz9/AABAQMA/f7/AP8A/AAB/f8A/v0BAP4AAAD///oAAQH+AAH/AQABAQQA////AAMCBAD9/v4A/P7+AAEDAAAB/wAAA//+AAAA/gAA/wIAAAICAP3//gAB/v4AAwEAAP8A/wACAQMAAAD/AP7//gAC/wEA/gH9AP4AAAD//wEA/vn9AP3f+AD96voAAwEIAAIABgD+AQMAAQMDAPr/AwAEBAcACAUFAPju6gAEBQcAFRMaABYQFQD69/IAA/nxAPT6/QDp7PYA6uznAAb28QA5IRYA+hMQAOPExgB6uLkAFx4dAEdSVABGR0wAAQH/AP4AAQAE+vwAAAH+AP3//wAAAAAAAwIBAP37/gACBAEA/gD8AP//AAD9/f0A/v79AAgICAD49/YAAP8AAP4AAQABAgIA/v33APv8+wACAQQAAP/8AAYGBgD28/kA/wQDANDP0ADDvr0A/gH/AM7QzwAD7OwAQD05AAMWGQD3+gAAP0dFAAkFBADp59QA18u7AAHXxwAc/gEA/v4BAPr8/wDw7/UAExEDAA0L/AARHhAAXoy+AFU5GgBXQzIA1//zANQB8wD6/f0A/wH6AAAB/gD+APwA+v7+AP8AAAD8/fwAAgAAAP7//wACAgIA/P8AAAMCBAAAAQMA/f/+AAAAAAD+//4AAP8DAAEB+wD/AfwAAP8DAAEBAQD9/PkA/wD+AAD+AgD//wEAAQABAAABAgAAAAcAAf//AAEA/QD/AQMA///+AAEBAQAA/gAAAQL+AP8BAgAC//8AAQIBAAEAAAAAAQAAAAD+AAH/BAD8AP0A/wL+AAD//QAB/v8AAAAAAAT//gIAAQABAAABAQD+Af8A//7+AAMCAgD+AAAA/gEDAP8AAAD+/v4AAgEAAP7+/wAAAgEA/QD+AAAAAAD//vwAAQECAAD+BAD+AQAAAQEBAP79/AAB/wIABAEBAP/9AgABAQAAAAH9AP7+/wAB/AAA/gD8AAACAgABAAIA/v3/AAABAwAA/v8AAv8AAP4B/wABAwQAA//9AAABAAD+Af0AAAABAAD/AQADAwQA/v/9AAEBAwD+APsA/f7+AAEC/gD//QIA/wMAAAL/AQD9/v4A/wH7AAUABAAB//4A/f7+AP8A/wD9/fsA/gD/AAD//gAA/wEA/wD9AP7//AD///8AAQAAAAICAQAA/wAAAgMCAP4A/gABAwMAAP8AAP///QD/AAEAAAH/AAD//wADAQAAAP79AP7+/gACAQIA/P/+AP/9AAAEAwEA/v8AAP7+/gAEAAAA/wL/AP///gAA/gMACPwJANXI3gAPAQwABgQHAP4CBAD8/v4A+f4BAAYICwAFAwYAFQwOAAUJBgARFRcA+v0JAA4LCgDm7+0AGRMeACQOFwD1+vYABf//AN7r2ACx7+0ACAgMAPT+/wAMEhcA/+vxAObS1gDOGhsAFRgcAPr39AAJBAQAHhscAAUEBQDw8vIA/f/+AP3//wAPCwoABP3+AAEAAgD9//0A7uvnAODh4AD29/gAICMoAAYKDAAPDAwAAQABAAABAgAAAQAA+/wBAAQAAgDKysMAx722ANjLzQD++vYA6vf8AA4SEAAYEQMAxr20ADs4LADP2OYAwbmwAPv49wBNLxEAQjEMAAwmBwDm2PEA9/4IAP76+gDR1OwA6PEPAFJRJAD/BwEARSgSACUZDwDZ7fwALT4kANjPxwD7BPwA+//+AP/+AAD9/vsA/wD/AP4AAAAAAP0A/gABAP7+/wAA//8AAQIAAPv+/QAB//8A/gEBAAH+AQAAAf4AAQH9APz+AgD/AgIAAQD8AAMABAD+AQMA/gABAAAAAAAB//wAAQH9AAD9/gACAgUAAgL/AAABAAD///8A/wEAAP7//wABAwEA/gH/AAEBAgD///4AAP//AP4A/wADAQIA////AAAAAgAB/wAAAgABAP0A/QD+//4AAAAAAAT9AAMA/P/8AAEB/gAE/gAA/wAEAP7/+wD//f4A/gAAAAEBAQADAAIA/f35AP8DAAD+/wMAAP8EAAH//QAD//8A//0BAAEBAQD//wMA/AD7AAQDAgD/AAIA+v78AAD/AgACAP8AAvwAAP8AAAD/AP8AAQAAAP7+/wABAP8AAQICAAAA/gABAP8AAwIDAPz+/QAA/v0AAgEBAAID/wD9/QAA/wEBAPwAAAD+/gAA/wEAAP3/+QAAAwEAAP4BAP4CAQAF/gAAAP/+AP8ABAD+/gAABAMBAAEA/wAAAAEA/wAAAP7//wAA//4AAP//AP3+/gD+AQAA/gH/AP8A/QD/AQIAAgABAAEC/wABAQAAAAEAAAD//wD+AP4AAgIBAAD+AQD/Af8A/v79AAQBBAD9//8AAf//AAH+/gD+Af8A/AIBAAL9/gAA//sAAAACAP4BAQD5//8AAv79AAIA/gAFAAwA1MDcABIIFAAD/wQA+v0EAPz5+gABAwYABQQLAAX/BAATDhIADQQHAAIJDQD9/AcAAfz8APL08gAUFRMABAcIABcaFwAABAQACw0KAPTA6wDz/PQA7vLyAAIPEgAfDQ8AHgkHAPzQzQDAzcQA3vH0AAsFAQDl8/cAHCwuACguKAAeISUAICIkAA8ODgDg6OMAy8fFAO7t7AAB+vkAHA8JAPYBBQDu9/0AAgMHACkpLAD9+/wA+v37AAMDAwDw6eUA1MW/AO3byQAA8usAEfsBAC0lEAANEycAs7zNAAP8+wBGPSgA1Mv6AAfw5gAzEvsA6/X2ANvw8wCrvesA+/IfAFVPIAAcFA4A09ThACwmGADU1/oA3trtALew+gBHUjcATTMDAPLz7gD5+g0An5XYAE9cOQC+4M8A9wH8AAD/AQD+AP8A/v7+AP8AAQABAAIA/v79AAEAAAAA/wAAAf4AAAIBAAAA/wEAAAMBAAEAAQD+//8A//7+AAAB/wAA/f8AAgEBAP//AgAAA/4AAQAAAP8BAAD///sA+///AAABAQABAfsA/QD+AP/9AAD/APsAAAD/AP8A/QD//wAA/wD+AAMBAAAAAQAA/wH+AAIAAgAB/wAA/gABAAAA/QD/AAQA+f/4AAAAAAABAP4AAAAAAAQC//0AAAAAAP3/AQD/AP4AAQD/AP79AgAAAAAABAABAP/9/gD+AQAAAwADAP7+AQADAQIAAP8AAAH+AAAA/v8A/v/+AAABAgD+AP8A//0CAP7+AAAAAPoAAQACAAL/AAAAAAAAAAAAAAH+/gAAAAMA/gH/AAMAAAD//v8A/AL+AAYAAAAAAQAA/AD9AAEBAQAAAQIAAv8AAPv//QD/Af8A/wH9AAD//QAAAQQAAAEAAAIBAwAA/wEAAAL+AP8AAgAAAQEA/gEBAPr/+gADAQMA/v4AAP0D/wD/Av8AAP4BAAAAAAAAAgEAAv8AAAIBAgD8/fsAAAIAAAUDAgD9//8AAgEDAAEBAQABAQIAAgICAP4A/gACAP8AAf4AAAECAgD+//4AAgIDAAEBAgAA/v8A/f/9AP8CAgAA/wAA/fv8AP8CAwD8/P0AAgL9AAAAAwAA/gAA/wIBAPr9AgD36PYA/+r8AAYMBgD9+wYA+///AAUECgD9AgYABAEEAAsICQD8+/oA/f4EABAYFQD8+voA+Pn4APwB9wDy+PkAHBwhAAEEAgDy9fIA4dvaACIXHgDz9/IA4fHnAOLy7wDv7gwAKiAZAP/49QAB+fwAKQsBAPDw8AAWCwgA/eLbANvVzADL9/oA9Pv8AAQEAAD4BgQAT2BkAElJSwD09PMADg8NAAcJDAD+//8Awry8AOvUyAAuIxsA+fz6AOzp5ADt3NwA++HiAB0gDADp6esAxuf3APcAAQBeXDMAEAPLABsJ+wAuGf4ALU8jABIMBACtqdMACxMNAHVvPADz5O4A7+LqANXA0QACCBAAHhYVABEWBwBAIDEA/wDaABkSAADEobgA+BceAElPLQDm7vcAPDEpALCwxwAMLgoA/wH+APz/+wAC/wAAAQD+AP8AAQD+/gEAAQAEAAIA/wAAAQAA/f/9AP79/QADAAAAAQD/AP4CBQD///0AAAEBAAL//wABAv8AAQAAAP4B/AAA//8AAQEAAAD+AAD+Av8AAv4AAP4A/QD9/wAAAAAEAP8A+gACAAAA/f//AP7+/wABAf8A/gH/AAL+/wABAQQA//7+AP8BAAD6//0AAgIFAP/9+gD+Af4AAf4BAP8B/gD//wAAAAAAAAMyRRyA/gEAAP8AAQAC/wAAAQAAAAEB/wD/AQAAAP/+AAABAgAA/wIAAQAAAAEAAwAB/wEA/v/9AP8AAAAA/wEAAAACAAABAQD+/v8A/wABAAABAwAAAAAAAgACAAP/BAAB//8A//4AAAEAAAAB/wEA//8AAP//AAABAAAA/wD/AP///wABAAIAAAIDAAEBAAD//v4AAAEAAAH//wD+AAAA/wH9AP8B/wD/AP4ABAEBAP/+AAAAAP8AAgD/AAL/AQAEAwcAAQABAAEC/wADAgQAAgECAP8A/AABAQAAAP8AAAD/AAACAQEAAAEBAAEAAAAFAgEAAAH9AAABAAAEAwAAAwIAAAECAAADAgIAAwIAAAUDAgAC/wAAAQICAAACAQABAQIAAgECAP4BAAD9/vwAAQECAP8AAQD+AP8AAAD/AP7+/wABAQEA/v8AAP3+/wD//v4A/v8CAAL/AQDnyusAHA0UAPr2/gD6/AEABAMGAAoHCgD/AQEA/f37AP39/gASCAkAFBAQAPz4+QD/+/8ACw0JAN7h2QAbFBgAGRwgAOnr6ADk3NkAAv/4AAMC/gD+/f4A9Pr4APP6+gD4+fUAAPv5ANLq6QDL6e8ADgUJABoQCwDa6e4A7/LyACsbAwAXFgcAA/8BABoMBAAbFBEA2tndAAsSEAAQEhgA1djbAOXk3wDg498A7NfPAN/PvwDxzcYAE/vlAO7b0AD38e4AvNfrAN3c7AD3BP4AEhcKANLb7AD57/QAamlLAEU1DAALCggA9vDvAAkPDwDz+P4ACAUGAO/q7wAUGA4ACA8GAAUEAgDJw+EAyd34ADMqEQAHCQIAAQMCAO78CABBSiYA4t/tAJOq0wAbGxAAKSYJAPfvDAAOFg0A8fXxAP8FAQD8//sA/wAAAAL+AgAB/wEAAQIBAAIAAQACAQEAAQAAAP3+AQACAAAA/wD/AAIA/wAAAQIAAAD+AP///gAAAgAAAgH+AAIBAQAAAAAAAAABAAAAAAAA/v8A//8AAP8AAwD/AP8AAQD9AAEA/QD9//8A////AP8AAAAA//4AAgIAAAEBAwD/Af8AAP//AAAA/gD/AQAA/v8AAP8BAgD+/v8AAP8AAP7+/QABAAAAybTkgQMvRxyA/v//AAIA/wAC//8AAQABAP4A/wD/AP8AAgEBAP7//wABAQIAAP8AAAAAAAADAQIAAQABAP7//wABAgEA/wAAAP/9AgD+//8AAP//AP3+/QAA/wAAAQACAP//AAD+//4AAf//AAIAAAABAAAA//8BAAL/AQAB/wEAAAAAAP8A/gD/AP4AAQH/AAACAAD/AAAAAAIBAAABAgD/AQAA/v77AAMABAD/AP4A/gIBAAAA/wABAwAAAQECAAAAAQD+//4AAwAAAAEBAQACAQMAAQEBAAIA/gD//wAA/wAAAAMDAAD+//wAAgD/AAMBAQD/AAAAAAIBAAIDBAACAQAAAQL+AAQDBQACAQIABAQDAAAA/gACAQEAAwICAAIBAQD9//0A/wH/AAD//wAD//4AAwEBAP7/AAD/AAAAAf8AAAD+/wAEAAMA///+AP4A/wD9/gAA/P/9AAP9AQAO/QoA9eb5AAH/BwD+/f8ABwcGAPz6+gAEAQMAAgEDAAwGCwAdGRkA293bABAMDgAOEA8A/QP9AOPk3gAfHh0ABggEAPDi4QAA/PgABgP/AP/9+wD5+vkABgYFAPr6+AD3+PUA4u/vAOr4+gD8AP8A6fX3ANnt8QALBAEA9Pr+ACINBQASDAkA8u/yAPv2+QAOA/4AA/v4AATi2ADRvbEADe3eAOC+vwD1284AIA77ADozGAAHCP0A0sjcABEcFAD+CgUABff+AEtXLAAvKA0AIxoPABwRDwBNSiUABQH6APPr+wAHDQMABwQCAPDu6wAjKB4A1drtABcYCwD9/fwACAsJAAgHBAAfHA0ApcPoALnO6gAjCwwAKTANANza7QDKy+0AQk8sABUI/gCoud8AzdLkAFZSKADAuNwAIiArAPz47wD+A/8A/gD/AP//AAAFAwQAAgD/AP8AAQD+/wAAAAAAAAAAAAAB/wAAAf8BAP0AAAAAAAAAAf4AAP8AAAD9AgAA///9AAEBAgAAAQMA//8AAAD/AAD/AQIA/wD+AAD/AQADAwAA/v/9AP8BAgD///8A/v/9AP7/AAD///8AAgIDAP7+AQAAAAAAAf4BAP0B/gD+/v4AAAACAPz9/wAAAAEAAP8AAP7/AAD+AAAAy7XkgQMvQxiA/gEBAP//AgACAQEAAgD/AP8AAQAB/wEAAAEBAAIBAQACAQIAAP8BAAMDAgAD/gEAAAABAAECAQAA/wEA/v7+AP7+AgAA/gAABAACAAIA/gAB//8AAf4AAAL+/wABAAEAAf8AAAD+AQABAAMAAgEBAAD/AAACAAEAAgEAAAEB/wADAQEA/wICAP7//wABAQEA/gAAAAEC/wD+APwA/gH/AAACAAABAAEA/gD/AAMBAQADAQIA/f7+AAEBAQACAgEAAwECAAIAAQD/AgAAAf8CAAIAAgD9Af0AAAADAAD//wAAAv8AAwEEAAEA/wD+Af4AAgECAAMBAQAAAAEAAgIEAAMCAwAFAwUAAgEAAAEDAQAAAgEAAv8AAAAAAAACAAAAAQH9AP//AAABAf4A/f8BAAEBAwD//f8AAgD/AP4A/gAA/wIA//8AAAQCAQD//v8AAAEBAAD/AAD65vsA+Ov8AAQA/wAFBQUA/vz9AA8LCwACAgYABwULABgSEwD9APcABQYHABwaHAAHCggA/AUCANnY1QAXDwcA7+7qAPXu7AD19vIABQUEAPz9/wD8/gAAAP79AAoE/wAJAv8ACggEAAL9/QAM//8A/P36AAD+AgBOJBIALiMKAPPw+gDQ2+sA5PP3AAULBQD6+/cA8PP7APL09gAxIxEA+/DwAP4A/AAE+fcA/fj7APHp7QAA9/kAFCIPABseEQD4+vkAscTiABAEAAAOFQ4ACf/4ABMXDAAHCP4ACQwNAJ6TvQDx9gAAISYXAAsH/QDh4eoACQwKAKqr1ADn4/EA/O3yABoVCAAUEwkAGgwAAL7T8gDt+gAA/Oj0AD1AHgDT0u8A0M3qAEVFGwAjGxCB/xPQAAAgAElEQVQAAwIJAOzi7QAqLSUA59/zAB0LGgARDQUA8Pz4AP4CAAAB/wAAAAIEAP7+AAAAAP8A/wD+AAH+AgACAAEA/v/+APwAAAAC/wAAAP//AP8BAQD/AP0AAQEDAP8BAAD///8AAgICAP7/AQAB/v0A/gD+AAAB/wD//wAA//8CAP3+/wAB//0A/wABAP7+/QACAv8A/v8CAAABAQD//gAAAgECAP39/gAA/wIAAwEDAAAAAAABAAAA/wIDAAMBAwADAQMAybThgQMvRReAAgAAAAIABAD8Af0A/gD/AAABAQACAQMAAgMBAAIA/wABAQIAAgADAAEAAQABAQAAAQIBAAD//gAA/gEAAAABAP/+AQAB/wAA//3+AAL/AAAA/wAAAgACAP/+/gAAAP8AAQD/AAD/AQABAQIA///+AAAB/wAAAQMA/gD/AP///QACAAAA/P/+AAEBAQD/AP8AAgMAAP///QABAP0AAgECAP4A/wD+//4AAwEAAAD//wD//v8AAgICAAIAAQAB/wMA/QABAP4CAQADAQYAAAECAP8B/wAC/wAAAAACAAEAAAACAgEAAgECAAEB/QACAgAAAwADAAMC/wABAP4A/wH+AAYCAQADAgIA/wL/AP8B/AD//wAAAAMCAAAA/AABAf8A/gAAAAEBBAAA//4A/gABAAD+/wAA//8AAQEAAP4AAQABAAEA/gACAP8AAwD9/wMA/v7/AAf5BQDvz+8ACwIJAAcBAwD8/gAACQUIAP4CBgACAgcACwcLABIOCgDZ39UAFg0PABISCgD/APwA6uDhABEMCgD79u0A1N/cAAsMDgAJAwQA/wD7APf59QAEBAYA/gL/AP79+gAEBAcA/f4AAAkGBgAUCQcADQQDAPD6/AAIBQYAKyIQAP/6+QDb6/MAGgoGAFBMJwA0PCEACgP8ALLM6AD8+fsA0+buAOr5/gAjLBoA/PzvAN7j9gAI/wEANDASAAYF/wDj2ugA4/H/AL7U7ADy7PoADwkIACMkEwANDA0AEAb+AAIJBgCOqdIA29PlADcrEwAUFQwADgoGAC8dAQAuIg4A6+TuANPU7QAMGwkAJCAJAO/i+QAnIw4ALDASAOPh8QAaIRgAoLjXANHc8QA9NyMALioRAP38+wD9/P8A1dzuABQaEgARAQoA9ejzAA0JBQD6AwEAAQH9AP///gAEAQAA/f0AAAIBAwD///4AAAACAAMAAAD+//8AAAH/AP8AAAABAAAAAQAAAP8BAgACAwIAAf/+AAAA/wD+//8A/v//AP//AgABAQEA/wD+AAAB/gD/APwAAf8AAP4A/QAAAv8AAgEDAP7+/gABAQIAAAD/AAAAAAADAgMAAwEDAAMDBAABAQMAAwMGAAAAAgD//wEAybTfgQHPZjCZAzBFHoABAAAA/wD+AAEB/wABAAMAAQAFAAADAgD/Af0ABQEAAP4BAgACAwUAAQABAP8A/wABAAAABAAGAAIAAwAB/wMAAQAAAAH/AAD//v8AAQACAAH/AAAB/v8AAwECAP7+/wABAAEAAQECAAAAAgAAAP4A//8AAP8AAgAA//8AAgEBAP8BAQD/AQAA/wD/AP7//gABAf8AAgECAAEBAgABAAAA////AAECAQAC/v4A/QIBAP8CAwABAAEAAAD/AP7//gADAgEAAwACAAAABAD//wAAAAD+AAABAAD///4AAQMEAAQBBQACAP4AAQEBAAAAAAD9AQEA//4AAP8B/wABA/8AAgEAAAECBAAAAQQAAgMDAAECAAAAAP8AAwICAAABAAAAAAMA/v/+AP///gACAwYAAAABAAEB/wACAQMA/v8AAAABAQD/AQEA/wH/AP4BAAAD/wIA/d73AP3n/gAHBAcA9fn6AAQFCAACAgcA+wAGAAYABAAWFBYA4eTeAPH6+QASEBQABw4SAPTv8gADAAMAAf4BAAUA/ADx+vQA/Pz4AAQB/wD4+fkAAP8BABISFQD09vQAAQICAPf5/AD/AgYAEAkJABEHCAD+/vkA6/f2AAcDBAAoD/4A3OHxAN30+wABBP8APC4XAA0UFQC7ttQAVkMhACglCgALCgMA3Ob4ACsnFwBASCwAJyYPAPj8+gDZ2PAA+PwDAB4dDABDNxIAPCkaAPvy9wDh2ecAJR8RABQTDQAD//8AGxUGANPG4gAZFgkA38/jABYUBQANCwYAAwL3ABIUCgAXGQ8A//j8AKSx5gAKCQsASUsqACokCAATFA8A+PwEACAfFwAWC/4As9DxAMHL5AAA/wMANjQeAPHn4wA3NB4AsbnSANnZ6wA8LyYAFQgRABT8AAD68PMAAQICAP0ABQAAAQAAAQABAP8BAQAAAAEA/v/8AP8CAQAAAgEA////AAIBAAAAAAIABAEAAAH//gAAAgIA/AABAAH/AAAAAv4AAQL/AP/+/AAAAv8A/gH/AP7+AAD///4AAAEBAAIBAgAA/gEAAQECAAAAAQD///8AAQECAAQDBwACAgYABAIIAAMCBgABAQUAAP8BAAMBAwDHs9uBAzBFG4D+AQAAAAIBAAEBAAADAQIABgIBAAUC/wAAAQAAAwEBAAQBBAD8AP8AAwIDAAABAQADAQEAAv4DAP8AAAAAAAEAAv8BAP//AAD///8AAf4AAAIA/wD/AAAA/wABAAH/AgAA/wAAAgICAAABAAACAQAABAMCAAD/AAABAf8AAAEBAP3//wD/AQAAAgIBAAD//wABAv8A/wEBAP///wD+AQEA/wL/AAABAQD/Af8AAf//AAAA/gABAAAAAQIBAP4A/wAAAQEAAgACAP//AQADAQMAAgEAAAEA/wABAQAAAgEFAAMAAwAAAv4A/gD+AAIBAQD+APsAAf8AAAEBAAACAQEA/wIDAAECBAACAAAAAQP9AP///QAC/wEA///8AP79/gAA/wAAAgH+AAECAQD+/gAAAQICAP/+/wAAAQIA/gAAAAABAAABAQQAAP8CAAD/AQAG/AIA8szvAA3/DAAAAQQA9/3/AAsICgD5AQMAAwECABUPDgDt8fIA/QMCAPv7/gAKBwcACgsIANrZ2QAbGB4A/v39ABELCgDi6OcAAP/9AP/+/QD0+/kA7/j2AP0BAgD3+PQAAP37AP3+AAAFBAcAFw0NAP769gAeFAgADQH5AAcHAgANCAQA1enzABMQCQAkJRgA+OzwAOri7gDm6PUARUcbABMWDAAEAPsA2t3xANLa7QBMSC0ACgcFACMjIADT1+IAqLjjAEI8IQAfHxIAHRwRACEiFgAtNh4AzMTaAN/X7QAXHAcABwL7APbu9wAtLRUAKSkGAPLx/wDFs9oA/wEHABoeCgAMCgkAExsTAPDs7QCSuu4ADf73ACosGQD78+0ABQsLAL+94QA5PBoAJxgMAMDR5QD7+wAA7+30ADA4JQDm2ucARUAkABgRCwC7w9gADAwNAAsGEgAdBhUABfIBABMJBwDz9vcA/wEBAP0CAQD9Af0AAAAAAAMBAgAAAAAA/gEAAAABAAACAAEAAgECAAEAAgD+//4AAQAAAP///QAA/wAAAP8BAP//AwD+AAAA////AAD//wD+AAAA//8AAAAAAgAA/wEA////AAH/AAAAAAEABQMJAAICBwADAwcAAwAEAAACAwD+/wAAAAH/AAABAADHstuBAzBFGYD/Af8ABAIEAAMBAwABAwMA/gEBAAD/AQADAgIAAQIEAAAAAQADAQIAAAAAAAP/AwAAAP8AAwAGAP4A/wACAP8AAf4CAAMBAQD9AP8AAf8AAAIAAgAA/wEA/v8BAAIBAgAEAgIA/wABAAAAAQACAQAA//8BAAICAgD/AP8AAAEAAP8A/gD+AQAAAgAAAAEB/wACBAIA/gAAAP4AAQD/AAIAAQAAAAAAAgAB//8ABgIDAAEAAgD/AAAAAQABAAIAAwAB/wIAAQEAAAMBAQD/AAEA/gD7AP8A/gABAQEAAQACAAABAQD//wEAAQH+AP4A/wABAAAAAwIAAP8AAQABAAIAAgICAAIC/wABAP8AAAAAAAP/AQD/AAAA///+AAH+/QAEAgIA//8DAAABAQD+//sAAAACAAICAwD///8AAAEBAAIBAQACAAMAAQEAAAH/AAAH9wAA+t78AAgBCAD9/gMAAQcIAP3+/gD3+PkADgsOAPj7+wD6AAIAAQMCAPf69gATDAoA9e7vAObv6gAgICUABP/5APT19QD//QAABgUEAAcEBwD4+vsA/wIBAOjx6wD1+PMACgMEAAABBAAMCAcA//73ABEQ/wAfKx0A/ezxADU6KAD09fYA6+/yADxROwA0Oy0AGRsaAKawzAAUCgYALzUmAP/7/AD9+AMADA8GAAX8+wDx6fYAJywbAAEA+gDx9fwAwdLqAN3Y6wBAORoABwH2AOPo+AAGCwwAAwkJANvW8ADH2PMAGBYIADMyFQAcIQ4AAwMFAAsODQD1/PgAl7XoABcNCQAhKRAABvv5ACYtGwDCzOgAuNbxAOLT5wA/PSAAAvvyABAWFgDn5O8AKCYQAEIsHwAdEwYA7gARANLM5AAPCAMADw4AAA8H9wAoIBcAztTkANXb5wAQDA4AExkiANrO4wAU/AwAFwIKAAv9AgD6+/0A/QT/APv//gABAP4AAgABAAEAAgAAAAAAAQABAAABAQD//wAAAf8CAAAAAAAAAQAAAP8BAAAAAQD/Af8A//7+AP///gAB//8AAP//AAAAAgD///8AAQACAAICBgADAwYABAQGAAICAgACAQMAAQADAPz/AAD/AQAAAwABAP4B/wDIstqBAy9GG4ACAgMAAwEFAAUBAgABAf8AAgIDAAICBAADAQAAAgECAP8A/wACAP8AAwAHAAH//wAFAwAA/QH/AAABAQAE/wQAAgEBAAD/AAABAQEAAAD/AAAAAAADAgUAAf8BAAIBAQAA/wAA/wABAAIAAQAAAQEAAQEBAP8BAQD9AP4AAAH/AP3//wACAQUAAQD/AAAB/AAAAP8A/wABAP8BAgADAAEAAgAAAP8AAAABAgEA////AAIAAAD//wAAAQICAAD//wABAQEAAP7+AP8BAQAAAAAAAQD/AAEB/wAA/v8AAgIDAP0A/QAAAgEAAP8AAAIAAQABAwEA/v8AAAAB/wACAf8AAgECAP4A/QACAwIAAgIBAAD/AAD+/v0A/wH9AAMAAwD+AP4A/QABAP8B/wACAQEAAgEFAP7/AAACAQEAAgECAAEABAAEBQEA/wD/AAYEBwD33fkA+ugAAAMCBgD5AP8A//79APv+AQAJCAwA9vn6AAIICwAFBAUA+v39APf18wAlHhoA2eLkABMUGAAUCwsAAwH+AO/t7wAHBwQAAwICAPT29gAABQYA+Pn6AP3++gARBwMAGgoFAPn48wAHBAYA+v33ABQQBQAGAwMA597kAA4TEwDN1eQA+/sCAATy+AApIw8A6+DaABDz9wAPHh4AJy4QAPT2AwDaxtYAKDUhAAII/QDc2vAAHQ8HAAsJ+QD+AQMAy8nlAAgIAwDf3vEAKy0ZAPn/BgAMExMADBIEAObp9QC/zOMAqb7iAC8kFQAODP4A/v0FAPr7/gAnLhsA19XoAKXK7QAqFggAEhcEAA7+9wAXFQkAxtPvANnx/ADSzOcAOTYoAPn9AQDX3PAA9QYLAAIE+wAcIAsALB0OACQsFwD6AAcAxMzkAM/Z8AD4AgAANzQeADEtFgDc3ugAsrXGAAkXHQAVDBIAHw0CABUFEwAe/QgACfsJAPz6/QD8Af0AAQEFAP3+/gD/AQAAAAACAP7//wABAQAAAQEAAP3//QD//wAAAQEBAP7//AD//v4A/v/+AAACAQD9/wAAAQIBAP7//wAA/gEAAgIEAAACAwACAgQAAQH/AAMCBwAC/wEAAQABAAABAAAB/wAA/v79AAD/AADIs9qBAzBGIYACAQMAAQIBAAMEAAAAAAEAAwECAAEB/wADAf4AAgABAAMDAwACAAIAAAEDAAIC/gAA/wQA/wAFAAMA/wABAP8AAAECAP/+/gAC//8AAQAAAAAAAAAAAgIA/wD/AAIAAQACAQMAAQEBAAMCAAABAQAAAQEDAAABAgABAgEA/wD/AAEBAQAAAP8AAQAAAAACAQAAAgMA/wIDAAMCAgADBAEA/wD9AAABAgADAgMAAQAAAAECAgABAQQAAwECAAQAAQAAAf4ABP//AAIBBAABAgEAAQAAAAEBAgADAQIAAAEBAP8AAAACAwMAAQH+AAL/AgD+//4AAwMBAAD/AgD/AAEAAP/+AAEDAAAAAAEAAf7/AP4A/wD+//0A/v//AP4A/wADAgQA//8AAAAAAQAAAf4AAAEAAAEAAgAAAAAAAAAAAAIDAgACAgEA/wAAAAQABgDwz+8A//gDAAMAAQD+AQQABAECAPf8/gADAgUAAAMEAA8JDwAC//8ABQIGAB4VGQDt6+4A8Pn1ADMtMAACAvwA9O/1AAIABAAHBgIA+fr3APj9+QD4+/sA/v/9AAMB/wAVCAMAGAgEAAUFAwDy9/kACgQEAPv3+gDu5+4A7/oCAPTu8QAK/f4ACAABADg7KgARFQoAAPv2APr4+AAA/QQAIyILAN/g7gC7x+kAIA/+ABoeFAAQDvsAysnoACQvKgD3//sADfP0ADkuCQAF//sAsbvnAP34/QAfJh8A+Pv0ABYZDgDU0eYA6Pn/AMTP5wAuIBIABwPzAPL6CQAaE/0AHRkOAMTP7AC/1/IAMR4LAAcFAgAXFQ4AEBUMAOvi9ADw+v8AKRIIACIeCgAfGAAA5eXyAImk1wCzzvUAxMjhAPTj7wATB/QAPToaAAL6/gC2x+gAoLrfAMrU7AD/+/kAXVdAAAMFBgD27+wAIB8fAAUKCQAGBf0A6eLvAPbtBgAaCRcAGQcHAAb+/gD8//4A/wADAAICAwAAAAEA//8AAAEAAgD/AAIA/f3/AAICAwAA/gIA//4AAP///gD+//8AAP8AAAAAAAD///8AAQECAAMCAwAEAwQAAgEFAAAAAQABAgUA//7/AAEAAQAA/gAAAQECAAAAAwDHs9eBAzJHH4AAAgEAAwECAAMAAAAAAf4AAQIBAAABAgD/Af4AAAIDAAAABAADAgIAAQAAAAH/AgAEAQMAAQECAAH+AgAB/gEAAQAAAAH/AAAAAQEAAP8AAAIBAgACAQMAAgIDAAMCAQABAf4AAAH9AAEBAgACAQQAAQICAAACAAACAgEAAQEBAAECAAAAAQEABAIDAAEB/wD/AwMA/wICAAEAAAACAQEAAwIDAAABAQABAP8ABAMDAAEBAAAEAwIAAgAEAAMBAwD+AAIA/gAAAAECAAABAv0AAQEBAAAAAgAAAQAAAwEBAAIBBAABAP8AAQEAAAIBAwAEAgIAAgD/AAMBAQD/Af4AAgAAAP8AAAACAQIA/v/9AP3+AAACAAEAAAIDAAACAQABAAIA/wD+AAUCAgD+AAIAAQIBAAMAAwAAAAIAAQMCAAEBAAD//wAAAgABAAH0/wDv0u4ABQAIAP38/wADAwEA/QICAPP59wAIBggAAgEDAAcFBwAEBAQA9/PyABMNDgD19fIA7PnyAB4UGQD++foA6OvrABASEAAHBQQA9vX0AAIA/wD9/P4AAQX+APH39gARCgsAAwH9AOf19wDx+fwAHA8OAP3+/QD6/gIA7Pn8AAcBAgD9/fwAAwEBACowFgALEA0A+ff5AOPe6QDt5PQALDYgAN7Z6QC+2+8ACv4EACElEwAeGQYAGhYIAJebzgC8zuYAOhgEACwrCQAPEgkA3+HxANri9QDp4ekAJygWAAkE/QD78/YA0t/yAAcBAADJz+kAU1QvAMm/1wD4/A0ALCkFAAgCCQDo3+0A1t7zADc6JAAPCgYA/f0FADglEgDf3ewAsdj2AOTi7wApIAwAJyAGAD8wHgDx7vAA1+f4ACUiGgA/Ox8AAgMDABoMAwA9MQ8AIxgOACMUFQBRPBkA8fHwAOni6wAcCv4A6+TfAMHM4ADE0eYAJyMSADstGADr7v4A8NfqABX3AwAcBxoADwoSAPH19QD/BgUA/P/5AAEBAQD//QIAAgEDAP/+/gAAAP4A/gD9AAABAAAA/v0A/gD9AAEA/wACAgQAAAD/AAMDAwAF/wQAAAECAAMCAwAA/wMA/gH/AP79AAD9AP8AAAECAAAAAQDHs9aBAzBFH4AGAQIAAwIBAAECAAAAAP0AAgICAAEAAQAAAf8AAgD/AAIB/wADAgMAAf8EAAUDCAAA/wEAAP3+AAD/AAD/BAMAAf4CAAABAAAAAAAAAQICAAABAAAAAQAAAQAAAAABAQAAAwMAAQEDAAIEBAD///4A/wICAAIBAwAAAAIABAQDAP8AAAACAQUAAQD/AAQEAwD/Af8A/wICAAYDAwAFAQMAAQAAAAIDAAD/AfwAAwIHAAMAAwD/AAIAAQEEAAEAAQAFAQEAAAD8AP4BAgAAAP4AAAACAAIBBQACAwAA////AAIBAAAAAQEAAAADAAECAAABAf8AAQIBAAIAAgD/AP8AAAH+AP///QAB/wEA//7+AAD//gACAAAAAP//AAAAAgD//wAAAAEBAP7//gAAAQIAAv8EAAEBAQAAAQIAAwACAAAAAQACAwEAAgADAPbo+QD54PsACQUJAAAAAwAGBAUA5e/uAAoJDQAFBwgAAwABAAYEBADl7+wAEAwKAA0GBgDu9vIA9vj4ACAWGQD8/AAA4OznABgVEQDt6ugAAwQCAP7+/QD3+fcA/QD9AO73+QATCAkA+//9ANTp8QAWExAAGgwGAPn9/QDp8/YAFQoIAAUA/AD3/P4A/gMDACMWBAADCQEAAQkMAMDD1QD7AwgALDYgABsaCwDM2ecA3Of9ADohDAASEg4ADwoBALjE6ADd7/gAGxUPACopCwD9+gMA6Of4ACshCgDk4+4A7+fuAAH8+AAwMxMA08vqAAoC/gARAv0AqbfcAAD2+gDp4PAACAsMADU3GgAsIAoARDocAOvq7gD9/gIACgH6AAsJ/QA8PCEA6evoALzU9QCrxuoA7u0DACAeDAA8NiYARi0TABMIAgDm3+0A7OfuAAcMDgAHCwoABgL6AAwNAwD9AP8ACwQCABEN+gD8/wUADA8NADgvHgA1MhoA9/kGAO3s9AD87O0AFg4OAAsPEwAMAvgA/+z3AAf2EgAI9QIAB/f8AP8BCQAABAEA/wH+AP4AAAABAPwA//8BAAD9AAD+AP4AAgEAAP/+AQAA//4AAgIFAP8AAwAEAwQAAQADAAMBBgAA//4A/v79AAABAgAAAAAAAf//AAABAADHs9eBBAECAwD/AP8A/AD+AAIAAgADAQYAAQEAAAAB/wAEAAAAAgEDAP0BAgD/AgEAAgEBAP///wD/AP8AAQAAAAT+AwD+/gIA/wP9AAEBAwD+/v4AAgIDAAEBAQABAQEA//4AAP8AAwD//wEAAAIAAAD+/QACAwIA/wEBAAIBAQAAAP8A/gEBAAIFBAAA//0AAP4AAP0BAgAAAgMABAIAAAMA/wABAgAAAwEFAP0A/AAHAwcAAAADAAAAAAACAf8AAQH/AAD+/QAA/v4ABAADAAMAAQD7AP8AAQH/AAEB/wD+AAEAAgIBAP0BAAADAQEAAgIDAAD//wD/Af0AAQEDAP7/AAD/AAEAAf8CAAEBAgD8/f4A/wD+AAEA/AD8AAIAAP8DAAMBAQD+AQAA//79AP8AAAACAwAAAf0DAAABAAAC/v4AAwICAP7+AgD+Af8A/wABAAsOCwDxA/UAAf0CAAH//AD4+PoADgoPAAoFCAAKAgUA+/37APr8+QD//fwAAwEAAAID/AD9+fMACQL+AP358QAABQoA+PnzAPHv5QD0+PIACAcFAPv7+gD6/PkA+gH+APv8/gD6AAAA//wAAPj/AAARCwgA6fH1APH3+QAFAwQABAH/APwCAwD///8A/AAAAODw/gAsAwgA7uzrAM3n+wAoFvoABgb+APDz8QDk4vQA9AAFAMrS7AAMDfsAGhQJAA4LBAAO+/kAz9ntAFVFEgAMBfgAMjAaAOrr6QAoJAcACAsAAOzg8QDa1u0AHQ4EAP76AwAWCgAAGfj8AAAIDAD9CgAAw7fcANHM4wAHCQYAEBsWACQlGQAMEQEAAP74AAT59wD5+PIAZ0ohAC0X9gDC3PEA1dzqAPbs7wA0KecALzAcABAPAAABAP0A6O8FAMba7gAbFgcAGxcPABcDCwDu8PIA+P3+AP4DFAAADwAABQgGAPb28wD/8/0A8OfzANfe5wA4MSMACf4AAO3t5QDm7fMACg8GAAwI+gAPAQUABgMOAOXc8QALFwYA1Pj+AAIZCgD/BPsA/gABAP4A+QD9/v8AA/8EAAD//QD/AgAA/v7/AAAA/wD8/f0AAwMDAPr7/AAAAP8A/v39AP4A/gABAQEAAwIAAAABAQAAAAAABAMAAgAAAfwAAP8AAAH+AQACAAEAAP//AP8BAAAAAgYAAgEBAAL//wACAggA//7/AP///wAA/wIAAQIDAP4A/wACAP8A/wABAP//AQABAgIAAP//AAIDAgD9/gAAAgMCAAH+AQAAAQIA/QH/AAADBAAB/wAAAQAAAAH/AAACBAMA+//7AP8B/wAFAwQAAP//APwCAgACAP4AAf8AAAIEBAD+AAEAAgEDAAQCAwAC/v0AAP8AAAACAQABAP4A/gD/AAACBAD+AP0AAQIAAP/++wAGAAQAAQADAP///wD//wIAAgEAAAIAAQACAAEA/v/9AAIFAwACAAQA/wACAP8C/gD/AP8A//z/AP//AAD/AQIA//7/AP0A/wAA/gIAAQIBAAD+/QABAQEAAgIEAAD+/wD9/voAAgEBAAIBBQABAQEA/wH/AAEEAgAB/wIAAv8AAPPl8wAA/wIA/P78AFiVAuIAACAASURBVAUCBgD8AAAABgIHAAAAAAAEAAEA9vz8AAEFBQAMBwcA+/r1AAkHEwD5/f0A/v/5APDy6gDn6/AADgYDAPr49QDy+PIA7/b9AAICAwD7/fsA+P/+AP8C/QD5/PgAAAD9ABYMCgD8+fkA8vj7AAECAwALBgcAAAH9APv4+wALCgUAAgH+ANfa6wAnLhgA5dvrAOf3AwAnBAcABgEAANXX9gAMBQkAAv/9AMvc8gA/QCMA8v3/AFVULwC5v9UAxtDwAPj1BAD7BBIADxP5ANfU/AAsMxUA9QACANXk8QDq4fcAAQEBAOT1/AAbDgoAIhUHAP//BAAyPRAA9PcCAMfP+AAmIRQA9fXzAMrI5gDs8/cAFREDAA8LCwAPEPoAEA0IADc/GgBCQhkA+fb3APv3/gD+AhAA+fbyAPb38gAJCgoA69ntAKbK9QAEAPsAbU8aABgOCAADBQYABP0EAAEB+AD78gUArb/lAB8NAQAkHQkAGhUWAOn2+wDb5fkAJCYVAPcDFgDv/+4AHhX/ABEG9wDX4vUA3vQEACkpJgAD/O8AM/0NAM7E4gAcLhMA8Qj4AO4E/AD9AAEA/vwAAP8E/wAA//8AAv7/AAP//wD7APwA/f7/AAMCAAD+/wEA/v3/AAD/AQACAwAAAQECAAIBAwAAAAAABP8B/gAAAAAA///+AP4BAgD8AP8AAQD/AAIAAQD9/wEAAAD+AAIDBAAB//0AAAH/AAICBAADAAIA/f79AAAB/wAAAP8AAQABAAICBAADAv4A/v//AP8A/wACAgAAAQEBAAEBAQD+//8AAwH/AAEABAAAAP8A//78AAEDBAAAAQAABQIDAAABAAD/AAEA/v8AAAX+AAD/AgEAAwMCAAICAwACAf8AAQIBAAMBAAAAAQEAAAADAAD//gABAwAAAv8DAP7+AQD/AQIAAP8AAAEBAAAAAP4A/wH/AAIBBwAAAwEAAQH/AAICAAABAQMABQIBAAD//QABAQMA/wD/AP8CAQD//gMAAAMDAP39/AAA//4AAwIBAP7/BAAAAAIAAP4BAAEBAAD+AP8AAQD+AP7//AABAgEA////AP7//wABAgQAAAABAAQAAgACAv8ACgYIANfd2wAG+gwADQcJAAEBBwADAQAA8vn3AA4JCAD9AgAA6fj3ACIODQAC/f4ABQYEAOTn5AATDw4A8vP/AOXp7QAICAgAAgD8AP38/gAJAwQA9/7+AP/7/AAHBAYA/P36AP77+wDx+fkAFwgJABsMBAAIAgAA4fj1ABIIDAAFBAUA+vz7APb++wATCwkA6u3wAPz+/wDX1OwA1uD0ACINBQAJAf4A7PcDAMvJ6wAfDQIACwEBANLt9QC+x+MAYWQ7AA4d+wDDzN4A6/7uAOTu+QDy/QEADhMOAOjv/wBDHxEA4eAIAPDz7wD0AAUAEQkAAPX2/wDT9P8APhAIAA8Q/gD9/PoAEQsDAFJHCQDa4/YALS0bAAYIDQD79vQA+//+AP4D+wAEAAsA+/0DAM3H6AAfGQgADxMQAPn//QD4+fEAAgMBAPkDCAD6+AIAQT8fADE2BQDJ2/IA9g0XAOwFAgAMDwcAGgwEAA8K/AD89foAKB8pAO3p7wD8AQUA//z1AEElCQDU3/IA4M/qAPsEAgAMBg8A4+H6AOsF/wAdGg4AHwEGAM3T2AAUISUAFTIzACUAwAAG8PMADQcRACskLADR69kA8QPxAPr+AQAAAAAA/AL8AAAA/QD+/QUACAUEAAH+/QAA/wIAAgH/AAABAQAFAwMAAQIEAP8AAQAAAAAABAH9/gACAwEA//8AAP/+/gAAAgIAAv//AAMA/wABAf0A/v/9AAH/AwAAAAMAAAEBAAEAAQAAAAAA/wEAAAECAQAB/wMA/f3/AAEB/wACAgMA/v39AP8B/wABAQAAAf/+AAEDAwACAQAAAf8BAAIAAwD/Af4A/v4BAAIBAgABAQEA/QD/AAACAwAA/wAA/wH/AP4A/wADAQEAAgIAAAIB/QADAwMAAAEEAAEB/wAAAQEA//8AAAH/AgACAv8A/P7+AAEC/gADAP8AAv4DAP4CAgD9//4A/wEAAAIAAQD/AQMAAQECAAL//QACAwUA/QD/AAIBAQABAAIA/v/5AAICBQD/AQAA/v/+AAIBAgD+Av4A/f3+AAD/AgD9/vwAAQL/AAH/AwABAQMA/v4BAP//AwAB/v4AAAABAAIC/wD/AP4AAAEDAP8BAQACAQMAAP8FAALz/wAOBgYABwQDAPj9AAD5//4A/P38AAcDAAD6/PoABwgHAAX9/AARDw8A4ejjAB4TFAAC//0A8/8FAA8NEgACAfoA+P33APz9/AARCAsA+Pf6AA0NDgD19/UAAfn+AA0FBgDz9vgADQEEAB0TDgDx9PMA4/T3AAsJDQD2/PYA+Pf4ABEMCwD8+f0ACgQDAAQEAADHx9sA8v3/ADYXCQAOBQIAqY67AAL/BwD29PoAFQ8FAEQhCwDEzuMANtHjACguGQAKCQkADgwHANPd9wAoMgkA2+3vACQjEwAH/QkA/f7mANvj8gAdFQcABgEBACQMBwDc9/4Ave4CADMSDQAVBAgABgz6APn2+AAiFgQA+/fzAP78/AD6/wIA8fb1AAQAAgAHAv4ACAcAADItEwACCBcAAP31APz/+wANCQ8A/Pr+AAIE9AD69foA8ez5AAUH+gAnDvsA//DqAAIE+gD+8gIA3PPwAAQEAwAFCgoA8vQEAA4YEAAjIRQA/wILAPf8+gA1EfgAAwD6APv58wD69vkA9PkAAPb1/AD59vsABwgLAAkLCQD8+PMA676kAPLxAADd8v4ADwgGACz7AgAtEyIA4/fxAO786QD7CvwA9QP7AAAE/QAAAQEA/v7+AP7//wAAAgUAAgABAAECAQAAAQEAAAEAAAH//QAAAAAABP8BAgD9/fwAAAH/AAABAAABAAAAAAACAAACAgABAf4AAQICAAEAAgD/AQAA////AAL/AQD///0AAAEBAAH/AwD/AP0AAQL/AAABAgAA/QAAAQICAAAAAAD+Af8A/wEBAAP//gACAAEA/gECAAAB/wADAAMAAgQDAP0BAAD//wAAAQADAP8B/wABAf4ABQD9AP/+/wD/AgEA/gIBAAMDAwABAAIAAQEBAP8B/AABAgMA//4AAAD//wAAAgEAAwAAAPv++gD+AvwA//8AAP7+AgABAQQABAEAAP8BAQAAAAAAAwIBAAICBgD+//8AAgEAAAEAAgD/AAEAAAAEAAAAAwAA//8AAwD9AP0B/wD/AQIAAwACAAD+/gD8/QAA+wADAP0AAAAG/v4A/P78AAMCBQAA/gAAAQH+AP/+AwABAgEAAf//AAAAAQAAAAAAAP//AAf9AwAKCQgA9vz/AO/49QACAgIABgQAAP7/+wD6/P8AEQMGAAgFAwDx+fUA9/77AP37/QAABPwA+f/+AAcHBgD49vYA6vLyACUYEwD+/P4A8v38AAX9/AAGBQUABv4HAA0DAADz9/UABQcHAOru8AD4//4ACwcJAPX39QAH/gEA+fv+ABEBCAD4/v4ABwQEAPr++gDo9fsAGBEPAAcDAQD+//8A8Pf/AB8U/gDI7v0AHAAEAAoFBQA8HgMAubreACcrEgAJCAQAU0AeAP7y+wATEBAA2enzABoWAgAFEhAA9tnrAAQEAgD1+wEAFAkAAAoDAAA6HQ8Az+vyAJm+9ACcvvkANBsMAE43FAAXFAEA6ubsAAQGBwAIDgkACwoJAAH/AQABAAEA5+TsAPz98AD3AeYA//0GAB0iIQAAAgIA7+vyABQVDAAOFgUA/AMBAAH/+gANDfsA/AACAAMB/wAA//sA//0NAPr29gD+/P0AAggJAJ6x0gAtIhEAJBUDAP32AAAUHh4A+AkMAAgOHAAZF/oAD/3+ABEIAwAF+PkAAwEAACQqEwDV4PIA7P0MACoYEwAc6esA4uTyAO/f6gAA4egACxELACQoMQDyBggA6vbiAOv44wDzBfsA/P/9AAAAAAAB/QMAAwQGAAMBBQAA//8A//7+AP8B+wAAAAAABAL9/QD/AgQAAP/+AAQAAgAB/v4AAAMBAPv+/gAEAQIAAgD8AAEDAQAA//4AAwADAAAAAAAAAAAA////AAEA/wD9AQEAAAICAAD//gABBAQAAv7/AP79/AAB/v0A/QD+AAMEAwD7AAIAAQADAAAC/gAAAAIA/wIAAAD/AgACAgEA//78AAMBAAAAAAEA/gACAAED/wAAAgAAAwMDAP8BAgD9AQIABAIAAAMCBwD9//8ABAH+AP0A/wD+AQMAAQL9AAX+BAD9/P8AAAYDAPv6/gD+//8AAAABAAD/AQABAQAA/gD+AP7//wABAAIAAP/8AAEAAgAAAQQAAgEDAP38/QD/Af8A/gAAAP8AAgAC//4A/v8AAP39AAABAwEAA/3/AAEA/gD7AAIAAQADAP79/wD/Af4AAP8AAAMBAAACAP0AAAEEAP8A/QD+/gIA8OjxAAkFCwDz+fgA9v8CAP8CAQD/AAAABQADAP78/gD3+v8ACgX+APH49QDt9fYAAv/9AP4C+wD8//8ABAoEAAIA+gD+AgMA+fz9APn7+QDu8PMA9f39ABUBAQABAP8A+/38AA0EBwAEBv0A7fLyAA4GAQD6/fwAAwEBAAwHBAAQBgQA9AD6AN71+AAOAP4AHAkCAPb5/wDq/gAAFP/+APn8/gD3/P8ACAgGAAT/AQDn+f0AG/4FABIA/gAMAgAA5OnrALvF6AApJgoAGhoUAAn8/ADA2/MAJhP3AAkE/AD/8e8A8/QJAAAEAQDl8vYAGgwOABcMAQAbHQAAOzocALbK7QDo8QgAQjYhABogCAANCQkABgvyAOvx8wDZ5PgABwP5AB4XCgAUCwEACxUSAPDx9gABAQAAGxMIAAr+6AD//g4ABxsNAAQHCQDs+f8A6O/7AAkHCQD9AQYACQX/AAH7/gALCQcABgQCAAkMDAABAP0AC//+AIBzPgDo6/UA9/P7AAb+/QAGAvUAEAcAAMXS4wAMMiQA2dfqANTQ1wD/AfwABwkKAAkLDAAJGRcAFh8vAO/88wATKhAAJTgEAOjc3gDs5O4A9e/zAO/b1QAVHRsACRAZAOvU+QAUFQoAAgnvAOv+7QAFCf4A/wD8AP39/gD/AgMAA/8BAAACAgAAAAAABP8A/gAB/wIAAAABAAP+AwD/Af4AAP7+AAIAAwAAAwAAAQECAP/+AQD+AP4AAAICAP7+/gAA//4A/wAAAAAAAwABAAIAAAL+AP/9/AACAAIA/QACAAABAAACAAEA/gH9APz//gAAAAAAAgIEAAD9AwD8Av4AAwABAP///AD/AAUAAAIDAP7//AACAQAA//7+AP8B/wAB/wMAAAABAAACAAAAAP4AAAEDAP7//wACAwMA/f0BAAMCBAD/AAEAAf8DAAAC/gD+AgEA/f38AAAB/gADAgEAAf//AAAB/wAAAAEAAP0AAAECAAADAgAAAQEDAP0AAwAD/wAA///+AAIDAAD//gAA/f8CAAEAAQAAAP4AAAAAAAICAgAA//8AAv//AP0AAAAAAQQAAf8CAP4B/wD+AAMABP8EAAICAQAB/gAA/gH+AAECAQD/AAAA+/L6AAEDBQD7+/4AAwEEAAkFCQD4/PwA/QD8AAYEBwD39PIAEA0OAPb5+AAAAQUA/f36AP8AAAD29/cA+wAAAP8A/wD+//wABgMEAP4AAQD7//8ABQQDAAAA/wDx9vIAEgsNAAL6/AALDxMA3uzoAAkKCwD+8/QAAf/5APj8AgD5A/4AAAD7ANno9gApFBAA+P38AOn2+gACAAEA5fX1AB0KCADy9/0AEwsEAPf+/QABAgIA+f7/AP77/gD9AQMA9Pv8AKm12ACIfUEA9unrAAEL9AD5+vcAtcj0AF9OFAAAEAwA5uHcAAIEAQD5/wYA8QMDABUN/gAjKgsACgT9AFlCFQDc4/0AJSYJAP/9/AD7+PEA//33ABYNCAD7/PkA/vn9ABcOBgD9/PwAA//7AAYEBgCFn9MAMiERAEg8JQC6xtUA8Pf9AEMyGwATD/0A9u/2APj7/wD9/gsA6/z1APf8AgDy+PkA+vsDAPICAQAAAAMAAPv5ABQNDgAJCQMACgQEABkWEwAICwMA+PjzADIfBwAB498AOSwZADszSQDl2NkA+/jyAAYMEwDy8e8A89fHAOTu8QDiAAkAAg8OACkkFgA5SCsA9vDgAMnW7wDg4ekAORcCAO357QDw1esAHCsvADQqNgDT5coA8Pr0AAAGCQD+/f8AAQEAAP4AAAAAAAAABPr+/QADAQAAAwEEAPv+/AABAAAAAv4CAAMEAgACAAIA///+AAAA/gABAgEA//7/AAAAAQAAAwIAA/4AAPz//QD/AP8AAgACAP///gD+//8AAAEBAAIDAQAD/wQAAP8CAPwA+wAEAAEAAwABAPsA/QACAf8A//8DAAMCAgD+AP8A/gD/AAECAwAA//wA/gIBAP8AAAAGAgMAAAD/AAMBAQAAAQEA/wEBAAEBAQAAAP8ABAIAAAQBAwD9AAAAAAD/AP0AAQADBQcA/gACAAH/+gAB//4A/f//AAAA/wAB/wAAAQEAAAIAAAABAAIAAP8BAAEBAgD/AP8AAAEBAP/+/QD9/wEAAgACAP39/AD/AP8AAwACAAEAAgD///4A/gEBAP4AAAD+//sAAwADAAH/BAAA/wEAAQIBAPz8/gACAgIAAQEAAP7//gAHBQkA6+fnAP78BAAHBAgAAP8DAAEA/QD5AQAABAIAAAABAAAHBAUA+fn2AP8AAgAEAQQA/QABAP3+/wADAAEA/fPyAAQNDgD09PEABAP/AAD9/AARCAQAAvr7APD18AANCAcABgMBAAAGCQDr+fkABwYGAO/x9gAEAQMAEwUFAPL4+gALAwYA+/v9ACERDQD5+fcA7AIFAAoHBAA8CgAA5Pb/APwFBwD6DvsA8Pv+AAr6AAAlGBEAFB8UAOzk5gD9/PcAFAYHAM/p7gCCnM8AXz0dAB0JEQDLzOYA4NrpANkxGQCwwdUA5d3vAOz6/AD3/wMA/AIIAAsZDADl7f4AHA7+AAIG+gAjJRgA+Pj7AAMC/QADBgUACwgSAAP/+wAmCgcA+/37AAMA/QAGCAYAAQIBABAR/gB/Yi4ADgwAAAcH+wAwLBMACQIJADc9HQDs7AEABBP3AOr0+QAOBP8ADQoZAAcICwAJCAkACAP/AAYHAAAEBAcAAQH8APr4AgD//vMA+/XyAOrk8gD67vkA+f8EAMDK7AD3CA4APv8IAB4U7gAMHSQA+AABAO3t9AACFg8AAgXvABwKBwAC+/4A8/f6ANzN4ADc0uYAIyUlAC4kGgDzAv8AzcPJAB4fHgApLhUA+v0BAOTO1QA1JioA9AT+ANfr2gD0A/0A+wL7AAH/AQAAAAAAAzBCHYD+/v0AAQIAAAAAAAAAAAAAAP8AAAD+/gABAQAAAQICAAEBAQABAP8ABAIEAAAAAQAAAQEAAQABAAAAAAADAgAAAAACAP8A/gD+AAQA/gH9AAIAAAACAgMAAAIAAAIBBQAFBAUAAgIDAAACAgD+AP8AAQIDAP//AQACAgEAAQIAAP8A/gAAAwAAAgIBAAQCAwAAAQAAAwMDAAACAwABAgIAAwEBAAICAAABAv8AAQIAAAIBAgD+//0AAgH8AP4A/wD+/wAA//7+AP7+/gD+AQEAAf8BAP4AAQD+AAAAAf7/AAH//wD+AAAAAAAAAAEBAAAAAAAA/gH+AP/+AQAAAf8A//77AAABAAACAQEA//0CAAD/AQD9APsAAP7/AP4AAgABAQEABAIEAAMBBAABAAAAAgEDAAIBAgD///8AAAAAAAEBAQADAAYA4svlAPzz/gACAAUA/v7/APz++wADBwkA/fr6AP0BAQD8AAEA/vz7AAsICwADAAIA/Pv4AAEA+gAA/f4A/v7+APj5+QAAAf4A9Pv5AAoEAwAJBAIAAwIAAPv/AQD/AwUAFgoMAPH19gDu9/MADAQDAAUBAQD7//4ADwYDAAYCAAD0/P0ADQIBAB0PCAAHAQEA8vr8AAkFAQATAgIACwL+AOrw/QD6BggA6u/1AAX+/wD2+PcAy+LwAPD5/AAaDAYACgcCAOj0/ADn6fIAwsneAOLb7AD/8PcAMhYKAOLe5wAdFgQAJhUEADAiDAAD9gEA9fT6ANnc7AAnCwQAAg4UAOn0/gD6+QAA9/f9AAgLBAD1+f4A9Pn5APD1AAD1/AoA6vcAAPD8BQDy9/sAAQAEAPb9BwAOCwkAAwYCAPz5AAAZEggAGRP3AAD3/QAGBQYADRIMAPn3CADv7/AA/f4GAP3+AwD3+/0A7vP0AOjs9ADy+gcA9PX5AP4GCQD9AAgAAAQJAAEKAgAJCgoACgwFADAyGADD1/EAEgIDAAQEBAD27e4ADBIPAAQXHwDq+Q0AFSkzABorMgASJS8A+gEDAAkMBwAB//0A7enlAOnq7AACAQcAREc5APX38QD69/kA6+jjAAYKCQAFAAEABf3+ADAhNAD66vMACwIJAP3/+wDDuNeBBAEBAwAA//8AAP//AP3//QAFAQIA/wD/AAICAwD+/f8AAQEBAAECAAABAAIA/f/9AP4BAQAAAAAAAP8AAAD/AAD///8AAgD9AAH/BQD//vkAAAL/AP4CAwD/AAAAAwIDAAD/AgAAAQAAAAEDAAMAAAABAAEA//7/AAECAQABAwEA/v/7AAEC/wABAAIAAQAAAAAA/wADAwIA/v/9AAQABAD+AP4AAQIAAAT/AAACAQIA/wAAAP4A/wACAgIAAP4BAP///wAA/wAA/v//AAMDAwD6/fwA/wEAAP/9AAAAAAAAAAEAAP7/AAD9/PwABgUEAP/+/QAAAQIA/v//AAD/AAD+/QAA/wD/AP3//QADAQIA/QD/AAABAQABAAUAAgIBAAD/AQADAgIAAf8AAAEBAwAEAgQAAQECAPz+/gAB/v8ABAACAPv/AAAB//8AAfwBAAQAAwD8Af8AAwMFAPf6/wATBQgA6vDtAAsDAgD9AwQAEAUKAAH7/QAHAAMAChQXAPn39AAA//wA/QH6AAcIBQD89vkABgIHAN3z9AAgDg0ABgABAOXx8gAvJCYA/fz6APn9+QAEAvwACQYFAPj6AAD8/PwADAYFABIJBgDn9fcABgICAAgCAwD9AfsA8fr8AAwGCQD9/f8A8/v8APP9+gAL8/4AFwgCAAsFAgABAQIAFv3+AO35/ADg8gYADwT7AA0FAQAUBwMACwQIAPj5/QDZ8fgA8fz/AE4/EgAYEPwAAf8IABANAQD19f8A/PUDABIVCgAZIf8A9gsDAPnxDwDv7/UABQYIAPrq9wD69/gA8fMBAPn+BQAF/e4ACQYGAA4KAwAICgYA/wL9AAMJCQDx8/cA+vr4APD0CACqwtwALRoFAEo7CAAKBvoADgcJAAAJ+gD/EBwA8/TsAP727AAGA/4AEhEVAPf/9gAG9+8A+P0AAPTt8wDy9/IA8vf+AAMDAwAAAgQAAgT/AAXp7AAjB/wA8uXoAPABEQAMCwQA69zVABso+gDGzdcAuJbaAPQODwAVHSQALzo3ADtJQwAMBwUA/vfvAOHSywDm4+UAvMjeACMZCgDT09YALDU0AAkIBgAAAwAA+/r5AN3NyAAeGRoABgsRAPr+9gAAAK4ABP//AAABAAMA/Pz9AAMA/wD+//4AAQQCAPwAAAAEAwMA/f/8AAEBAwD+/wIAAQECAP4A/gADAgQA/vz+AAEBAgAAAQEA//7/AP4C+wAAAQEAAf4BAAEBAQAAAAEA/wACAAEAAQACAwEA////AAMBAQAB/gAA/wL+AP8A/wAB/wIABAICAP7//QABAAAAAgAAAAECAQD+AP0AAgMCAAMC/wABAAEAAf8AAAICAwD+AP8AAwECAAIBAAD+/v0A/QABAP8AAAAAAAAA/wICAP39/AACAAEAAf4BAPsA/wD+//4A/P4BAAEB/gD9//8AAgEAAAECAAD+AAEAAgICAP7+/AABAAEA/v7+AAAA/wD9AP0A/QABAAIABAD//gIAAwICAAT/BAD9AAAABAICAAEABAABAQAAAgEDAAMB/QD9AgQA+/39AAD//wAC/P8AB/gAAAoHCADt9fUACQoDAPr9+gD6/fkA/QEAAAH+/QAD/gAAAQQBAPD69wAYDBIAAQACAAwNDgD58eoA9vj4ABQPDgADBwUABwL/APjx/QAGBQkABQH5AP0DBAAMCgoA8+vzAAQICQD69fIABQsDAPoCAAD/AwMABgUEAPv5+AD0+f0AERAHAP3//gDn9vgA6/f7ACURDQD6/PkA6/n7APH9AAANCwIAEQcDAP3/+wDf9PwAAwQDADQWCgAB/fwACAICAAT6AgAPBgUADAX9ACIkFQDx1OsA2vH7AJGx6ABfQxcAMCUAAOTw+QC62/IACgQFAEolEQD6BBAA6+r0AAoWJgANEwAAAAMCAPn28AADC/0AGRwHAAH/AgAFBgEABwQDAAAA/QAAAAQA/f33AP0A+wADCwIACAYHACMYBQAq1wgAPC4YAPwDEAD4/QYAC/f0AB4TDwCGmrYAJRUQAEk3LQANGhMACBAIABEIGwD39PMADf/9AAAFCQAe/hYACQ0QAAIFBADx8fIA7+rwAAL/EwAQ/uUA9e/5APfv7wD08AUADxwUAPrr4ABDMA8AI/oPAAX7AADq+NoA5rHZAH6ZlAD7DRAAFCIjAC8vNgAgLDoAqJ+iAEg4NgAwPD4A59PQAPv++gAABwkABAcHABcZGgD+/wMAxtDTAPvv+QAAAAAABP/+/gAAAAEAAAD/AP0AAAAAAQAAAf7+AP7+/wABAAEA/wMBAAL+AQAAAfwAAv8EAAEBUfqBMAAAIABJREFUAAD8/PoABAIGAAD//wD+/v8AAv//AAL/AAD/AAEA/wEAAAL+/wAAAwIA/QECAAMCAQAA//4AAQEBAAD/AAAEAgYA+v34AAACAAD9AAAAAgABAP8AAAAAAf0A/wEAAP8BAwABAAIAAQH/AP3++wADAwYAAQECAAAAAQAEAQIA/gACAP7//gAA/wIA/wEAAAEB/wD/AP0AA/8AAAEAAQD//wEA/gEAAP8A/wD///4A/gACAAIAAQABAQIA/v7/AAD//wADAwQA//7/AP/+AAD9//kAAgIDAP7+AAAA//0AAAABAAIBAwADAwIABf8DAAH/BAACAwEAAQAAAAIAAwACAgEAAQABAAMDBQADAP0AAf77APwB/AD69fsABQADAPz+/wAF/gIA/Pj5AA0GBQD19fIABgIBAPf7+AAIBQcA/gMCAAAFAgD+Av4A+/z6APf29wAJAAIA+v3+AA4LEQD0/PkACwP9AAD8/AAABQQA//v4AAMAAgDu8fAABwIBAPX49gD+BAQACAQDAPT4+AD7/v4A+/7/AO/6/QDs+fgAGgEHAOny+QAKBgcA9f34AAUEBQD8+PYAHA4IAO/s9AD6/wAAAAIBAO/1/wD4/wAA8vf4ACQPAgASCAQA9v3/AAP//gAdCwQABgcGABAE+QBFMwwAyND2ACwgBwAHAwEACQYOAAgMBgAeHAgAKSIWAA8nEwAKERMAGf3zAOTl8QAB/xcACQYJAAsVEgD7+vUAAQD9AP35/QD9+/cA/AACAP79AwACAv0AAwMIAAD6/AAMBQcACAgDAP/9+AA4Lw8ABAsKAAgRFgDtEycAyce9AD8xAwA1MSkAAOHiAPXf2gAHBCAAAwMVAP/8CQD3CRgA6uz5ABYOCAADBPsA8vT/AA4F+AD/AgUACRIQAP39/gAaDAcA9vL0APr18gAJDREApLPQACAnJQAnIQoAEDEyAAj49gAC6e4AEff3ACwhEAD2+P4A5fPnAOG6qgDL8v4AAw0RAMbDzwDq1g0AMDQiAPb28QAYHRsA8u7sAOLXzgDo5vMA6vD6APwCCwAAAAAABP8A/gAAAAMA///+AAMAAQD/AP8A/f8AAAMCAwD+//8AAv8BAP39/QABAgEAAAAAAP8AAAADAwQA/f/9AAD/AAD+/v4A/P//AAMBAgAC/f8AAAECAAECAgD///8ABQEAAAL//wABAAMA/wABAAACAAAA/f4AAgIDAPz+/wD/AP8A/wH/AAH/AQACAf8A/Pz9AAQEAgAAAQEA/Pz+AAMDBQAB/v8AAgL9AP3/AQD+/wIAAwIBAPv//AAAAf8A/v//AAEAAQD7//4AAgH/AP3+/AADAwQA/vz+AAEAAAACAAEA/wD/AP3+/QD+/wAAAAEDAAH+AQAB//4A/gH/APz//gACAAIA+/0AAAD/AwADAQIAAAD9AAEA/gABAAEA/wEBAAECAQACAAEABAEGAAABAgABAQEA//3/AAIBAgABAQQAAQQGAP/+9wD78/IA/v0BAP/9/gASDQ0A/wABAPn9/gDy+vgAAgIAAAEAAAAFAgMA/f39AAH+AAD8/fcA/Pz7APr8+wAAAfwA/AL8AP8EAAAA/gAABAEBAPz+/QDv8/EAGQkDAP77+gDp7+wAHgoHAPj8/AAHBggAAQEEAPz//gD5+vkA/gEKAPL9/QD5AQIA7vf5AAT//gAQBAIACQQAAPH6+gAB/gAAEgYDAPsAAAD8//8A+v79APn8/gAUCAUA4PD6AN/4/wAHA/wA8fb+ACIUDAD9/f4A7/H7AB4gCAAlHxAAFxUWACYlDQAEAgIA/vf0AAH+CABSVj4A8/j+AKOmvADy8fwAAPv5AAsAAAATGBIAFBEMABceGwAdIxsADxIPAAgD/QD99O8A//v9AP4BAQD/AQEABQP+AAoQFgD//f0A9vj4APz+BgD+CQYA+AH8AOzp5gB9fqwADwcGALW1/wAWBAYAJhQJAObr9gD2CusAFAEFABUaAgAdJxoAJjcuAAYJCQAHAv8A+/v1AP/89wD87+oA9e3qAOPq4wACBQgAEw0MAP79DwD//QEAc29NAPDo9AD7FyIA1NzmAAoF+AAbMysAAvDtAPDn7ADo2d0AC//8ADUdEgABBAMA8fX8AO3w9ADz8PkA0Mf3AA4RCQDV1uMABP/5ACgsIAA1JCkA9/j0AAEHCwCdw8YABAQBAQD9//0AAgEBAAD/AAD9//8A/gABAP///wAC/PwAAgEFAP4FAQACAAEA/f/+AAIDAgD//v4A/gAAAAAAAAABAgEA//4BAP4AAAABAwEAAwABAAEAAgABAAIAAP7/AAEBAQABAgAA/gIBAP/9/QD/AgEA/wD+AAABAgACAAEAAf/+AAACAgD//gEAAwMDAAD/AAD8//8ABgMGAP7+/wD9Av4AAv8CAAEB/gD+AQAA//7/AAECAgD9//0AAP8AAP78/QAA/gAA+v/+AAEAAgD+/f0A//79AP3/AAD//wEA//79AAIAAAACAAIA/fz8AAMCBAD8/P0AAgQCAAL/AAD//wEAAAAAAAAA/wD9//8AAAEDAP//AQACAwMA/wAAAAEDAgABAQUAAv8EAAMBAgD/AP8AAwUDAAAAAgD8/fwAAQD/AAcCCAACAPoA/PwCAAYDAAAGBAQAAP8BAP8A/QALCAcABwcIAP/9/AD5/PkABQUKAPL28gAHCgUA+P/+APz7+wAEBf8A/v/+AOjr5QANBAUA9fn4APX8/AD9/P0A//8EAAYICQD1+fwA+QgFAPf7+wATCAkA9v37AAMA/wAJAwEA8vn8AAkDBAASAvgA8vj/ABIGBAD2/P8ACQD/AN/v8gAXBwAADv4DAP8CAgDq9vwACPwBABMLBgDh8vgACgQEAOXw+AD/+wYAEAYEAAsD/gD7/v8AAgoFAAoQDwD5/P8AICMWAPn29wAGDAcA8f8HAAoUEQD59PQA2NPiADomIQAZFgcAFA8BAAID/QD+AgMA+fP7AAAE8QDn2vIAzebwAP4ODgAyNzAAFg0AAAH79gDu5eUADA4OAAEB+QAFAv8A/wD8AP76+AAaFhQA9vn2ABMDAgBqPRkA9vH1ABsJAwDr8QAA7/X7AAQHBQDo5vIA6/IAAODl8gCapr4A0+PsAAYFAQADBAUABAD/APr9/QD//AAACQoIABwVDQAoCgYAOCsVAPwF+QAJCQgAD/UTAAoSFwDy5NUAKx0eAPIHJgD9BwkAJzVFAL26uAD6+AMAHRcSAATs5QD98vEAEg0CAA4MBwD2+v0A4OvzAAv8AABXWEAA7QsgALmiqQAhE/UA9PLuAPz9/gAAAAAABAD//gADAP8AAQECAP3//QAA/wAAAf8BAAAA/gD+AAAA/f7+AP/9AgD/AP4A/wEBAAT/AAAAAgAA/gD/AAD/AQAFAQAAAAD9AAAAAwABAgMAAP8CAAMBBgAA/wAAAAH/AP///AD/AP0A//7+AP8BAQD8/vwAAgEBAAH//wAAAv8A/v/8AAH+AQAAAQMAAAD/AAEAAAADAP8A/f39AAAA/wABAQIA+/7/AAEBAAAA//4AAQICAP/8AAACAAAAAv8AAPwAAQACAAAAAP/+AP4AAAAA/gAA/AABAP8A/wD+AAEA//8AAP/9/gAAAAEAAAL+AP/++gADAQIA/Pz9AAAAAgD/AAAAAQEBAAD//wABAgIAAAADAP8AAAD+/gIABgMFAAIBAgACAQMAAgEBAAAA/wAEAgQA/v7/AAMCAgAFAwYA/v79AAcCAwDm7foAAQAAAAD+/gABAQIA+Pr6AAUFBQAE/wUABgQIAPf68wD7+voA/AcJAAUHCwD39/8A9fv6APn69wALBwoACAQGAPj6+wASBggABQEFAP8AAQATDA8A8/r5AP8AAgD8APwA9vz8AAgEAQD6+/kA9v0AAAgGBgD8/v0A+/78AAoB/QAGCgUA3PP5AAIABAAZBgMAIw8HANrx+wD6CgoA+P3/AAoDAwDn+v4AFQYJAPwAAAD+//4ANBkLAOHr8wD2/v8A7vD1AA8DCwASBwMA9P39APT+DADv1+UA/fT/APr2/ADq6/cAudTvAOf5/gAAAf8ASCkXACoW/wAH+Q0A7uf7AAn/9wAUHBsACQsEAPL2/AAVEP8AHhsXAO3xBADjy9UAzOPoAD9BLQAPGikA7+7sAP4A/AAUBwEADwoEAP0GEADz8/AA4enxAPMFGwA1SkYADAYEAO3t7wAJ6e8AFvDvAAIGAgAZICcA8tfGAAgF+gArLwoA2xMVAOXy+wD7+QIACgf/AA4EAQD9/P8ACwwIAAUGBQAF/v8A6ODuAAMJAQD/GwEABgTpAAsNBgD4+/sAAeXjACg/JQDs+xEA1tjdAAQIEgD0/+sAobDHAGA4IAAcJiIAAgcBAAECAwD6/gQAJgkFAImXtQDg+foAJTQ0APMPEACu0eAAPCcaACYdFQAAAMYABAICAgABAAEA+/78AAAAAQACAQAA/f8AAP8AAAD9AQQAAP8BAP///AAD/QEABgUIAAD+/QABAP8AAgL/AAAABQD+AAAAAP8AAAEA/gAB/wIAAAECAAAA/QACBAEA/f3/AAQCBwD8/vwAAAH/AP4A/wAA//8A/gD8AAABAgABAP4A//8AAAABAAD+/v8A/wD+AAAD/wD+/v4AAQECAP4A/wAD/QAAAQAAAAMCAgD/AQIAAP3+AAD/AAD+AAAAAwAAAP3//QACAP4AAf4AAP/9/gD8/gEA/v//AP/8/AD/AgIA/v7+AP/+/gABAf8AAPz/AAIBAQD+AvwA/wACAAIB/gACAgIAAP/+AAECAwAB//8AAgAAAAAAAAADAgIAAAAAAP8AAAABAQEAAv8BAAAAAAD///4AAQEBAP39/QADAwUAAAD9AAAAAgDx6PEAAwQDAAH9AwD9AAAA9f38AAsDBQACBAYA/v77APn8/AAFAwQA8/T5AAkLDAAB/gEA9/LyAAgFCAD9/v8AAwMDAP4EAwABAgMA+/z/AAoHBQADA/4A8wH9APv9+QD6/foA9QT/AAoFBADn8/UAIhMRAP789wABAAAABAH9AAD//wD6/QEACAICAAwFBQANBgAAAv0FAAoE/AD2+PoA7f0EAAgB/wAWBwUA5vT1APb7AwAPCAcADwH9AAwDBAAaEAYA8fUEAPoCAQD4Af0A3vH8ABni8QAsLykA4M/YAAsJAgD4+PgA5/f8AAQGAQBGKhUAMSAGAAsODgD3+PgAAPv9AAscKgAAGR4ACPbuAPf/7AAC9PIABf39ABoRBQAYFQwACzxAAPf7/wAUJiwA8ry5AOzZzQD6Eg0ABAYEAOjp8gAA/gMA4fD4APb05QDKvckADh0cADIzKQAtNCoACP76AAsUFAD+AQoA9xsMAAP57gAB+PUAIi78APP5/AD9+/4AAwcAAAwJEgD//v0A8fD0ANzY4wAFBQEAGBgZAPDr6wDm7AQAEx8YAAEA+QAQDgEA0MfYAPkCAAC61OgAwMfUABABAgAC/v0AJxcRANja4gDz6+oAFhcHAA0YFQARHCAA3tPYAEsnGwD1+gEA3brHAPn5/QAT/gEA497qAOnc5gAAAAAABAABAQABAQEAA/8DAP3//wD+Af4A/gH/AP7/AAADAf8AAP7/AAL/AgACAgEA/v38AAIEAgD8//0AAf4AAAIC/QAA/wIAAgEAAAAAAgADAgQAAv8CAAMCAgAA/gAABQMDAP3+/gAAAwIAAv78AP7/AAAAAgIA/f4BAAIA/wD+/v0A/f8AAAD/AAACAwQAAf/9AAD+AgAAAAMAAAD/AAD9/gD/Af8A/wABAAH+/gD+AAAAAAECAP8A/wABAQEA/Pz+AAECAQD9/vwA/P4AAP7//wD7/foAAgABAP4A/wD//vwA////AP4A/gAAAAEA/v7/AAIDBAAB/gAAAwD/APwA/gAHAQIAAQAAAP39/QABAAAAAAEBAP///gADAP0A/f//APz/AAACAv8AAv//AAECAQD+//4AAP8BAAIDAwD9/fsAAAH/AAH/AADv6fEADP4MAAQEAAD1+/YABAMCAPb8+wADBAcAAAH7APH39AAVDQwA9vr/AAwFBgAC//4A+P32AA4RFQAGAf8A7/b1AAn8/wAB/v4AAwQCAAoECADt8/EAAf4AAAL//gD8/v4AAwUIAAX+AQD4/PMA7/n5ABIE/gD9/PoAAwcHAP0AAQDr+/oA/wIBAAIB/wACBAcA6O/uABkMCAAVCgcA5/H3AAMFBAAkCQQABgwDAOf2+gDo9vwA+gADAA0HBQAOBQUAAgf8APn9/wDv+/4ALhwSAB0XAgAOGxsA/NXeAOvw9wDk6fgAZ0kjAAsIAAAMCAEA8eb0APXt7QDh7PgADSUgAAYgKQDp6e8ABvv2AB4cJAAE+PgA/fruAAMDDAD2+PUA7+bYAPz2+wD89fMACv7mABQnHADm3ukA+/wDAAD7AgD69vkALh4KAPbr9gBGLSQAAgkNALG8xQCYk+gADBMPAA0OCAAbIRkAFRIIACEcHgAaHB0ACQL5AAME8wAB//wAAv3/APr//gAEA/8ADRUMAC8LJAD9AgQA/v79AP8QAgCqsNwAsc3gADohEQAqEAoAEQkFAAL39wBaSTMAKgf4AAT8/gD49PsA//79APP0+ADp6e8A+/YHABb+/AAGExUAHjg4ACtSLADDtbcAEfDtAAX++gDs6O8A6OvzAP7+AQAAAAAAAzVFHoD+//4A/wAAAAIAAwD9/wEA/gACAAEBAAD+AAIAAwEDAAICAgADAQMAAAEDAAAAAAD/AAAA/wABAAAA/QABAQEAAgD9AP//AQADAwMABAABAAAA/wAAAQAA////AAEBAQAA//8AAgEBAAH//wABAAEAAP/+AAEA/gD///0AAQABAAACAQAAAAAAAQACAP8B/gD+//8A//7+AAH/AAD//wAA/QD+AP///gD///4AAP8AAP7+/gD+/v0AAQD/AP7//QD+/fwA//8AAP79/gD///0A//8AAP7//gD+//8A//8AAAEBAQD//f8AAQEBAAH/AQADAAIAAf//AAECAgD+/f4AAgEAAP8AAAAA/wEA/wABAAAA/wACAQQAAgEEAAMCBQAAAAIABgQGAAEBAwABAQMAAAEBAAH/AgACAgMA///9AAH6/wDhyN8ACwcMAP3+AAD9/f4AAgMDAPr7/AAEAAIAAAL/APn//QAJBAUA9Pn7ABMLCwD6+/kA9Pn1ABAKDwAF/vwA9vn3APz8/QAPCQUAAf//AOnx8QAJBgIAAv8AAPX8/AD9/wEACAUFAAcEBAD5+/wAAgP/APz7+gADAwQABAIBAPv/AADn9voA9Pz+ABELBwD9/f0A8fr9AB8QCQDz9/oA7Pr/AP8CAQAWCAIAEAsAABEGAwDV7/gA6/j8AAgHAgD8AgMA3+/2AAsBAAAsJBcAISAIAPz7AgAJDAUA19LjABYSBwAsNSMAEBMJABQWFgD79fwA+Pf6AAYE/gAQGw0ADBEHAALz7QAaBv4ADwcBAP7z8gD4+vcABgcOAO3s7AD48vYABv74AAwIBQAFCQgA7uzuAPHt9wABBgMA8ej1AAL8/wAQFgYA/wYIAAEDBADh2+sA7+vxADQ3GgBFPSwADfTwAPjt8wDv6OwA6NzrANjN0gDq2uIAAvb6AA4REQAGDA0A/gADAAMDBAD9//wA+fbzAPz++QD7/PcA8vf0AAUNBAC9xN8AMRkQABD9/AAI/wAACg8CAAYMDAAHCQcADhUPAAIE+gAAAwAA/gL3ABgdEgAaIA8A4ebwAPT/BgAZFQoA/hIvAA8cIQAiLzUAj6CnAPoDCwAnGxYAGBQNAB0iGwC0ydKBBAMAAQD/AQEA/v8AAP3/AAADAQQAAQH/AP8BAgD9/v4AAAH+AAIBAQD/AAAAAAACAAMAAQAA/vwA/wICAAP/AQADAwEAAP8DAAIBAwAB//8A/gH9AAEBAAABAQIAAgACAAH/AQAB//8A/f//AAICAAD//gAAAgIAAAD/AAABAAMA/P7+AAH+AAAAAgAAAAEBAP7//wABAQIA/v//AP/+/gD/AAAA/gD/AP0A/wABAQAAAP7+AAAAAQABAP8AAP/8AP8BAAD+/wEA+/76AAD+AAD+//4A/f0AAAEBAAD///8AAP8CAP7//wD+//0AAgABAAD//QD8AQQAAAEAAP/8/AAFAwIA+/z+AP8BAgADAQIA/gD9AAECAAD//vwAAwEAAAb/AQABAP8A+f0AAAYEBgABAAAAAgABAP///wD9/foAAAD/AAMDBQANDQ8A+/wAAPn8/wAD/v8A/gH/AAEB/wD/APwA+vr8APz6+QD9BAcAAP78APj9+QAFAP8ACAECAPf28gD+A/8ACQUEAOzz8wD0+goAAv3+AAoODAAFBAQAAP38AP///wAIAQEA+fv7APT+/QAOCQcA//75APL6/gATCggAAAH/APj+/AD4/f8A9fz+APf/AQD5+foAFQsHAP/9AAD0/AAA/wMDAPz+/gD7BAMA/v4AAOb39QAIBQIACwMDAPj7/gDb6vMAHg8HAB4PCQDs7fMA7vECAPT5/QDoxeEATT8iACEmGAD9+foA/gIEAAMC/gARIB4A9Pv4AA75+QAJHBUAAgoPAAoKCgAE/QAABwwEAPz4/QDy6ekA5dzgAO7n8QD0+gUAIxwHAAgOBgAE+wEAAPz9APfx9QAB+/wA/wP8ABQcGQALFAYA8Pb8AAkNCAD39PsAAQD7APnq7wD+B+8ASlQ8AFUTFQDq6+gA4NnkABcJAwDp4/IA/fbuAN3A5gD7Av4ADRINAO/w8AAEDxEABg4IABMMDQD9Bf0A6uLqAOrj7gBMFQUAAv72AP4BAAD1+AEABvcGAAwIBwAEAwIADQsHAAIMBgAOCQUA+vwLAAECAQAJCAQAHCwBAMrnDAA4KEAA4eLiAKKssgDr7uoAKiMeANvQ1gAW9BUABvz3ABIYEgAAAAAABAEBAgAA/v8AAf4BAP8B/gAB//4AAQABAP3/AQADBAUAAf//AP//AgD/AQEAAwD/AP/+AAABAQEA/f//AAMBBAD+//8AAwEAAAAAAAD//v8AAQMCAP//AQACAAMAAP4BAAEB/wABAgEAAf7/AAEAAQABAP8AAf//AP4AAAAAAQEAAQEAAAAC/wD//wAAAQH/AAD//gAA/wAAAQAAAP8BAQAA/v4A//37AP8BAwD///4A/v78AAAB/wABAPwAAgAFAAD+AAD+AAEA/P/6AAP/AQD8/gEA//8AAAEAAQD+//0AAAD+AAD/AAD///8A/P8AAAL/AQD/APsAAQECAAIAAAD+AAMAAQABAAQAAQAAAv0AAAECAP8BAQD7/fwA/f/9AAD//wAF//8A/gICAAEA/QAEAQAAAQACAP///wAAAAAA/f79APjz/AD59/oAAv8AAAUECQD/AQEAAwECAAH8/AD8/vgA+vr+AAkDBgD5+/kAAAIBAPb59wAaDg0ACvQEAOn07wAVDQwA+v78AAUHBgD8/wAAAAEBAPH29gAaDhUA9fT7AAgEAgAD/vwA6PHxABkREAAJAgIAAwMHAOnz9gAYEQUABQH+APb3+wD4AAEA/gH/AOTz+AARAwIAC/79APkBAwDx+vwADQ0KAODu8wAT9gYAAAX/AO/1/wAmFA4ACQD9AAUAAQAEBf8AEgkFAAUDAQC+3/IA3/b9AAkGAQBSKBIAFAT4APrw7AD9AfwAAwgJAPTx+wAPGAkAICceAO/h5gASGhgA9e/yAAP99AD+/fwA7eX1AAQAAQAA9vcABvr7AP35/gAfLCEAFRQIAAEC/wD9+fYABg0FABIOFgAJFCEACRASAAD39AD8+O4A+ezlAA0BAwD0BgEABgT+APnv9gD2FRAAgouvACMjHwA9QC0A/vT+APgEBAAjNisA6eLmAAn9AwAWJCsA+/jvABvu6AD7+PYA+fb3APTl6AD9+fcAEQ0NAAAQDgAA/gEA/Pn9AP/8/QD7AgAA3+LwAAcfAwAbGRYA/Pz5APv5+AAF/P8A+vjxAPj9/gD+/gAAGQwGAPPTxgB+acEA+wMFAAIGBgAnDwoA9u3vACsIAwD79fIA+wABAAbt8wAAAAAABP///wD//wAAAf8AAAD/AgAAAQAA///+AAABAAAA/gEAAQICAAEBAgAA/wEAAAEBAAAB/wD+AgAA//37AP0BAwADAAEA//8BAAEAAgD/AAAA/wD+AAEBAgAAAf8AAQEAAAD//gACAQIAAAICAP3+/wAAAQAAAQABAAH+AAD///8AAwEDAP7//gACAQIAAP8BAAABAQAA//4A/f//AP//AQD+/v4A//7+AP4A/QD7/foAAQADAP8A/gAB/wEAAQD+AP//AAD/Af8AAQAAAP39/gD/AAIA/v//AAEA/gD+//8AAAADAAH/AQD+//8A/v8AAP//AAAAAf8AAQD+AAMBAgD9//kAAAICAP3+AQABAwIAAQH/AAD+/gACAQAA/v0AAPn++gD9/v4ABgUAAP/++wD+AQIABAIGAP///gABAAIA/vz9APnx+gD//wEA/f3+AAoGAgD0+voAAgICAP7+/wD//v4A/v3/AAoGCQD7/voA/v77AP769gD5+wMAAgMEAPP5+QAYEBIAA/3+AAcFBQAEAgMA+/z6APz7+wAFBAIA/v7/AAgCBAD9/v8A/wIDAPb8/AAKBwcA/v//APr/AAD5/f0A/v77APj7/QASBwQACQMJAN/z9AAVDwsABAQBAPL6/gABAwMAAv0BAB8QCgAEAv4A/f3+ABwRCgDv9fYAEhIJAB0aEADp4u0AAgECAP8B/wD9/v4ACgMAAD4WDQApFgMAAP39AAHy+AD7Bv4A9/X2AN/e8QDlxuUA+P3+AOvxAABNBhgAIxQGAAYBAgD/APoAAQH/APa4LF2rAAAK7klEQVT38wAJBQIACRcKABQjHQAdLikA+/0DAPz8/AD37esA+vDuAPjy9AATLSkABxkqAAsODgC8nJIAwsDkAFhBIAAvPSoA8+zjAOvl+QAA+/sAZUkkAPPu8gDyx8IACwYFAPTr/QDz5OUA7/P7AO/r+gDl198AJTYsAA8dIQD+/v0A9/f2AA8CAwAHAgUA+fr/AA/38gDp5OcAAwADAP/8+wATGBEA9fwFAAkiOgDr+wEA/v0CABUuLAAWFRQA8+TZAM/DyAD8+PIA/+/xAF9QNgD8/AQA8ujrAOzu9ADy8P4A+gAAAPv8/AAA+vgA/wIAAPT0/wAAAAAABP7+/gABAAAA/gD/AP///wD9AAEAAAECAAIAAAADAQEAAgEBAP3//gACAAMAAwD/AP3//gD//gAABAEEAAD//wD//gEA/wEAAAAA+wD9/wIA/vwCAAQDAAD/AQIAAQEAAAD/AAAA//8AAQD/AAAA/AD///4AAQD+AP/+/AAAAwEA//8AAAEA/wABAAIA/wD9AAH/AQD//wAA/wD/AP8A/wD9AAEA/wIDAP38/AD+/QIA////AAD/AAACAf8A/v/4AAADBQD+/f0AAf8CAP/+/wD/APoA//4AAAECBAD/AP8A/wD9AAH+AgAB/wMAAgD+AP4A/QAB/wMA/v7+AAABAAD/Af4AAP39AAQCAgD9+wAAAAEDAAQDAQAAAP0AAAMFAP8B/QD7/PoA/P37AAcEBgD/AQMA/gD9AAMDAgD+//4A/wACAO7t8QD+/wQAAf8AAP39/AD7+/oACQYIAAQDCwAHBAEA8f74AAYHBwAD+/8A+PPvAAEIDwD/+v8AAQECAPv9/QD/AgEA//z/AO749QAZDQsAAwD/AA8GAwDo7vAAB//+AAkFAwDs+fYADwoHAPT5+wATCAkAAAAAAP8CAgDq9voABwH+AAECAAAbBwkA+P7/AP7+/gD/BQMA/AAAAP7//wAUCwgA8vb2ACARDAAQCf4AAP39AAkDAQAEAAQAGhEHABweEwDa2ugACAgHAPL1/AAJAwEAXCUVAB0P/QAEAgMA/Pj6AOz0+QDw8f0A2Oj3AL3l+AD4Av4AAwAEAFo6IAAYBvIA/fkDAP8LEgAJCg8ABgkKAA4GIADv6OIACAgEAPf+BADp2tgAEhshAAoJCQABDAkA/fsJAP/7/ADZwr0AtbqaAB4fGQA3OiMARRwNAAkEAQD+/wAAAgoXAAAH6AAA+PYADBQPAAsXEAD89/wA6t3kAPwACADv5vQA/AEAABMRBQAJCvoA9NvQAPzmCQATJiUAGBgaAP36AQD29PMAAvz6AAoF/gAgIx0A8u7uAAMPHAAGDhUA4enlAPDo3QAkDyYAFxwZAOjn4gC6vLoA5ujzAC4pHQD99AoAGhonAPPm3wD29u4A/v/7AA4UDQADBv0A/vf3AAcJCAD5+fgA//8DANLi6wAAAAAABAABAQAA/gAAAAABAAEA/QAA//4AAAADAAEBAwD+//8AAgAAAAICAgAGAQIAAf8AAP4BAwACAAEAAf/9AAIDAAD9/fwAAwEDAP8B/wAAAP4AAf8BAP7+/wADBAEA/gAAAAEDAAD//gAA///9AAH+/wABAP4A/wAAAAIBAwD8/PkAAAMBAAAAAAABAAMA/v4AAAAB/gD//wAAAv8BAP8A/wABAP8AAP8AAAP/AQD9AAEA/wD/AP79/QD9AP8AAAL/AAH9/AABAAMA/v//AAAA/wD9/f8AAAAAAP76/AAAAgAAAQAAAAEA/wD///8AAgEBAAEA/wD///wA//8AAPz+/wAAAf4ABQEDAPz++wD/AQMAAAH/APr+AAADBAMA/vz6AAIBAgADAAAA+/v8AP7++wD+AggA/gH/AAP+AwABAQEAAAAAAPf0+AAKBQgA+QH7APgA/QD8/PsA+AUFAAkC/QABAAAA8/v1AAYBBAD7/vsABwYGAPf5+QAADA0A/vn4AAgFAwD7+/kAAQD8AAEA/gDz+fgACP/9AAYEBQDl8vMAJhURAAH8/QABAAIADQQDAPf6+QDz+vkADgYDAAgA/gDv9PUABAIDABcLCAAEBQQAAff4AAcEAwDr9fkAAgcAABAEBQAA/vwA/f4AAAEB/gDu9PsADgkCAO33/QDz+v0ACQMDAAkHAQDw/P8AAvb6APj3+ABDKBMAFRAEAAgLCQABAgIAAAD9AAYG/QATAQYA2dXxAP8BAQAA/f0AKBIJAD0rEQAMCgYA/wUJAPP2+QDu7u4A8+ztAPXs+wD09vYABAgLAEJbUwDx7OAA/vv6APX59AAA/gAABQEDAAsLCQAMCvwAWUwkABIHBQD++uwAFjwjAPv9AgD19PgA7e/5APbz+wAJBwYA+/YAAPH89AADBAUABxESAP7y8gAOEAcAAgUDAA4SBAAHCAAA5OP3AOzw9gD18NAACAfRAAoSEgAHEhQA/wIJAPz3+AD7BQcAERUTAAwPEwDIvb8AxMzeAOr4AADx/P8A+gH9AAMCBAAABAcAAwACAM68xAA6Fw8A8RUUABMdGQARGiUACyEFAPnr4AD6E/4A+/n6AAQJAgANDRMAAwYDACoEAgCkdZ8ABP7+AAD+/v8A/f7/AP7+AAABAQIAAAEAAP39/AAEBQYA/v4AAAIDAQD8AP0AAgICAP//AAD/AP8A/wH9AAH9/gADAQEA/gH/AAAAAAAA//4AAQACAP/+/wD9/f8AAwMDAAAA/QABAP8A/v7+AP8ABAABAQAA//z7AAMBAgD9/wQA/v38AAABAgD8AP8AAwIDAP//AAAB/v8A/AD9AP8A/wABAv8AAf4BAP0CAgAB/v8A///+AAIEAwD9/P0A//8CAAEAAgD9/vwAAwQDAPz7/gABAQEA/f39AP8DAAAE/QIAAAADAP4BAAAAAP8AAAAAAP7//gD/AAAAAfz/AP0AAQADAwQA+v39AP8CAAAAAP0AAQAAAAIDAwD6+/0AAgICAP8B/QD/AAMAAAP/APz8/QD/AQEA/AD9AAYDBQADAgQAAP8AABMSDQDd+esA/wMBAAH7/QAIBgcA+/v7AAUFAgD+AgUA+/77APz//AD5/PsABgQDAPb49gD6APwA8fnzABcLCwD69vQA////AAIA/wDx9vMAAQYGAAMEAwD4+/oA+gD/AP36+wAIBAMACgMBAAP/AAD5+vgA7/z/AA4FAQANCAUA6/f8AP8CAAD7/v8A/wIBABkLCQDl8/UAAf4FABURBADz9fkAAwMFAPD29wAJBwYA7vkAAPD0+QAgEg0A9fn1AM/M3wABAwcACgQBACIeDQAJAf8A+vr9APMB/gANDwsA/wAAAAH7/ADp8fkA+wH/ADMbCAAkGhgAQTYjAAAE+QD7+vsA+vj3APj19wD79f0A/fb3APLr9QACFxYAFQ3/AOrVyAAfLjcA8ejhAPTx8wAA/f8AA/7/AAT++gD9AQEAChQSAP8BBAD//v4A+v76APjx+QDr6+4ABQUIAAIDBAAHBgEADhAQAPPt6QD6+PYAEAwCABQQDwDPxdwABwkRAB9APwAeMDgAEeXoAMu3swDs8PMADvn8APn38AAF8/QA+v4CABESEQAL/QcAAvz1AAP+/gBLWlgAOD3SAOnV2wDl4u4A6uv1AOn0/wD9AwAAGgkGAA0EBwD6/wAA+OvqAOnz7QDg0wEAKDAcAA8PAwAjLCgA+AMEABUVEgD/AgYACRchAOru8gAAAJ8AVMKl+OF1K74AAAAASUVORK5CYII=;" vertex="1" parent="1">
          <mxGeometry x="470.5" y="980" width="102" height="71.21" as="geometry" />
        </mxCell>
        <mxCell id="cn1FPqtZHzVA6MvDkewv-8" value="&lt;span style=&quot;color: rgb(0, 0, 0); font-family: Helvetica; font-size: 12px; font-style: normal; font-variant-ligatures: normal; font-variant-caps: normal; font-weight: 400; letter-spacing: normal; orphans: 2; text-align: right; text-indent: 0px; text-transform: none; widows: 2; word-spacing: 0px; -webkit-text-stroke-width: 0px; white-space: normal; text-decoration-thickness: initial; text-decoration-style: initial; text-decoration-color: initial; float: none; display: inline !important;&quot;&gt;How cock looks like?&lt;/span&gt;" style="text;whiteSpace=wrap;html=1;" vertex="1" parent="1">
          <mxGeometry x="455" y="940" width="150" height="40" as="geometry" />
        </mxCell>
        <mxCell id="cn1FPqtZHzVA6MvDkewv-9" value="The image you&#39;ve shared depicts a male pheasant, characterized by its vibrant plumage. Male pheasants typically have a mix of colorful feathers, including shades of green, purple, and brown, along with distinctive features like a red face and a long tail. If you have any specific questions about pheasants or their characteristics, feel free to ask!" style="text;whiteSpace=wrap;html=1;fillColor=#d5e8d4;strokeColor=#82b366;" vertex="1" parent="1">
          <mxGeometry x="200.84" y="1079" width="369.16" height="121" as="geometry" />
        </mxCell>
        <mxCell id="cn1FPqtZHzVA6MvDkewv-10" value="" style="sketch=0;pointerEvents=1;shadow=0;dashed=0;html=1;strokeColor=none;fillColor=#505050;labelPosition=center;verticalLabelPosition=bottom;verticalAlign=top;outlineConnect=0;align=center;shape=mxgraph.office.services.web_services;" vertex="1" parent="1">
          <mxGeometry x="140" y="1079" width="40" height="40" as="geometry" />
        </mxCell>
      </root>
    </mxGraphModel>
  </diagram>
</mxfile>
